%TF.GenerationSoftware,KiCad,Pcbnew,(6.0.0-rc1-dev-1583-gb0ab53ac2)*%
%TF.CreationDate,2019-01-25T22:49:34+01:00*%
%TF.ProjectId,SliderBar,536c6964-6572-4426-9172-2e6b69636164,rev?*%
%TF.SameCoordinates,Original*%
%TF.FileFunction,Copper,L2,Bot*%
%TF.FilePolarity,Positive*%
%FSLAX46Y46*%
G04 Gerber Fmt 4.6, Leading zero omitted, Abs format (unit mm)*
G04 Created by KiCad (PCBNEW (6.0.0-rc1-dev-1583-gb0ab53ac2)) date 25/01/19 22:49:34 PM*
%MOMM*%
%LPD*%
G04 APERTURE LIST*
%ADD10C,0.100000*%
%ADD11C,1.150000*%
%ADD12C,1.000000*%
%ADD13C,0.600000*%
%ADD14R,2.500000X1.800000*%
%ADD15C,2.250000*%
%ADD16R,1.500000X2.200000*%
%ADD17R,1.200000X1.400000*%
%ADD18R,1.600000X1.700000*%
%ADD19R,1.560000X0.650000*%
%ADD20R,1.750000X0.450000*%
%ADD21C,4.400000*%
%ADD22C,1.016000*%
%ADD23C,0.635000*%
%ADD24C,0.381000*%
%ADD25C,0.203200*%
%ADD26C,0.889000*%
%ADD27C,0.127000*%
G04 APERTURE END LIST*
D10*
G36*
X170019505Y-61021205D02*
G01*
X170043773Y-61024805D01*
X170067572Y-61030766D01*
X170090671Y-61039031D01*
X170112850Y-61049521D01*
X170133893Y-61062133D01*
X170153599Y-61076748D01*
X170171777Y-61093224D01*
X170188253Y-61111402D01*
X170202868Y-61131108D01*
X170215480Y-61152151D01*
X170225970Y-61174330D01*
X170234235Y-61197429D01*
X170240196Y-61221228D01*
X170243796Y-61245496D01*
X170245000Y-61270000D01*
X170245000Y-61920002D01*
X170243796Y-61944506D01*
X170240196Y-61968774D01*
X170234235Y-61992573D01*
X170225970Y-62015672D01*
X170215480Y-62037851D01*
X170202868Y-62058894D01*
X170188253Y-62078600D01*
X170171777Y-62096778D01*
X170153599Y-62113254D01*
X170133893Y-62127869D01*
X170112850Y-62140481D01*
X170090671Y-62150971D01*
X170067572Y-62159236D01*
X170043773Y-62165197D01*
X170019505Y-62168797D01*
X169995001Y-62170001D01*
X169094999Y-62170001D01*
X169070495Y-62168797D01*
X169046227Y-62165197D01*
X169022428Y-62159236D01*
X168999329Y-62150971D01*
X168977150Y-62140481D01*
X168956107Y-62127869D01*
X168936401Y-62113254D01*
X168918223Y-62096778D01*
X168901747Y-62078600D01*
X168887132Y-62058894D01*
X168874520Y-62037851D01*
X168864030Y-62015672D01*
X168855765Y-61992573D01*
X168849804Y-61968774D01*
X168846204Y-61944506D01*
X168845000Y-61920002D01*
X168845000Y-61270000D01*
X168846204Y-61245496D01*
X168849804Y-61221228D01*
X168855765Y-61197429D01*
X168864030Y-61174330D01*
X168874520Y-61152151D01*
X168887132Y-61131108D01*
X168901747Y-61111402D01*
X168918223Y-61093224D01*
X168936401Y-61076748D01*
X168956107Y-61062133D01*
X168977150Y-61049521D01*
X168999329Y-61039031D01*
X169022428Y-61030766D01*
X169046227Y-61024805D01*
X169070495Y-61021205D01*
X169094999Y-61020001D01*
X169995001Y-61020001D01*
X170019505Y-61021205D01*
X170019505Y-61021205D01*
G37*
D11*
X169545000Y-61595001D03*
D10*
G36*
X170019505Y-63071205D02*
G01*
X170043773Y-63074805D01*
X170067572Y-63080766D01*
X170090671Y-63089031D01*
X170112850Y-63099521D01*
X170133893Y-63112133D01*
X170153599Y-63126748D01*
X170171777Y-63143224D01*
X170188253Y-63161402D01*
X170202868Y-63181108D01*
X170215480Y-63202151D01*
X170225970Y-63224330D01*
X170234235Y-63247429D01*
X170240196Y-63271228D01*
X170243796Y-63295496D01*
X170245000Y-63320000D01*
X170245000Y-63970002D01*
X170243796Y-63994506D01*
X170240196Y-64018774D01*
X170234235Y-64042573D01*
X170225970Y-64065672D01*
X170215480Y-64087851D01*
X170202868Y-64108894D01*
X170188253Y-64128600D01*
X170171777Y-64146778D01*
X170153599Y-64163254D01*
X170133893Y-64177869D01*
X170112850Y-64190481D01*
X170090671Y-64200971D01*
X170067572Y-64209236D01*
X170043773Y-64215197D01*
X170019505Y-64218797D01*
X169995001Y-64220001D01*
X169094999Y-64220001D01*
X169070495Y-64218797D01*
X169046227Y-64215197D01*
X169022428Y-64209236D01*
X168999329Y-64200971D01*
X168977150Y-64190481D01*
X168956107Y-64177869D01*
X168936401Y-64163254D01*
X168918223Y-64146778D01*
X168901747Y-64128600D01*
X168887132Y-64108894D01*
X168874520Y-64087851D01*
X168864030Y-64065672D01*
X168855765Y-64042573D01*
X168849804Y-64018774D01*
X168846204Y-63994506D01*
X168845000Y-63970002D01*
X168845000Y-63320000D01*
X168846204Y-63295496D01*
X168849804Y-63271228D01*
X168855765Y-63247429D01*
X168864030Y-63224330D01*
X168874520Y-63202151D01*
X168887132Y-63181108D01*
X168901747Y-63161402D01*
X168918223Y-63143224D01*
X168936401Y-63126748D01*
X168956107Y-63112133D01*
X168977150Y-63099521D01*
X168999329Y-63089031D01*
X169022428Y-63080766D01*
X169046227Y-63074805D01*
X169070495Y-63071205D01*
X169094999Y-63070001D01*
X169995001Y-63070001D01*
X170019505Y-63071205D01*
X170019505Y-63071205D01*
G37*
D11*
X169545000Y-63645001D03*
D10*
G36*
X140744504Y-52525204D02*
G01*
X140768773Y-52528804D01*
X140792571Y-52534765D01*
X140815671Y-52543030D01*
X140837849Y-52553520D01*
X140858893Y-52566133D01*
X140878598Y-52580747D01*
X140896777Y-52597223D01*
X140913253Y-52615402D01*
X140927867Y-52635107D01*
X140940480Y-52656151D01*
X140950970Y-52678329D01*
X140959235Y-52701429D01*
X140965196Y-52725227D01*
X140968796Y-52749496D01*
X140970000Y-52774000D01*
X140970000Y-53274000D01*
X140968796Y-53298504D01*
X140965196Y-53322773D01*
X140959235Y-53346571D01*
X140950970Y-53369671D01*
X140940480Y-53391849D01*
X140927867Y-53412893D01*
X140913253Y-53432598D01*
X140896777Y-53450777D01*
X140878598Y-53467253D01*
X140858893Y-53481867D01*
X140837849Y-53494480D01*
X140815671Y-53504970D01*
X140792571Y-53513235D01*
X140768773Y-53519196D01*
X140744504Y-53522796D01*
X140720000Y-53524000D01*
X138520000Y-53524000D01*
X138495496Y-53522796D01*
X138471227Y-53519196D01*
X138447429Y-53513235D01*
X138424329Y-53504970D01*
X138402151Y-53494480D01*
X138381107Y-53481867D01*
X138361402Y-53467253D01*
X138343223Y-53450777D01*
X138326747Y-53432598D01*
X138312133Y-53412893D01*
X138299520Y-53391849D01*
X138289030Y-53369671D01*
X138280765Y-53346571D01*
X138274804Y-53322773D01*
X138271204Y-53298504D01*
X138270000Y-53274000D01*
X138270000Y-52774000D01*
X138271204Y-52749496D01*
X138274804Y-52725227D01*
X138280765Y-52701429D01*
X138289030Y-52678329D01*
X138299520Y-52656151D01*
X138312133Y-52635107D01*
X138326747Y-52615402D01*
X138343223Y-52597223D01*
X138361402Y-52580747D01*
X138381107Y-52566133D01*
X138402151Y-52553520D01*
X138424329Y-52543030D01*
X138447429Y-52534765D01*
X138471227Y-52528804D01*
X138495496Y-52525204D01*
X138520000Y-52524000D01*
X140720000Y-52524000D01*
X140744504Y-52525204D01*
X140744504Y-52525204D01*
G37*
D12*
X139620000Y-53024000D03*
D10*
G36*
X140744504Y-57475204D02*
G01*
X140768773Y-57478804D01*
X140792571Y-57484765D01*
X140815671Y-57493030D01*
X140837849Y-57503520D01*
X140858893Y-57516133D01*
X140878598Y-57530747D01*
X140896777Y-57547223D01*
X140913253Y-57565402D01*
X140927867Y-57585107D01*
X140940480Y-57606151D01*
X140950970Y-57628329D01*
X140959235Y-57651429D01*
X140965196Y-57675227D01*
X140968796Y-57699496D01*
X140970000Y-57724000D01*
X140970000Y-58224000D01*
X140968796Y-58248504D01*
X140965196Y-58272773D01*
X140959235Y-58296571D01*
X140950970Y-58319671D01*
X140940480Y-58341849D01*
X140927867Y-58362893D01*
X140913253Y-58382598D01*
X140896777Y-58400777D01*
X140878598Y-58417253D01*
X140858893Y-58431867D01*
X140837849Y-58444480D01*
X140815671Y-58454970D01*
X140792571Y-58463235D01*
X140768773Y-58469196D01*
X140744504Y-58472796D01*
X140720000Y-58474000D01*
X138520000Y-58474000D01*
X138495496Y-58472796D01*
X138471227Y-58469196D01*
X138447429Y-58463235D01*
X138424329Y-58454970D01*
X138402151Y-58444480D01*
X138381107Y-58431867D01*
X138361402Y-58417253D01*
X138343223Y-58400777D01*
X138326747Y-58382598D01*
X138312133Y-58362893D01*
X138299520Y-58341849D01*
X138289030Y-58319671D01*
X138280765Y-58296571D01*
X138274804Y-58272773D01*
X138271204Y-58248504D01*
X138270000Y-58224000D01*
X138270000Y-57724000D01*
X138271204Y-57699496D01*
X138274804Y-57675227D01*
X138280765Y-57651429D01*
X138289030Y-57628329D01*
X138299520Y-57606151D01*
X138312133Y-57585107D01*
X138326747Y-57565402D01*
X138343223Y-57547223D01*
X138361402Y-57530747D01*
X138381107Y-57516133D01*
X138402151Y-57503520D01*
X138424329Y-57493030D01*
X138447429Y-57484765D01*
X138471227Y-57478804D01*
X138495496Y-57475204D01*
X138520000Y-57474000D01*
X140720000Y-57474000D01*
X140744504Y-57475204D01*
X140744504Y-57475204D01*
G37*
D12*
X139620000Y-57974000D03*
D10*
G36*
X143534703Y-54574722D02*
G01*
X143549264Y-54576882D01*
X143563543Y-54580459D01*
X143577403Y-54585418D01*
X143590710Y-54591712D01*
X143603336Y-54599280D01*
X143615159Y-54608048D01*
X143626066Y-54617934D01*
X143635952Y-54628841D01*
X143644720Y-54640664D01*
X143652288Y-54653290D01*
X143658582Y-54666597D01*
X143663541Y-54680457D01*
X143667118Y-54694736D01*
X143669278Y-54709297D01*
X143670000Y-54724000D01*
X143670000Y-55024000D01*
X143669278Y-55038703D01*
X143667118Y-55053264D01*
X143663541Y-55067543D01*
X143658582Y-55081403D01*
X143652288Y-55094710D01*
X143644720Y-55107336D01*
X143635952Y-55119159D01*
X143626066Y-55130066D01*
X143615159Y-55139952D01*
X143603336Y-55148720D01*
X143590710Y-55156288D01*
X143577403Y-55162582D01*
X143563543Y-55167541D01*
X143549264Y-55171118D01*
X143534703Y-55173278D01*
X143520000Y-55174000D01*
X142120000Y-55174000D01*
X142105297Y-55173278D01*
X142090736Y-55171118D01*
X142076457Y-55167541D01*
X142062597Y-55162582D01*
X142049290Y-55156288D01*
X142036664Y-55148720D01*
X142024841Y-55139952D01*
X142013934Y-55130066D01*
X142004048Y-55119159D01*
X141995280Y-55107336D01*
X141987712Y-55094710D01*
X141981418Y-55081403D01*
X141976459Y-55067543D01*
X141972882Y-55053264D01*
X141970722Y-55038703D01*
X141970000Y-55024000D01*
X141970000Y-54724000D01*
X141970722Y-54709297D01*
X141972882Y-54694736D01*
X141976459Y-54680457D01*
X141981418Y-54666597D01*
X141987712Y-54653290D01*
X141995280Y-54640664D01*
X142004048Y-54628841D01*
X142013934Y-54617934D01*
X142024841Y-54608048D01*
X142036664Y-54599280D01*
X142049290Y-54591712D01*
X142062597Y-54585418D01*
X142076457Y-54580459D01*
X142090736Y-54576882D01*
X142105297Y-54574722D01*
X142120000Y-54574000D01*
X143520000Y-54574000D01*
X143534703Y-54574722D01*
X143534703Y-54574722D01*
G37*
D13*
X142820000Y-54874000D03*
D10*
G36*
X143534703Y-55824722D02*
G01*
X143549264Y-55826882D01*
X143563543Y-55830459D01*
X143577403Y-55835418D01*
X143590710Y-55841712D01*
X143603336Y-55849280D01*
X143615159Y-55858048D01*
X143626066Y-55867934D01*
X143635952Y-55878841D01*
X143644720Y-55890664D01*
X143652288Y-55903290D01*
X143658582Y-55916597D01*
X143663541Y-55930457D01*
X143667118Y-55944736D01*
X143669278Y-55959297D01*
X143670000Y-55974000D01*
X143670000Y-56274000D01*
X143669278Y-56288703D01*
X143667118Y-56303264D01*
X143663541Y-56317543D01*
X143658582Y-56331403D01*
X143652288Y-56344710D01*
X143644720Y-56357336D01*
X143635952Y-56369159D01*
X143626066Y-56380066D01*
X143615159Y-56389952D01*
X143603336Y-56398720D01*
X143590710Y-56406288D01*
X143577403Y-56412582D01*
X143563543Y-56417541D01*
X143549264Y-56421118D01*
X143534703Y-56423278D01*
X143520000Y-56424000D01*
X142120000Y-56424000D01*
X142105297Y-56423278D01*
X142090736Y-56421118D01*
X142076457Y-56417541D01*
X142062597Y-56412582D01*
X142049290Y-56406288D01*
X142036664Y-56398720D01*
X142024841Y-56389952D01*
X142013934Y-56380066D01*
X142004048Y-56369159D01*
X141995280Y-56357336D01*
X141987712Y-56344710D01*
X141981418Y-56331403D01*
X141976459Y-56317543D01*
X141972882Y-56303264D01*
X141970722Y-56288703D01*
X141970000Y-56274000D01*
X141970000Y-55974000D01*
X141970722Y-55959297D01*
X141972882Y-55944736D01*
X141976459Y-55930457D01*
X141981418Y-55916597D01*
X141987712Y-55903290D01*
X141995280Y-55890664D01*
X142004048Y-55878841D01*
X142013934Y-55867934D01*
X142024841Y-55858048D01*
X142036664Y-55849280D01*
X142049290Y-55841712D01*
X142062597Y-55835418D01*
X142076457Y-55830459D01*
X142090736Y-55826882D01*
X142105297Y-55824722D01*
X142120000Y-55824000D01*
X143520000Y-55824000D01*
X143534703Y-55824722D01*
X143534703Y-55824722D01*
G37*
D13*
X142820000Y-56124000D03*
D10*
G36*
X185608504Y-57475204D02*
G01*
X185632773Y-57478804D01*
X185656571Y-57484765D01*
X185679671Y-57493030D01*
X185701849Y-57503520D01*
X185722893Y-57516133D01*
X185742598Y-57530747D01*
X185760777Y-57547223D01*
X185777253Y-57565402D01*
X185791867Y-57585107D01*
X185804480Y-57606151D01*
X185814970Y-57628329D01*
X185823235Y-57651429D01*
X185829196Y-57675227D01*
X185832796Y-57699496D01*
X185834000Y-57724000D01*
X185834000Y-58224000D01*
X185832796Y-58248504D01*
X185829196Y-58272773D01*
X185823235Y-58296571D01*
X185814970Y-58319671D01*
X185804480Y-58341849D01*
X185791867Y-58362893D01*
X185777253Y-58382598D01*
X185760777Y-58400777D01*
X185742598Y-58417253D01*
X185722893Y-58431867D01*
X185701849Y-58444480D01*
X185679671Y-58454970D01*
X185656571Y-58463235D01*
X185632773Y-58469196D01*
X185608504Y-58472796D01*
X185584000Y-58474000D01*
X183384000Y-58474000D01*
X183359496Y-58472796D01*
X183335227Y-58469196D01*
X183311429Y-58463235D01*
X183288329Y-58454970D01*
X183266151Y-58444480D01*
X183245107Y-58431867D01*
X183225402Y-58417253D01*
X183207223Y-58400777D01*
X183190747Y-58382598D01*
X183176133Y-58362893D01*
X183163520Y-58341849D01*
X183153030Y-58319671D01*
X183144765Y-58296571D01*
X183138804Y-58272773D01*
X183135204Y-58248504D01*
X183134000Y-58224000D01*
X183134000Y-57724000D01*
X183135204Y-57699496D01*
X183138804Y-57675227D01*
X183144765Y-57651429D01*
X183153030Y-57628329D01*
X183163520Y-57606151D01*
X183176133Y-57585107D01*
X183190747Y-57565402D01*
X183207223Y-57547223D01*
X183225402Y-57530747D01*
X183245107Y-57516133D01*
X183266151Y-57503520D01*
X183288329Y-57493030D01*
X183311429Y-57484765D01*
X183335227Y-57478804D01*
X183359496Y-57475204D01*
X183384000Y-57474000D01*
X185584000Y-57474000D01*
X185608504Y-57475204D01*
X185608504Y-57475204D01*
G37*
D12*
X184484000Y-57974000D03*
D10*
G36*
X185608504Y-52525204D02*
G01*
X185632773Y-52528804D01*
X185656571Y-52534765D01*
X185679671Y-52543030D01*
X185701849Y-52553520D01*
X185722893Y-52566133D01*
X185742598Y-52580747D01*
X185760777Y-52597223D01*
X185777253Y-52615402D01*
X185791867Y-52635107D01*
X185804480Y-52656151D01*
X185814970Y-52678329D01*
X185823235Y-52701429D01*
X185829196Y-52725227D01*
X185832796Y-52749496D01*
X185834000Y-52774000D01*
X185834000Y-53274000D01*
X185832796Y-53298504D01*
X185829196Y-53322773D01*
X185823235Y-53346571D01*
X185814970Y-53369671D01*
X185804480Y-53391849D01*
X185791867Y-53412893D01*
X185777253Y-53432598D01*
X185760777Y-53450777D01*
X185742598Y-53467253D01*
X185722893Y-53481867D01*
X185701849Y-53494480D01*
X185679671Y-53504970D01*
X185656571Y-53513235D01*
X185632773Y-53519196D01*
X185608504Y-53522796D01*
X185584000Y-53524000D01*
X183384000Y-53524000D01*
X183359496Y-53522796D01*
X183335227Y-53519196D01*
X183311429Y-53513235D01*
X183288329Y-53504970D01*
X183266151Y-53494480D01*
X183245107Y-53481867D01*
X183225402Y-53467253D01*
X183207223Y-53450777D01*
X183190747Y-53432598D01*
X183176133Y-53412893D01*
X183163520Y-53391849D01*
X183153030Y-53369671D01*
X183144765Y-53346571D01*
X183138804Y-53322773D01*
X183135204Y-53298504D01*
X183134000Y-53274000D01*
X183134000Y-52774000D01*
X183135204Y-52749496D01*
X183138804Y-52725227D01*
X183144765Y-52701429D01*
X183153030Y-52678329D01*
X183163520Y-52656151D01*
X183176133Y-52635107D01*
X183190747Y-52615402D01*
X183207223Y-52597223D01*
X183225402Y-52580747D01*
X183245107Y-52566133D01*
X183266151Y-52553520D01*
X183288329Y-52543030D01*
X183311429Y-52534765D01*
X183335227Y-52528804D01*
X183359496Y-52525204D01*
X183384000Y-52524000D01*
X185584000Y-52524000D01*
X185608504Y-52525204D01*
X185608504Y-52525204D01*
G37*
D12*
X184484000Y-53024000D03*
D10*
G36*
X181998703Y-55824722D02*
G01*
X182013264Y-55826882D01*
X182027543Y-55830459D01*
X182041403Y-55835418D01*
X182054710Y-55841712D01*
X182067336Y-55849280D01*
X182079159Y-55858048D01*
X182090066Y-55867934D01*
X182099952Y-55878841D01*
X182108720Y-55890664D01*
X182116288Y-55903290D01*
X182122582Y-55916597D01*
X182127541Y-55930457D01*
X182131118Y-55944736D01*
X182133278Y-55959297D01*
X182134000Y-55974000D01*
X182134000Y-56274000D01*
X182133278Y-56288703D01*
X182131118Y-56303264D01*
X182127541Y-56317543D01*
X182122582Y-56331403D01*
X182116288Y-56344710D01*
X182108720Y-56357336D01*
X182099952Y-56369159D01*
X182090066Y-56380066D01*
X182079159Y-56389952D01*
X182067336Y-56398720D01*
X182054710Y-56406288D01*
X182041403Y-56412582D01*
X182027543Y-56417541D01*
X182013264Y-56421118D01*
X181998703Y-56423278D01*
X181984000Y-56424000D01*
X180584000Y-56424000D01*
X180569297Y-56423278D01*
X180554736Y-56421118D01*
X180540457Y-56417541D01*
X180526597Y-56412582D01*
X180513290Y-56406288D01*
X180500664Y-56398720D01*
X180488841Y-56389952D01*
X180477934Y-56380066D01*
X180468048Y-56369159D01*
X180459280Y-56357336D01*
X180451712Y-56344710D01*
X180445418Y-56331403D01*
X180440459Y-56317543D01*
X180436882Y-56303264D01*
X180434722Y-56288703D01*
X180434000Y-56274000D01*
X180434000Y-55974000D01*
X180434722Y-55959297D01*
X180436882Y-55944736D01*
X180440459Y-55930457D01*
X180445418Y-55916597D01*
X180451712Y-55903290D01*
X180459280Y-55890664D01*
X180468048Y-55878841D01*
X180477934Y-55867934D01*
X180488841Y-55858048D01*
X180500664Y-55849280D01*
X180513290Y-55841712D01*
X180526597Y-55835418D01*
X180540457Y-55830459D01*
X180554736Y-55826882D01*
X180569297Y-55824722D01*
X180584000Y-55824000D01*
X181984000Y-55824000D01*
X181998703Y-55824722D01*
X181998703Y-55824722D01*
G37*
D13*
X181284000Y-56124000D03*
D10*
G36*
X181998703Y-54574722D02*
G01*
X182013264Y-54576882D01*
X182027543Y-54580459D01*
X182041403Y-54585418D01*
X182054710Y-54591712D01*
X182067336Y-54599280D01*
X182079159Y-54608048D01*
X182090066Y-54617934D01*
X182099952Y-54628841D01*
X182108720Y-54640664D01*
X182116288Y-54653290D01*
X182122582Y-54666597D01*
X182127541Y-54680457D01*
X182131118Y-54694736D01*
X182133278Y-54709297D01*
X182134000Y-54724000D01*
X182134000Y-55024000D01*
X182133278Y-55038703D01*
X182131118Y-55053264D01*
X182127541Y-55067543D01*
X182122582Y-55081403D01*
X182116288Y-55094710D01*
X182108720Y-55107336D01*
X182099952Y-55119159D01*
X182090066Y-55130066D01*
X182079159Y-55139952D01*
X182067336Y-55148720D01*
X182054710Y-55156288D01*
X182041403Y-55162582D01*
X182027543Y-55167541D01*
X182013264Y-55171118D01*
X181998703Y-55173278D01*
X181984000Y-55174000D01*
X180584000Y-55174000D01*
X180569297Y-55173278D01*
X180554736Y-55171118D01*
X180540457Y-55167541D01*
X180526597Y-55162582D01*
X180513290Y-55156288D01*
X180500664Y-55148720D01*
X180488841Y-55139952D01*
X180477934Y-55130066D01*
X180468048Y-55119159D01*
X180459280Y-55107336D01*
X180451712Y-55094710D01*
X180445418Y-55081403D01*
X180440459Y-55067543D01*
X180436882Y-55053264D01*
X180434722Y-55038703D01*
X180434000Y-55024000D01*
X180434000Y-54724000D01*
X180434722Y-54709297D01*
X180436882Y-54694736D01*
X180440459Y-54680457D01*
X180445418Y-54666597D01*
X180451712Y-54653290D01*
X180459280Y-54640664D01*
X180468048Y-54628841D01*
X180477934Y-54617934D01*
X180488841Y-54608048D01*
X180500664Y-54599280D01*
X180513290Y-54591712D01*
X180526597Y-54585418D01*
X180540457Y-54580459D01*
X180554736Y-54576882D01*
X180569297Y-54574722D01*
X180584000Y-54574000D01*
X181984000Y-54574000D01*
X181998703Y-54574722D01*
X181998703Y-54574722D01*
G37*
D13*
X181284000Y-54874000D03*
D10*
G36*
X140744504Y-73353204D02*
G01*
X140768773Y-73356804D01*
X140792571Y-73362765D01*
X140815671Y-73371030D01*
X140837849Y-73381520D01*
X140858893Y-73394133D01*
X140878598Y-73408747D01*
X140896777Y-73425223D01*
X140913253Y-73443402D01*
X140927867Y-73463107D01*
X140940480Y-73484151D01*
X140950970Y-73506329D01*
X140959235Y-73529429D01*
X140965196Y-73553227D01*
X140968796Y-73577496D01*
X140970000Y-73602000D01*
X140970000Y-74102000D01*
X140968796Y-74126504D01*
X140965196Y-74150773D01*
X140959235Y-74174571D01*
X140950970Y-74197671D01*
X140940480Y-74219849D01*
X140927867Y-74240893D01*
X140913253Y-74260598D01*
X140896777Y-74278777D01*
X140878598Y-74295253D01*
X140858893Y-74309867D01*
X140837849Y-74322480D01*
X140815671Y-74332970D01*
X140792571Y-74341235D01*
X140768773Y-74347196D01*
X140744504Y-74350796D01*
X140720000Y-74352000D01*
X138520000Y-74352000D01*
X138495496Y-74350796D01*
X138471227Y-74347196D01*
X138447429Y-74341235D01*
X138424329Y-74332970D01*
X138402151Y-74322480D01*
X138381107Y-74309867D01*
X138361402Y-74295253D01*
X138343223Y-74278777D01*
X138326747Y-74260598D01*
X138312133Y-74240893D01*
X138299520Y-74219849D01*
X138289030Y-74197671D01*
X138280765Y-74174571D01*
X138274804Y-74150773D01*
X138271204Y-74126504D01*
X138270000Y-74102000D01*
X138270000Y-73602000D01*
X138271204Y-73577496D01*
X138274804Y-73553227D01*
X138280765Y-73529429D01*
X138289030Y-73506329D01*
X138299520Y-73484151D01*
X138312133Y-73463107D01*
X138326747Y-73443402D01*
X138343223Y-73425223D01*
X138361402Y-73408747D01*
X138381107Y-73394133D01*
X138402151Y-73381520D01*
X138424329Y-73371030D01*
X138447429Y-73362765D01*
X138471227Y-73356804D01*
X138495496Y-73353204D01*
X138520000Y-73352000D01*
X140720000Y-73352000D01*
X140744504Y-73353204D01*
X140744504Y-73353204D01*
G37*
D12*
X139620000Y-73852000D03*
D10*
G36*
X140744504Y-78303204D02*
G01*
X140768773Y-78306804D01*
X140792571Y-78312765D01*
X140815671Y-78321030D01*
X140837849Y-78331520D01*
X140858893Y-78344133D01*
X140878598Y-78358747D01*
X140896777Y-78375223D01*
X140913253Y-78393402D01*
X140927867Y-78413107D01*
X140940480Y-78434151D01*
X140950970Y-78456329D01*
X140959235Y-78479429D01*
X140965196Y-78503227D01*
X140968796Y-78527496D01*
X140970000Y-78552000D01*
X140970000Y-79052000D01*
X140968796Y-79076504D01*
X140965196Y-79100773D01*
X140959235Y-79124571D01*
X140950970Y-79147671D01*
X140940480Y-79169849D01*
X140927867Y-79190893D01*
X140913253Y-79210598D01*
X140896777Y-79228777D01*
X140878598Y-79245253D01*
X140858893Y-79259867D01*
X140837849Y-79272480D01*
X140815671Y-79282970D01*
X140792571Y-79291235D01*
X140768773Y-79297196D01*
X140744504Y-79300796D01*
X140720000Y-79302000D01*
X138520000Y-79302000D01*
X138495496Y-79300796D01*
X138471227Y-79297196D01*
X138447429Y-79291235D01*
X138424329Y-79282970D01*
X138402151Y-79272480D01*
X138381107Y-79259867D01*
X138361402Y-79245253D01*
X138343223Y-79228777D01*
X138326747Y-79210598D01*
X138312133Y-79190893D01*
X138299520Y-79169849D01*
X138289030Y-79147671D01*
X138280765Y-79124571D01*
X138274804Y-79100773D01*
X138271204Y-79076504D01*
X138270000Y-79052000D01*
X138270000Y-78552000D01*
X138271204Y-78527496D01*
X138274804Y-78503227D01*
X138280765Y-78479429D01*
X138289030Y-78456329D01*
X138299520Y-78434151D01*
X138312133Y-78413107D01*
X138326747Y-78393402D01*
X138343223Y-78375223D01*
X138361402Y-78358747D01*
X138381107Y-78344133D01*
X138402151Y-78331520D01*
X138424329Y-78321030D01*
X138447429Y-78312765D01*
X138471227Y-78306804D01*
X138495496Y-78303204D01*
X138520000Y-78302000D01*
X140720000Y-78302000D01*
X140744504Y-78303204D01*
X140744504Y-78303204D01*
G37*
D12*
X139620000Y-78802000D03*
D10*
G36*
X143534703Y-75402722D02*
G01*
X143549264Y-75404882D01*
X143563543Y-75408459D01*
X143577403Y-75413418D01*
X143590710Y-75419712D01*
X143603336Y-75427280D01*
X143615159Y-75436048D01*
X143626066Y-75445934D01*
X143635952Y-75456841D01*
X143644720Y-75468664D01*
X143652288Y-75481290D01*
X143658582Y-75494597D01*
X143663541Y-75508457D01*
X143667118Y-75522736D01*
X143669278Y-75537297D01*
X143670000Y-75552000D01*
X143670000Y-75852000D01*
X143669278Y-75866703D01*
X143667118Y-75881264D01*
X143663541Y-75895543D01*
X143658582Y-75909403D01*
X143652288Y-75922710D01*
X143644720Y-75935336D01*
X143635952Y-75947159D01*
X143626066Y-75958066D01*
X143615159Y-75967952D01*
X143603336Y-75976720D01*
X143590710Y-75984288D01*
X143577403Y-75990582D01*
X143563543Y-75995541D01*
X143549264Y-75999118D01*
X143534703Y-76001278D01*
X143520000Y-76002000D01*
X142120000Y-76002000D01*
X142105297Y-76001278D01*
X142090736Y-75999118D01*
X142076457Y-75995541D01*
X142062597Y-75990582D01*
X142049290Y-75984288D01*
X142036664Y-75976720D01*
X142024841Y-75967952D01*
X142013934Y-75958066D01*
X142004048Y-75947159D01*
X141995280Y-75935336D01*
X141987712Y-75922710D01*
X141981418Y-75909403D01*
X141976459Y-75895543D01*
X141972882Y-75881264D01*
X141970722Y-75866703D01*
X141970000Y-75852000D01*
X141970000Y-75552000D01*
X141970722Y-75537297D01*
X141972882Y-75522736D01*
X141976459Y-75508457D01*
X141981418Y-75494597D01*
X141987712Y-75481290D01*
X141995280Y-75468664D01*
X142004048Y-75456841D01*
X142013934Y-75445934D01*
X142024841Y-75436048D01*
X142036664Y-75427280D01*
X142049290Y-75419712D01*
X142062597Y-75413418D01*
X142076457Y-75408459D01*
X142090736Y-75404882D01*
X142105297Y-75402722D01*
X142120000Y-75402000D01*
X143520000Y-75402000D01*
X143534703Y-75402722D01*
X143534703Y-75402722D01*
G37*
D13*
X142820000Y-75702000D03*
D10*
G36*
X143534703Y-76652722D02*
G01*
X143549264Y-76654882D01*
X143563543Y-76658459D01*
X143577403Y-76663418D01*
X143590710Y-76669712D01*
X143603336Y-76677280D01*
X143615159Y-76686048D01*
X143626066Y-76695934D01*
X143635952Y-76706841D01*
X143644720Y-76718664D01*
X143652288Y-76731290D01*
X143658582Y-76744597D01*
X143663541Y-76758457D01*
X143667118Y-76772736D01*
X143669278Y-76787297D01*
X143670000Y-76802000D01*
X143670000Y-77102000D01*
X143669278Y-77116703D01*
X143667118Y-77131264D01*
X143663541Y-77145543D01*
X143658582Y-77159403D01*
X143652288Y-77172710D01*
X143644720Y-77185336D01*
X143635952Y-77197159D01*
X143626066Y-77208066D01*
X143615159Y-77217952D01*
X143603336Y-77226720D01*
X143590710Y-77234288D01*
X143577403Y-77240582D01*
X143563543Y-77245541D01*
X143549264Y-77249118D01*
X143534703Y-77251278D01*
X143520000Y-77252000D01*
X142120000Y-77252000D01*
X142105297Y-77251278D01*
X142090736Y-77249118D01*
X142076457Y-77245541D01*
X142062597Y-77240582D01*
X142049290Y-77234288D01*
X142036664Y-77226720D01*
X142024841Y-77217952D01*
X142013934Y-77208066D01*
X142004048Y-77197159D01*
X141995280Y-77185336D01*
X141987712Y-77172710D01*
X141981418Y-77159403D01*
X141976459Y-77145543D01*
X141972882Y-77131264D01*
X141970722Y-77116703D01*
X141970000Y-77102000D01*
X141970000Y-76802000D01*
X141970722Y-76787297D01*
X141972882Y-76772736D01*
X141976459Y-76758457D01*
X141981418Y-76744597D01*
X141987712Y-76731290D01*
X141995280Y-76718664D01*
X142004048Y-76706841D01*
X142013934Y-76695934D01*
X142024841Y-76686048D01*
X142036664Y-76677280D01*
X142049290Y-76669712D01*
X142062597Y-76663418D01*
X142076457Y-76658459D01*
X142090736Y-76654882D01*
X142105297Y-76652722D01*
X142120000Y-76652000D01*
X143520000Y-76652000D01*
X143534703Y-76652722D01*
X143534703Y-76652722D01*
G37*
D13*
X142820000Y-76952000D03*
D14*
X169037002Y-70993000D03*
X165037002Y-70993000D03*
D10*
G36*
X159953503Y-71647204D02*
G01*
X159977771Y-71650804D01*
X160001570Y-71656765D01*
X160024669Y-71665030D01*
X160046848Y-71675520D01*
X160067891Y-71688132D01*
X160087597Y-71702747D01*
X160105775Y-71719223D01*
X160122251Y-71737401D01*
X160136866Y-71757107D01*
X160149478Y-71778150D01*
X160159968Y-71800329D01*
X160168233Y-71823428D01*
X160174194Y-71847227D01*
X160177794Y-71871495D01*
X160178998Y-71895999D01*
X160178998Y-73646001D01*
X160177794Y-73670505D01*
X160174194Y-73694773D01*
X160168233Y-73718572D01*
X160159968Y-73741671D01*
X160149478Y-73763850D01*
X160136866Y-73784893D01*
X160122251Y-73804599D01*
X160105775Y-73822777D01*
X160087597Y-73839253D01*
X160067891Y-73853868D01*
X160046848Y-73866480D01*
X160024669Y-73876970D01*
X160001570Y-73885235D01*
X159977771Y-73891196D01*
X159953503Y-73894796D01*
X159928999Y-73896000D01*
X158078997Y-73896000D01*
X158054493Y-73894796D01*
X158030225Y-73891196D01*
X158006426Y-73885235D01*
X157983327Y-73876970D01*
X157961148Y-73866480D01*
X157940105Y-73853868D01*
X157920399Y-73839253D01*
X157902221Y-73822777D01*
X157885745Y-73804599D01*
X157871130Y-73784893D01*
X157858518Y-73763850D01*
X157848028Y-73741671D01*
X157839763Y-73718572D01*
X157833802Y-73694773D01*
X157830202Y-73670505D01*
X157828998Y-73646001D01*
X157828998Y-71895999D01*
X157830202Y-71871495D01*
X157833802Y-71847227D01*
X157839763Y-71823428D01*
X157848028Y-71800329D01*
X157858518Y-71778150D01*
X157871130Y-71757107D01*
X157885745Y-71737401D01*
X157902221Y-71719223D01*
X157920399Y-71702747D01*
X157940105Y-71688132D01*
X157961148Y-71675520D01*
X157983327Y-71665030D01*
X158006426Y-71656765D01*
X158030225Y-71650804D01*
X158054493Y-71647204D01*
X158078997Y-71646000D01*
X159928999Y-71646000D01*
X159953503Y-71647204D01*
X159953503Y-71647204D01*
G37*
D15*
X159003998Y-72771000D03*
D10*
G36*
X159953503Y-66547204D02*
G01*
X159977771Y-66550804D01*
X160001570Y-66556765D01*
X160024669Y-66565030D01*
X160046848Y-66575520D01*
X160067891Y-66588132D01*
X160087597Y-66602747D01*
X160105775Y-66619223D01*
X160122251Y-66637401D01*
X160136866Y-66657107D01*
X160149478Y-66678150D01*
X160159968Y-66700329D01*
X160168233Y-66723428D01*
X160174194Y-66747227D01*
X160177794Y-66771495D01*
X160178998Y-66795999D01*
X160178998Y-68546001D01*
X160177794Y-68570505D01*
X160174194Y-68594773D01*
X160168233Y-68618572D01*
X160159968Y-68641671D01*
X160149478Y-68663850D01*
X160136866Y-68684893D01*
X160122251Y-68704599D01*
X160105775Y-68722777D01*
X160087597Y-68739253D01*
X160067891Y-68753868D01*
X160046848Y-68766480D01*
X160024669Y-68776970D01*
X160001570Y-68785235D01*
X159977771Y-68791196D01*
X159953503Y-68794796D01*
X159928999Y-68796000D01*
X158078997Y-68796000D01*
X158054493Y-68794796D01*
X158030225Y-68791196D01*
X158006426Y-68785235D01*
X157983327Y-68776970D01*
X157961148Y-68766480D01*
X157940105Y-68753868D01*
X157920399Y-68739253D01*
X157902221Y-68722777D01*
X157885745Y-68704599D01*
X157871130Y-68684893D01*
X157858518Y-68663850D01*
X157848028Y-68641671D01*
X157839763Y-68618572D01*
X157833802Y-68594773D01*
X157830202Y-68570505D01*
X157828998Y-68546001D01*
X157828998Y-66795999D01*
X157830202Y-66771495D01*
X157833802Y-66747227D01*
X157839763Y-66723428D01*
X157848028Y-66700329D01*
X157858518Y-66678150D01*
X157871130Y-66657107D01*
X157885745Y-66637401D01*
X157902221Y-66619223D01*
X157920399Y-66602747D01*
X157940105Y-66588132D01*
X157961148Y-66575520D01*
X157983327Y-66565030D01*
X158006426Y-66556765D01*
X158030225Y-66550804D01*
X158054493Y-66547204D01*
X158078997Y-66546000D01*
X159928999Y-66546000D01*
X159953503Y-66547204D01*
X159953503Y-66547204D01*
G37*
D15*
X159003998Y-67671000D03*
D10*
G36*
X154917508Y-67754205D02*
G01*
X154941776Y-67757805D01*
X154965575Y-67763766D01*
X154988674Y-67772031D01*
X155010853Y-67782521D01*
X155031896Y-67795133D01*
X155051602Y-67809748D01*
X155069780Y-67826224D01*
X155086256Y-67844402D01*
X155100871Y-67864108D01*
X155113483Y-67885151D01*
X155123973Y-67907330D01*
X155132238Y-67930429D01*
X155138199Y-67954228D01*
X155141799Y-67978496D01*
X155143003Y-68003000D01*
X155143003Y-68903002D01*
X155141799Y-68927506D01*
X155138199Y-68951774D01*
X155132238Y-68975573D01*
X155123973Y-68998672D01*
X155113483Y-69020851D01*
X155100871Y-69041894D01*
X155086256Y-69061600D01*
X155069780Y-69079778D01*
X155051602Y-69096254D01*
X155031896Y-69110869D01*
X155010853Y-69123481D01*
X154988674Y-69133971D01*
X154965575Y-69142236D01*
X154941776Y-69148197D01*
X154917508Y-69151797D01*
X154893004Y-69153001D01*
X154243002Y-69153001D01*
X154218498Y-69151797D01*
X154194230Y-69148197D01*
X154170431Y-69142236D01*
X154147332Y-69133971D01*
X154125153Y-69123481D01*
X154104110Y-69110869D01*
X154084404Y-69096254D01*
X154066226Y-69079778D01*
X154049750Y-69061600D01*
X154035135Y-69041894D01*
X154022523Y-69020851D01*
X154012033Y-68998672D01*
X154003768Y-68975573D01*
X153997807Y-68951774D01*
X153994207Y-68927506D01*
X153993003Y-68903002D01*
X153993003Y-68003000D01*
X153994207Y-67978496D01*
X153997807Y-67954228D01*
X154003768Y-67930429D01*
X154012033Y-67907330D01*
X154022523Y-67885151D01*
X154035135Y-67864108D01*
X154049750Y-67844402D01*
X154066226Y-67826224D01*
X154084404Y-67809748D01*
X154104110Y-67795133D01*
X154125153Y-67782521D01*
X154147332Y-67772031D01*
X154170431Y-67763766D01*
X154194230Y-67757805D01*
X154218498Y-67754205D01*
X154243002Y-67753001D01*
X154893004Y-67753001D01*
X154917508Y-67754205D01*
X154917508Y-67754205D01*
G37*
D11*
X154568003Y-68453001D03*
D10*
G36*
X152867508Y-67754205D02*
G01*
X152891776Y-67757805D01*
X152915575Y-67763766D01*
X152938674Y-67772031D01*
X152960853Y-67782521D01*
X152981896Y-67795133D01*
X153001602Y-67809748D01*
X153019780Y-67826224D01*
X153036256Y-67844402D01*
X153050871Y-67864108D01*
X153063483Y-67885151D01*
X153073973Y-67907330D01*
X153082238Y-67930429D01*
X153088199Y-67954228D01*
X153091799Y-67978496D01*
X153093003Y-68003000D01*
X153093003Y-68903002D01*
X153091799Y-68927506D01*
X153088199Y-68951774D01*
X153082238Y-68975573D01*
X153073973Y-68998672D01*
X153063483Y-69020851D01*
X153050871Y-69041894D01*
X153036256Y-69061600D01*
X153019780Y-69079778D01*
X153001602Y-69096254D01*
X152981896Y-69110869D01*
X152960853Y-69123481D01*
X152938674Y-69133971D01*
X152915575Y-69142236D01*
X152891776Y-69148197D01*
X152867508Y-69151797D01*
X152843004Y-69153001D01*
X152193002Y-69153001D01*
X152168498Y-69151797D01*
X152144230Y-69148197D01*
X152120431Y-69142236D01*
X152097332Y-69133971D01*
X152075153Y-69123481D01*
X152054110Y-69110869D01*
X152034404Y-69096254D01*
X152016226Y-69079778D01*
X151999750Y-69061600D01*
X151985135Y-69041894D01*
X151972523Y-69020851D01*
X151962033Y-68998672D01*
X151953768Y-68975573D01*
X151947807Y-68951774D01*
X151944207Y-68927506D01*
X151943003Y-68903002D01*
X151943003Y-68003000D01*
X151944207Y-67978496D01*
X151947807Y-67954228D01*
X151953768Y-67930429D01*
X151962033Y-67907330D01*
X151972523Y-67885151D01*
X151985135Y-67864108D01*
X151999750Y-67844402D01*
X152016226Y-67826224D01*
X152034404Y-67809748D01*
X152054110Y-67795133D01*
X152075153Y-67782521D01*
X152097332Y-67772031D01*
X152120431Y-67763766D01*
X152144230Y-67757805D01*
X152168498Y-67754205D01*
X152193002Y-67753001D01*
X152843004Y-67753001D01*
X152867508Y-67754205D01*
X152867508Y-67754205D01*
G37*
D11*
X152518003Y-68453001D03*
D10*
G36*
X175727505Y-57721204D02*
G01*
X175751773Y-57724804D01*
X175775572Y-57730765D01*
X175798671Y-57739030D01*
X175820850Y-57749520D01*
X175841893Y-57762132D01*
X175861599Y-57776747D01*
X175879777Y-57793223D01*
X175896253Y-57811401D01*
X175910868Y-57831107D01*
X175923480Y-57852150D01*
X175933970Y-57874329D01*
X175942235Y-57897428D01*
X175948196Y-57921227D01*
X175951796Y-57945495D01*
X175953000Y-57969999D01*
X175953000Y-58870001D01*
X175951796Y-58894505D01*
X175948196Y-58918773D01*
X175942235Y-58942572D01*
X175933970Y-58965671D01*
X175923480Y-58987850D01*
X175910868Y-59008893D01*
X175896253Y-59028599D01*
X175879777Y-59046777D01*
X175861599Y-59063253D01*
X175841893Y-59077868D01*
X175820850Y-59090480D01*
X175798671Y-59100970D01*
X175775572Y-59109235D01*
X175751773Y-59115196D01*
X175727505Y-59118796D01*
X175703001Y-59120000D01*
X175052999Y-59120000D01*
X175028495Y-59118796D01*
X175004227Y-59115196D01*
X174980428Y-59109235D01*
X174957329Y-59100970D01*
X174935150Y-59090480D01*
X174914107Y-59077868D01*
X174894401Y-59063253D01*
X174876223Y-59046777D01*
X174859747Y-59028599D01*
X174845132Y-59008893D01*
X174832520Y-58987850D01*
X174822030Y-58965671D01*
X174813765Y-58942572D01*
X174807804Y-58918773D01*
X174804204Y-58894505D01*
X174803000Y-58870001D01*
X174803000Y-57969999D01*
X174804204Y-57945495D01*
X174807804Y-57921227D01*
X174813765Y-57897428D01*
X174822030Y-57874329D01*
X174832520Y-57852150D01*
X174845132Y-57831107D01*
X174859747Y-57811401D01*
X174876223Y-57793223D01*
X174894401Y-57776747D01*
X174914107Y-57762132D01*
X174935150Y-57749520D01*
X174957329Y-57739030D01*
X174980428Y-57730765D01*
X175004227Y-57724804D01*
X175028495Y-57721204D01*
X175052999Y-57720000D01*
X175703001Y-57720000D01*
X175727505Y-57721204D01*
X175727505Y-57721204D01*
G37*
D11*
X175378000Y-58420000D03*
D10*
G36*
X177777505Y-57721204D02*
G01*
X177801773Y-57724804D01*
X177825572Y-57730765D01*
X177848671Y-57739030D01*
X177870850Y-57749520D01*
X177891893Y-57762132D01*
X177911599Y-57776747D01*
X177929777Y-57793223D01*
X177946253Y-57811401D01*
X177960868Y-57831107D01*
X177973480Y-57852150D01*
X177983970Y-57874329D01*
X177992235Y-57897428D01*
X177998196Y-57921227D01*
X178001796Y-57945495D01*
X178003000Y-57969999D01*
X178003000Y-58870001D01*
X178001796Y-58894505D01*
X177998196Y-58918773D01*
X177992235Y-58942572D01*
X177983970Y-58965671D01*
X177973480Y-58987850D01*
X177960868Y-59008893D01*
X177946253Y-59028599D01*
X177929777Y-59046777D01*
X177911599Y-59063253D01*
X177891893Y-59077868D01*
X177870850Y-59090480D01*
X177848671Y-59100970D01*
X177825572Y-59109235D01*
X177801773Y-59115196D01*
X177777505Y-59118796D01*
X177753001Y-59120000D01*
X177102999Y-59120000D01*
X177078495Y-59118796D01*
X177054227Y-59115196D01*
X177030428Y-59109235D01*
X177007329Y-59100970D01*
X176985150Y-59090480D01*
X176964107Y-59077868D01*
X176944401Y-59063253D01*
X176926223Y-59046777D01*
X176909747Y-59028599D01*
X176895132Y-59008893D01*
X176882520Y-58987850D01*
X176872030Y-58965671D01*
X176863765Y-58942572D01*
X176857804Y-58918773D01*
X176854204Y-58894505D01*
X176853000Y-58870001D01*
X176853000Y-57969999D01*
X176854204Y-57945495D01*
X176857804Y-57921227D01*
X176863765Y-57897428D01*
X176872030Y-57874329D01*
X176882520Y-57852150D01*
X176895132Y-57831107D01*
X176909747Y-57811401D01*
X176926223Y-57793223D01*
X176944401Y-57776747D01*
X176964107Y-57762132D01*
X176985150Y-57749520D01*
X177007329Y-57739030D01*
X177030428Y-57730765D01*
X177054227Y-57724804D01*
X177078495Y-57721204D01*
X177102999Y-57720000D01*
X177753001Y-57720000D01*
X177777505Y-57721204D01*
X177777505Y-57721204D01*
G37*
D11*
X177428000Y-58420000D03*
D10*
G36*
X166463505Y-66881203D02*
G01*
X166487773Y-66884803D01*
X166511572Y-66890764D01*
X166534671Y-66899029D01*
X166556850Y-66909519D01*
X166577893Y-66922131D01*
X166597599Y-66936746D01*
X166615777Y-66953222D01*
X166632253Y-66971400D01*
X166646868Y-66991106D01*
X166659480Y-67012149D01*
X166669970Y-67034328D01*
X166678235Y-67057427D01*
X166684196Y-67081226D01*
X166687796Y-67105494D01*
X166689000Y-67129998D01*
X166689000Y-67780000D01*
X166687796Y-67804504D01*
X166684196Y-67828772D01*
X166678235Y-67852571D01*
X166669970Y-67875670D01*
X166659480Y-67897849D01*
X166646868Y-67918892D01*
X166632253Y-67938598D01*
X166615777Y-67956776D01*
X166597599Y-67973252D01*
X166577893Y-67987867D01*
X166556850Y-68000479D01*
X166534671Y-68010969D01*
X166511572Y-68019234D01*
X166487773Y-68025195D01*
X166463505Y-68028795D01*
X166439001Y-68029999D01*
X165538999Y-68029999D01*
X165514495Y-68028795D01*
X165490227Y-68025195D01*
X165466428Y-68019234D01*
X165443329Y-68010969D01*
X165421150Y-68000479D01*
X165400107Y-67987867D01*
X165380401Y-67973252D01*
X165362223Y-67956776D01*
X165345747Y-67938598D01*
X165331132Y-67918892D01*
X165318520Y-67897849D01*
X165308030Y-67875670D01*
X165299765Y-67852571D01*
X165293804Y-67828772D01*
X165290204Y-67804504D01*
X165289000Y-67780000D01*
X165289000Y-67129998D01*
X165290204Y-67105494D01*
X165293804Y-67081226D01*
X165299765Y-67057427D01*
X165308030Y-67034328D01*
X165318520Y-67012149D01*
X165331132Y-66991106D01*
X165345747Y-66971400D01*
X165362223Y-66953222D01*
X165380401Y-66936746D01*
X165400107Y-66922131D01*
X165421150Y-66909519D01*
X165443329Y-66899029D01*
X165466428Y-66890764D01*
X165490227Y-66884803D01*
X165514495Y-66881203D01*
X165538999Y-66879999D01*
X166439001Y-66879999D01*
X166463505Y-66881203D01*
X166463505Y-66881203D01*
G37*
D11*
X165989000Y-67454999D03*
D10*
G36*
X166463505Y-64831203D02*
G01*
X166487773Y-64834803D01*
X166511572Y-64840764D01*
X166534671Y-64849029D01*
X166556850Y-64859519D01*
X166577893Y-64872131D01*
X166597599Y-64886746D01*
X166615777Y-64903222D01*
X166632253Y-64921400D01*
X166646868Y-64941106D01*
X166659480Y-64962149D01*
X166669970Y-64984328D01*
X166678235Y-65007427D01*
X166684196Y-65031226D01*
X166687796Y-65055494D01*
X166689000Y-65079998D01*
X166689000Y-65730000D01*
X166687796Y-65754504D01*
X166684196Y-65778772D01*
X166678235Y-65802571D01*
X166669970Y-65825670D01*
X166659480Y-65847849D01*
X166646868Y-65868892D01*
X166632253Y-65888598D01*
X166615777Y-65906776D01*
X166597599Y-65923252D01*
X166577893Y-65937867D01*
X166556850Y-65950479D01*
X166534671Y-65960969D01*
X166511572Y-65969234D01*
X166487773Y-65975195D01*
X166463505Y-65978795D01*
X166439001Y-65979999D01*
X165538999Y-65979999D01*
X165514495Y-65978795D01*
X165490227Y-65975195D01*
X165466428Y-65969234D01*
X165443329Y-65960969D01*
X165421150Y-65950479D01*
X165400107Y-65937867D01*
X165380401Y-65923252D01*
X165362223Y-65906776D01*
X165345747Y-65888598D01*
X165331132Y-65868892D01*
X165318520Y-65847849D01*
X165308030Y-65825670D01*
X165299765Y-65802571D01*
X165293804Y-65778772D01*
X165290204Y-65754504D01*
X165289000Y-65730000D01*
X165289000Y-65079998D01*
X165290204Y-65055494D01*
X165293804Y-65031226D01*
X165299765Y-65007427D01*
X165308030Y-64984328D01*
X165318520Y-64962149D01*
X165331132Y-64941106D01*
X165345747Y-64921400D01*
X165362223Y-64903222D01*
X165380401Y-64886746D01*
X165400107Y-64872131D01*
X165421150Y-64859519D01*
X165443329Y-64849029D01*
X165466428Y-64840764D01*
X165490227Y-64834803D01*
X165514495Y-64831203D01*
X165538999Y-64829999D01*
X166439001Y-64829999D01*
X166463505Y-64831203D01*
X166463505Y-64831203D01*
G37*
D11*
X165989000Y-65404999D03*
D10*
G36*
X179798505Y-60513204D02*
G01*
X179822773Y-60516804D01*
X179846572Y-60522765D01*
X179869671Y-60531030D01*
X179891850Y-60541520D01*
X179912893Y-60554132D01*
X179932599Y-60568747D01*
X179950777Y-60585223D01*
X179967253Y-60603401D01*
X179981868Y-60623107D01*
X179994480Y-60644150D01*
X180004970Y-60666329D01*
X180013235Y-60689428D01*
X180019196Y-60713227D01*
X180022796Y-60737495D01*
X180024000Y-60761999D01*
X180024000Y-61412001D01*
X180022796Y-61436505D01*
X180019196Y-61460773D01*
X180013235Y-61484572D01*
X180004970Y-61507671D01*
X179994480Y-61529850D01*
X179981868Y-61550893D01*
X179967253Y-61570599D01*
X179950777Y-61588777D01*
X179932599Y-61605253D01*
X179912893Y-61619868D01*
X179891850Y-61632480D01*
X179869671Y-61642970D01*
X179846572Y-61651235D01*
X179822773Y-61657196D01*
X179798505Y-61660796D01*
X179774001Y-61662000D01*
X178873999Y-61662000D01*
X178849495Y-61660796D01*
X178825227Y-61657196D01*
X178801428Y-61651235D01*
X178778329Y-61642970D01*
X178756150Y-61632480D01*
X178735107Y-61619868D01*
X178715401Y-61605253D01*
X178697223Y-61588777D01*
X178680747Y-61570599D01*
X178666132Y-61550893D01*
X178653520Y-61529850D01*
X178643030Y-61507671D01*
X178634765Y-61484572D01*
X178628804Y-61460773D01*
X178625204Y-61436505D01*
X178624000Y-61412001D01*
X178624000Y-60761999D01*
X178625204Y-60737495D01*
X178628804Y-60713227D01*
X178634765Y-60689428D01*
X178643030Y-60666329D01*
X178653520Y-60644150D01*
X178666132Y-60623107D01*
X178680747Y-60603401D01*
X178697223Y-60585223D01*
X178715401Y-60568747D01*
X178735107Y-60554132D01*
X178756150Y-60541520D01*
X178778329Y-60531030D01*
X178801428Y-60522765D01*
X178825227Y-60516804D01*
X178849495Y-60513204D01*
X178873999Y-60512000D01*
X179774001Y-60512000D01*
X179798505Y-60513204D01*
X179798505Y-60513204D01*
G37*
D11*
X179324000Y-61087000D03*
D10*
G36*
X179798505Y-62563204D02*
G01*
X179822773Y-62566804D01*
X179846572Y-62572765D01*
X179869671Y-62581030D01*
X179891850Y-62591520D01*
X179912893Y-62604132D01*
X179932599Y-62618747D01*
X179950777Y-62635223D01*
X179967253Y-62653401D01*
X179981868Y-62673107D01*
X179994480Y-62694150D01*
X180004970Y-62716329D01*
X180013235Y-62739428D01*
X180019196Y-62763227D01*
X180022796Y-62787495D01*
X180024000Y-62811999D01*
X180024000Y-63462001D01*
X180022796Y-63486505D01*
X180019196Y-63510773D01*
X180013235Y-63534572D01*
X180004970Y-63557671D01*
X179994480Y-63579850D01*
X179981868Y-63600893D01*
X179967253Y-63620599D01*
X179950777Y-63638777D01*
X179932599Y-63655253D01*
X179912893Y-63669868D01*
X179891850Y-63682480D01*
X179869671Y-63692970D01*
X179846572Y-63701235D01*
X179822773Y-63707196D01*
X179798505Y-63710796D01*
X179774001Y-63712000D01*
X178873999Y-63712000D01*
X178849495Y-63710796D01*
X178825227Y-63707196D01*
X178801428Y-63701235D01*
X178778329Y-63692970D01*
X178756150Y-63682480D01*
X178735107Y-63669868D01*
X178715401Y-63655253D01*
X178697223Y-63638777D01*
X178680747Y-63620599D01*
X178666132Y-63600893D01*
X178653520Y-63579850D01*
X178643030Y-63557671D01*
X178634765Y-63534572D01*
X178628804Y-63510773D01*
X178625204Y-63486505D01*
X178624000Y-63462001D01*
X178624000Y-62811999D01*
X178625204Y-62787495D01*
X178628804Y-62763227D01*
X178634765Y-62739428D01*
X178643030Y-62716329D01*
X178653520Y-62694150D01*
X178666132Y-62673107D01*
X178680747Y-62653401D01*
X178697223Y-62635223D01*
X178715401Y-62618747D01*
X178735107Y-62604132D01*
X178756150Y-62591520D01*
X178778329Y-62581030D01*
X178801428Y-62572765D01*
X178825227Y-62566804D01*
X178849495Y-62563204D01*
X178873999Y-62562000D01*
X179774001Y-62562000D01*
X179798505Y-62563204D01*
X179798505Y-62563204D01*
G37*
D11*
X179324000Y-63137000D03*
D16*
X179222000Y-70993002D03*
X172822000Y-70993002D03*
D17*
X160868000Y-65278001D03*
X163068000Y-65278001D03*
D18*
X161968000Y-61828001D03*
D19*
X176228999Y-64008000D03*
X176228999Y-64958000D03*
X176228999Y-63058000D03*
X173528999Y-63058000D03*
X173528999Y-64008000D03*
X173528999Y-64958000D03*
D20*
X154729999Y-78505001D03*
X154729999Y-77855001D03*
X154729999Y-77205001D03*
X154729999Y-76555001D03*
X154729999Y-75905001D03*
X154729999Y-75255001D03*
X154729999Y-74605001D03*
X154729999Y-73955001D03*
X154729999Y-73305001D03*
X154729999Y-72655001D03*
X154729999Y-72005001D03*
X154729999Y-71355001D03*
X147529999Y-71355001D03*
X147529999Y-72005001D03*
X147529999Y-72655001D03*
X147529999Y-73305001D03*
X147529999Y-73955001D03*
X147529999Y-74605001D03*
X147529999Y-75255001D03*
X147529999Y-75905001D03*
X147529999Y-76555001D03*
X147529999Y-77205001D03*
X147529999Y-77855001D03*
X147529999Y-78505001D03*
D21*
X152333000Y-53840000D03*
X172333000Y-53840000D03*
D22*
X161686942Y-59559155D03*
X177419000Y-61214000D03*
X153250910Y-74548990D03*
X179451000Y-57658000D03*
X172593000Y-77343000D03*
X180975000Y-65913000D03*
X176784000Y-68199000D03*
X140462000Y-65913000D03*
X139700000Y-76327000D03*
D23*
X157353000Y-58293000D03*
X161671000Y-58039000D03*
X157607000Y-64897000D03*
X161163000Y-68834000D03*
X149352000Y-75989000D03*
X185293000Y-69850000D03*
X185293000Y-76962000D03*
X167132000Y-64135000D03*
X174117000Y-72517000D03*
X174498000Y-74168000D03*
D22*
X179832000Y-75438000D03*
D23*
X159556000Y-76200000D03*
X169672000Y-72517000D03*
X159766000Y-64516000D03*
X160629600Y-59844054D03*
X152273000Y-61341000D03*
X156464000Y-68326000D03*
X163436317Y-76577028D03*
X161036000Y-76835000D03*
X161036000Y-78412492D03*
X164187893Y-76811869D03*
X165100000Y-76835000D03*
X156210000Y-78994000D03*
X156210000Y-77216000D03*
X164845936Y-73787000D03*
X156464000Y-70231000D03*
D24*
X176307999Y-63137000D02*
X176228999Y-63058000D01*
X179324000Y-63137000D02*
X176307999Y-63137000D01*
X176228999Y-63058000D02*
X176228999Y-64008000D01*
X175956000Y-63058000D02*
X175615600Y-63398400D01*
X176228999Y-63058000D02*
X175956000Y-63058000D01*
X175615600Y-63601600D02*
X175641000Y-63627000D01*
X175615600Y-63398400D02*
X175615600Y-63601600D01*
X176494400Y-63058000D02*
X176834800Y-63398400D01*
X176228999Y-63058000D02*
X176494400Y-63058000D01*
X176834800Y-63398400D02*
X176834800Y-63627000D01*
X176834800Y-63398400D02*
X175615600Y-63398400D01*
X176809400Y-63601600D02*
X176834800Y-63627000D01*
X175615600Y-63601600D02*
X176809400Y-63601600D01*
X172275154Y-59559155D02*
X162405362Y-59559155D01*
X162405362Y-59559155D02*
X161686942Y-59559155D01*
X176228999Y-63058000D02*
X175773999Y-63058000D01*
X172593000Y-59877001D02*
X172720000Y-60004001D01*
X172720000Y-60004001D02*
X172275154Y-59559155D01*
X175773999Y-63058000D02*
X172720000Y-60004001D01*
X173482000Y-58420000D02*
X175378000Y-58420000D01*
X172593000Y-59309000D02*
X172593000Y-59877001D01*
X172339000Y-59563000D02*
X172593000Y-59309000D01*
X172593000Y-59309000D02*
X173482000Y-58420000D01*
X179324000Y-70891002D02*
X179222000Y-70993002D01*
X179324000Y-63137000D02*
X179324000Y-70891002D01*
X147529999Y-72655001D02*
X147529999Y-73305001D01*
X147529999Y-76555001D02*
X147529999Y-77205001D01*
X148785999Y-76555001D02*
X149352000Y-75989000D01*
X147529999Y-76555001D02*
X148785999Y-76555001D01*
X148785999Y-73305001D02*
X147529999Y-73305001D01*
X149352000Y-73871002D02*
X148785999Y-73305001D01*
X149352000Y-75989000D02*
X149352000Y-73871002D01*
X177419000Y-58429000D02*
X177428000Y-58420000D01*
X177419000Y-61214000D02*
X177419000Y-58429000D01*
X179197000Y-61214000D02*
X179324000Y-61087000D01*
X177419000Y-61214000D02*
X179197000Y-61214000D01*
X153306921Y-74605001D02*
X153250910Y-74548990D01*
X154729999Y-74605001D02*
X153306921Y-74605001D01*
X149352000Y-75989000D02*
X149352000Y-75989000D01*
X181294000Y-54864000D02*
X181284000Y-54874000D01*
X185166000Y-54864000D02*
X181294000Y-54864000D01*
X179832000Y-75438000D02*
X184277000Y-75438000D01*
X184277000Y-75438000D02*
X186309000Y-73406000D01*
X186309000Y-73406000D02*
X186309000Y-56007000D01*
X186309000Y-56007000D02*
X185166000Y-54864000D01*
D25*
X159261001Y-75905001D02*
X159556000Y-76200000D01*
X154729999Y-75905001D02*
X159261001Y-75905001D01*
D24*
X155321000Y-71755000D02*
X155448000Y-71755000D01*
X165735000Y-70295002D02*
X165037002Y-70993000D01*
X165989000Y-67454999D02*
X165735000Y-67708999D01*
X165735000Y-67708999D02*
X165735000Y-70295002D01*
X165189000Y-67454999D02*
X165989000Y-67454999D01*
X161963998Y-67454999D02*
X165189000Y-67454999D01*
X160868000Y-66359001D02*
X161963998Y-67454999D01*
X160868000Y-65278001D02*
X160868000Y-66359001D01*
X161628002Y-72771000D02*
X159003998Y-72771000D01*
X165037002Y-70993000D02*
X163406002Y-70993000D01*
X163406002Y-70993000D02*
X161628002Y-72771000D01*
X154733998Y-72009000D02*
X154729999Y-72005001D01*
X159003998Y-72771000D02*
X158876998Y-72644000D01*
X156464000Y-72009000D02*
X155956000Y-72009000D01*
X155956000Y-72009000D02*
X154733998Y-72009000D01*
X152400000Y-68571004D02*
X152518003Y-68453001D01*
X153473999Y-78505001D02*
X152400000Y-77431002D01*
X154729999Y-78505001D02*
X153473999Y-78505001D01*
X155448000Y-71628000D02*
X155321000Y-71755000D01*
X155321000Y-71501000D02*
X155448000Y-71628000D01*
X153473999Y-72005001D02*
X153470000Y-72009000D01*
X154729999Y-72005001D02*
X153473999Y-72005001D01*
X152418999Y-71355001D02*
X152400000Y-71374000D01*
X152400000Y-71628000D02*
X155448000Y-71628000D01*
X152400000Y-72009000D02*
X152400000Y-71628000D01*
X152400000Y-71628000D02*
X152400000Y-71374000D01*
X152418999Y-70866000D02*
X152908000Y-71355001D01*
X152400000Y-70866000D02*
X152418999Y-70866000D01*
X152908000Y-71355001D02*
X152418999Y-71355001D01*
X154729999Y-71355001D02*
X152908000Y-71355001D01*
X152400000Y-71374000D02*
X152400000Y-70866000D01*
X152400000Y-70866000D02*
X152400000Y-68571004D01*
X152400000Y-72517000D02*
X152908000Y-72009000D01*
X152908000Y-72009000D02*
X152400000Y-72009000D01*
X153470000Y-72009000D02*
X152908000Y-72009000D01*
X152400000Y-77431002D02*
X152400000Y-72517000D01*
X152400000Y-72517000D02*
X152400000Y-72009000D01*
X154729999Y-71355001D02*
X155302001Y-71355001D01*
X155302001Y-71355001D02*
X155956000Y-72009000D01*
X157099000Y-72644000D02*
X156464000Y-72009000D01*
X158876998Y-72644000D02*
X157353000Y-72644000D01*
X157353000Y-72644000D02*
X157099000Y-72644000D01*
X155810001Y-71355001D02*
X157099000Y-72644000D01*
X154729999Y-71355001D02*
X155810001Y-71355001D01*
X169037004Y-70993002D02*
X169037002Y-70993000D01*
X172822000Y-70993002D02*
X169037004Y-70993002D01*
X173101000Y-70714002D02*
X172822000Y-70993002D01*
X173101000Y-65151000D02*
X173101000Y-70714002D01*
X173528999Y-64958000D02*
X173335999Y-65151000D01*
X173335999Y-65151000D02*
X173101000Y-65151000D01*
D26*
X147180798Y-78155800D02*
X148005800Y-78155800D01*
X145719800Y-78155800D02*
X147180798Y-78155800D01*
X142820000Y-76952000D02*
X144516000Y-76952000D01*
X144516000Y-76952000D02*
X145719800Y-78155800D01*
X147083000Y-75702000D02*
X147358098Y-75426902D01*
X142820000Y-75702000D02*
X147083000Y-75702000D01*
X147894200Y-75702000D02*
X148031200Y-75565000D01*
X147083000Y-75702000D02*
X147894200Y-75702000D01*
D25*
X170561000Y-73406000D02*
X169672000Y-72517000D01*
X180721000Y-73406000D02*
X170561000Y-73406000D01*
X182626000Y-71501000D02*
X180721000Y-73406000D01*
X182626000Y-56388000D02*
X182626000Y-71501000D01*
X181284000Y-56124000D02*
X182362000Y-56124000D01*
X182362000Y-56124000D02*
X182626000Y-56388000D01*
X160629600Y-60293066D02*
X160629600Y-59844054D01*
X159766000Y-64516000D02*
X160629600Y-63652400D01*
X160629600Y-63652400D02*
X160629600Y-60293066D01*
X156464000Y-67691000D02*
X156464000Y-68326000D01*
X152273000Y-61341000D02*
X152273000Y-63500000D01*
X152273000Y-63500000D02*
X156464000Y-67691000D01*
X154729999Y-77855001D02*
X155808199Y-77855001D01*
X155808199Y-77855001D02*
X155822210Y-77840990D01*
X155822210Y-77840990D02*
X162172355Y-77840990D01*
X162172355Y-77840990D02*
X163118818Y-76894527D01*
X163118818Y-76894527D02*
X163436317Y-76577028D01*
X163870394Y-77129368D02*
X164187893Y-76811869D01*
X161036000Y-78412492D02*
X162587270Y-78412492D01*
X162587270Y-78412492D02*
X163870394Y-77129368D01*
X159065177Y-76555001D02*
X155808199Y-76555001D01*
X159345176Y-76835000D02*
X159065177Y-76555001D01*
X161036000Y-76835000D02*
X159345176Y-76835000D01*
X155808199Y-76555001D02*
X154729999Y-76555001D01*
X165100000Y-76835000D02*
X162941000Y-78994000D01*
X162941000Y-78994000D02*
X156210000Y-78994000D01*
X154740998Y-77216000D02*
X154729999Y-77205001D01*
X156210000Y-77216000D02*
X154740998Y-77216000D01*
X154729999Y-75255001D02*
X163377935Y-75255001D01*
X163377935Y-75255001D02*
X164528437Y-74104499D01*
X164528437Y-74104499D02*
X164845936Y-73787000D01*
X156337000Y-70231000D02*
X156464000Y-70231000D01*
X155829000Y-69723000D02*
X156337000Y-70231000D01*
X155829000Y-67945000D02*
X155829000Y-69723000D01*
X142820000Y-56124000D02*
X144008000Y-56124000D01*
X144008000Y-56124000D02*
X155829000Y-67945000D01*
X173528999Y-62529800D02*
X173528999Y-63058000D01*
X172594200Y-61595001D02*
X173528999Y-62529800D01*
X169545000Y-61595001D02*
X172594200Y-61595001D01*
X169544999Y-61595000D02*
X169545000Y-61595001D01*
X161968000Y-61828001D02*
X162201001Y-61595000D01*
X162201001Y-61595000D02*
X169544999Y-61595000D01*
D27*
G36*
X186434621Y-51308580D02*
G01*
X186555452Y-51345061D01*
X186666900Y-51404319D01*
X186764713Y-51484094D01*
X186845169Y-51581348D01*
X186905204Y-51692380D01*
X186942527Y-51812954D01*
X186957501Y-51955416D01*
X186957500Y-79992026D01*
X186943420Y-80135620D01*
X186906939Y-80256453D01*
X186847682Y-80367898D01*
X186767906Y-80465713D01*
X186670650Y-80546171D01*
X186559620Y-80606204D01*
X186439047Y-80643527D01*
X186296592Y-80658500D01*
X138320974Y-80658500D01*
X138177380Y-80644420D01*
X138056547Y-80607939D01*
X137945102Y-80548682D01*
X137847287Y-80468906D01*
X137766829Y-80371650D01*
X137706796Y-80260620D01*
X137669473Y-80140047D01*
X137654500Y-79997592D01*
X137654500Y-78552000D01*
X137950964Y-78552000D01*
X137950964Y-79052000D01*
X137961898Y-79163013D01*
X137994279Y-79269761D01*
X138046864Y-79368139D01*
X138117631Y-79454369D01*
X138203861Y-79525136D01*
X138302239Y-79577721D01*
X138408987Y-79610102D01*
X138520000Y-79621036D01*
X140720000Y-79621036D01*
X140831013Y-79610102D01*
X140937761Y-79577721D01*
X141036139Y-79525136D01*
X141122369Y-79454369D01*
X141193136Y-79368139D01*
X141245721Y-79269761D01*
X141278102Y-79163013D01*
X141289036Y-79052000D01*
X141289036Y-78552000D01*
X141278102Y-78440987D01*
X141245721Y-78334239D01*
X141193136Y-78235861D01*
X141122369Y-78149631D01*
X141036139Y-78078864D01*
X140937761Y-78026279D01*
X140831013Y-77993898D01*
X140720000Y-77982964D01*
X138520000Y-77982964D01*
X138408987Y-77993898D01*
X138302239Y-78026279D01*
X138203861Y-78078864D01*
X138117631Y-78149631D01*
X138046864Y-78235861D01*
X137994279Y-78334239D01*
X137961898Y-78440987D01*
X137950964Y-78552000D01*
X137654500Y-78552000D01*
X137654500Y-75552000D01*
X141650964Y-75552000D01*
X141650964Y-75852000D01*
X141659976Y-75943504D01*
X141686667Y-76031492D01*
X141730011Y-76112582D01*
X141788341Y-76183659D01*
X141859418Y-76241989D01*
X141940508Y-76285333D01*
X142028496Y-76312024D01*
X142120000Y-76321036D01*
X142373151Y-76321036D01*
X142380418Y-76327000D01*
X142373151Y-76332964D01*
X142120000Y-76332964D01*
X142028496Y-76341976D01*
X141940508Y-76368667D01*
X141859418Y-76412011D01*
X141788341Y-76470341D01*
X141730011Y-76541418D01*
X141686667Y-76622508D01*
X141659976Y-76710496D01*
X141650964Y-76802000D01*
X141650964Y-77102000D01*
X141659976Y-77193504D01*
X141686667Y-77281492D01*
X141730011Y-77362582D01*
X141788341Y-77433659D01*
X141859418Y-77491989D01*
X141940508Y-77535333D01*
X142028496Y-77562024D01*
X142120000Y-77571036D01*
X142373151Y-77571036D01*
X142394608Y-77588645D01*
X142526985Y-77659402D01*
X142670622Y-77702974D01*
X142782574Y-77714000D01*
X144200370Y-77714000D01*
X145154521Y-78668152D01*
X145178378Y-78697222D01*
X145294408Y-78792445D01*
X145426785Y-78863202D01*
X145570422Y-78906774D01*
X145682374Y-78917800D01*
X145682376Y-78917800D01*
X145719799Y-78921486D01*
X145757222Y-78917800D01*
X146398390Y-78917800D01*
X146429406Y-78955594D01*
X146477752Y-78995270D01*
X146532909Y-79024752D01*
X146592758Y-79042907D01*
X146654999Y-79049037D01*
X148404999Y-79049037D01*
X148467240Y-79042907D01*
X148527089Y-79024752D01*
X148582246Y-78995270D01*
X148630592Y-78955594D01*
X148670268Y-78907248D01*
X148699750Y-78852091D01*
X148717905Y-78792242D01*
X148724035Y-78730001D01*
X148724035Y-78413104D01*
X148756774Y-78305178D01*
X148771486Y-78155800D01*
X148756774Y-78006422D01*
X148724035Y-77898496D01*
X148724035Y-77630001D01*
X148717905Y-77567760D01*
X148706783Y-77531097D01*
X148710298Y-77522612D01*
X148722499Y-77461272D01*
X148722499Y-77396876D01*
X148643124Y-77317501D01*
X148468578Y-77317501D01*
X148467240Y-77317095D01*
X148404999Y-77310965D01*
X146654999Y-77310965D01*
X146592758Y-77317095D01*
X146591420Y-77317501D01*
X146416874Y-77317501D01*
X146340575Y-77393800D01*
X146035431Y-77393800D01*
X145388507Y-76746876D01*
X146337499Y-76746876D01*
X146337499Y-76811272D01*
X146349700Y-76872612D01*
X146352761Y-76880001D01*
X146349700Y-76887390D01*
X146337499Y-76948730D01*
X146337499Y-77013126D01*
X146416874Y-77092501D01*
X146598591Y-77092501D01*
X146623728Y-77097501D01*
X147260124Y-77097501D01*
X147265124Y-77092501D01*
X147339499Y-77092501D01*
X147339499Y-76667501D01*
X147720499Y-76667501D01*
X147720499Y-77092501D01*
X147794874Y-77092501D01*
X147799874Y-77097501D01*
X148436270Y-77097501D01*
X148461407Y-77092501D01*
X148643124Y-77092501D01*
X148722499Y-77013126D01*
X148722499Y-76948730D01*
X148710298Y-76887390D01*
X148707237Y-76880001D01*
X148710298Y-76872612D01*
X148722499Y-76811272D01*
X148722499Y-76746876D01*
X148643124Y-76667501D01*
X148461407Y-76667501D01*
X148436270Y-76662501D01*
X147799874Y-76662501D01*
X147794874Y-76667501D01*
X147720499Y-76667501D01*
X147339499Y-76667501D01*
X147265124Y-76667501D01*
X147260124Y-76662501D01*
X146623728Y-76662501D01*
X146598591Y-76667501D01*
X146416874Y-76667501D01*
X146337499Y-76746876D01*
X145388507Y-76746876D01*
X145105630Y-76464000D01*
X147045577Y-76464000D01*
X147083000Y-76467686D01*
X147120423Y-76464000D01*
X147856777Y-76464000D01*
X147894200Y-76467686D01*
X147931623Y-76464000D01*
X147931626Y-76464000D01*
X148043578Y-76452974D01*
X148056556Y-76449037D01*
X148404999Y-76449037D01*
X148467240Y-76442907D01*
X148468578Y-76442501D01*
X148643124Y-76442501D01*
X148722499Y-76363126D01*
X148722499Y-76298730D01*
X148710298Y-76237390D01*
X148706783Y-76228905D01*
X148717905Y-76192242D01*
X148724035Y-76130001D01*
X148724035Y-75885267D01*
X148738601Y-75858016D01*
X148782173Y-75714378D01*
X148796886Y-75565001D01*
X148782173Y-75415622D01*
X148738601Y-75271985D01*
X148724035Y-75244734D01*
X148724035Y-75030001D01*
X148717905Y-74967760D01*
X148706451Y-74930000D01*
X148717905Y-74892242D01*
X148724035Y-74830001D01*
X148724035Y-74380001D01*
X148717905Y-74317760D01*
X148706451Y-74280001D01*
X148717905Y-74242242D01*
X148724035Y-74180001D01*
X148724035Y-73730001D01*
X148717905Y-73667760D01*
X148706783Y-73631097D01*
X148710298Y-73622612D01*
X148722499Y-73561272D01*
X148722499Y-73496876D01*
X148643124Y-73417501D01*
X148468578Y-73417501D01*
X148467240Y-73417095D01*
X148404999Y-73410965D01*
X146654999Y-73410965D01*
X146592758Y-73417095D01*
X146591420Y-73417501D01*
X146416874Y-73417501D01*
X146337499Y-73496876D01*
X146337499Y-73561272D01*
X146349700Y-73622612D01*
X146353215Y-73631097D01*
X146342093Y-73667760D01*
X146335963Y-73730001D01*
X146335963Y-74180001D01*
X146342093Y-74242242D01*
X146353547Y-74280001D01*
X146342093Y-74317760D01*
X146335963Y-74380001D01*
X146335963Y-74830001D01*
X146342093Y-74892242D01*
X146353547Y-74930000D01*
X146350514Y-74940000D01*
X142782574Y-74940000D01*
X142670622Y-74951026D01*
X142526985Y-74994598D01*
X142394608Y-75065355D01*
X142373151Y-75082964D01*
X142120000Y-75082964D01*
X142028496Y-75091976D01*
X141940508Y-75118667D01*
X141859418Y-75162011D01*
X141788341Y-75220341D01*
X141730011Y-75291418D01*
X141686667Y-75372508D01*
X141659976Y-75460496D01*
X141650964Y-75552000D01*
X137654500Y-75552000D01*
X137654500Y-73602000D01*
X137950964Y-73602000D01*
X137950964Y-74102000D01*
X137961898Y-74213013D01*
X137994279Y-74319761D01*
X138046864Y-74418139D01*
X138117631Y-74504369D01*
X138203861Y-74575136D01*
X138302239Y-74627721D01*
X138408987Y-74660102D01*
X138520000Y-74671036D01*
X140720000Y-74671036D01*
X140831013Y-74660102D01*
X140937761Y-74627721D01*
X141036139Y-74575136D01*
X141122369Y-74504369D01*
X141193136Y-74418139D01*
X141245721Y-74319761D01*
X141278102Y-74213013D01*
X141289036Y-74102000D01*
X141289036Y-73602000D01*
X141278102Y-73490987D01*
X141245721Y-73384239D01*
X141193136Y-73285861D01*
X141122369Y-73199631D01*
X141036139Y-73128864D01*
X140937761Y-73076279D01*
X140831013Y-73043898D01*
X140720000Y-73032964D01*
X138520000Y-73032964D01*
X138408987Y-73043898D01*
X138302239Y-73076279D01*
X138203861Y-73128864D01*
X138117631Y-73199631D01*
X138046864Y-73285861D01*
X137994279Y-73384239D01*
X137961898Y-73490987D01*
X137950964Y-73602000D01*
X137654500Y-73602000D01*
X137654500Y-72846876D01*
X146337499Y-72846876D01*
X146337499Y-72911272D01*
X146349700Y-72972612D01*
X146352761Y-72980001D01*
X146349700Y-72987390D01*
X146337499Y-73048730D01*
X146337499Y-73113126D01*
X146416874Y-73192501D01*
X146598591Y-73192501D01*
X146623728Y-73197501D01*
X147260124Y-73197501D01*
X147265124Y-73192501D01*
X147339499Y-73192501D01*
X147339499Y-72767501D01*
X147720499Y-72767501D01*
X147720499Y-73192501D01*
X147794874Y-73192501D01*
X147799874Y-73197501D01*
X148436270Y-73197501D01*
X148461407Y-73192501D01*
X148643124Y-73192501D01*
X148722499Y-73113126D01*
X148722499Y-73048730D01*
X148710298Y-72987390D01*
X148707237Y-72980001D01*
X148710298Y-72972612D01*
X148722499Y-72911272D01*
X148722499Y-72846876D01*
X148643124Y-72767501D01*
X148461407Y-72767501D01*
X148436270Y-72762501D01*
X147799874Y-72762501D01*
X147794874Y-72767501D01*
X147720499Y-72767501D01*
X147339499Y-72767501D01*
X147265124Y-72767501D01*
X147260124Y-72762501D01*
X146623728Y-72762501D01*
X146598591Y-72767501D01*
X146416874Y-72767501D01*
X146337499Y-72846876D01*
X137654500Y-72846876D01*
X137654500Y-71130001D01*
X146335963Y-71130001D01*
X146335963Y-71580001D01*
X146342093Y-71642242D01*
X146353547Y-71680001D01*
X146342093Y-71717760D01*
X146335963Y-71780001D01*
X146335963Y-72230001D01*
X146342093Y-72292242D01*
X146353215Y-72328905D01*
X146349700Y-72337390D01*
X146337499Y-72398730D01*
X146337499Y-72463126D01*
X146416874Y-72542501D01*
X146591420Y-72542501D01*
X146592758Y-72542907D01*
X146654999Y-72549037D01*
X148404999Y-72549037D01*
X148467240Y-72542907D01*
X148468578Y-72542501D01*
X148643124Y-72542501D01*
X148722499Y-72463126D01*
X148722499Y-72398730D01*
X148710298Y-72337390D01*
X148706783Y-72328905D01*
X148717905Y-72292242D01*
X148724035Y-72230001D01*
X148724035Y-71780001D01*
X148717905Y-71717760D01*
X148706451Y-71680001D01*
X148717905Y-71642242D01*
X148724035Y-71580001D01*
X148724035Y-71130001D01*
X148717905Y-71067760D01*
X148699750Y-71007911D01*
X148670268Y-70952754D01*
X148630592Y-70904408D01*
X148582246Y-70864732D01*
X148527089Y-70835250D01*
X148467240Y-70817095D01*
X148404999Y-70810965D01*
X146654999Y-70810965D01*
X146592758Y-70817095D01*
X146532909Y-70835250D01*
X146477752Y-70864732D01*
X146429406Y-70904408D01*
X146389730Y-70952754D01*
X146360248Y-71007911D01*
X146342093Y-71067760D01*
X146335963Y-71130001D01*
X137654500Y-71130001D01*
X137654500Y-68032483D01*
X142565500Y-68032483D01*
X142565500Y-68193517D01*
X142596916Y-68351456D01*
X142658540Y-68500232D01*
X142748006Y-68634126D01*
X142861874Y-68747994D01*
X142995768Y-68837460D01*
X143144544Y-68899084D01*
X143302483Y-68930500D01*
X143463517Y-68930500D01*
X143621456Y-68899084D01*
X143770232Y-68837460D01*
X143904126Y-68747994D01*
X144017994Y-68634126D01*
X144107460Y-68500232D01*
X144169084Y-68351456D01*
X144200500Y-68193517D01*
X144200500Y-68032483D01*
X144194636Y-68003000D01*
X151623967Y-68003000D01*
X151623967Y-68903002D01*
X151634901Y-69014015D01*
X151667282Y-69120762D01*
X151719867Y-69219141D01*
X151790633Y-69305371D01*
X151876863Y-69376137D01*
X151892001Y-69384228D01*
X151892000Y-70841053D01*
X151889543Y-70866000D01*
X151892001Y-70890956D01*
X151892000Y-71349053D01*
X151889543Y-71374000D01*
X151892000Y-71398944D01*
X151892000Y-71603053D01*
X151889543Y-71628000D01*
X151892000Y-71652946D01*
X151892000Y-71984053D01*
X151889543Y-72009000D01*
X151892001Y-72033956D01*
X151892000Y-72492053D01*
X151889543Y-72517000D01*
X151892000Y-72541944D01*
X151892000Y-72541946D01*
X151892001Y-72541956D01*
X151892000Y-77406058D01*
X151889543Y-77431002D01*
X151892000Y-77455946D01*
X151892000Y-77455948D01*
X151899351Y-77530586D01*
X151928399Y-77626344D01*
X151975571Y-77714597D01*
X152039052Y-77791950D01*
X152058435Y-77807857D01*
X153097149Y-78846572D01*
X153113051Y-78865949D01*
X153132428Y-78881851D01*
X153190403Y-78929430D01*
X153237575Y-78954644D01*
X153278656Y-78976602D01*
X153374414Y-79005650D01*
X153449052Y-79013001D01*
X153449055Y-79013001D01*
X153473999Y-79015458D01*
X153498943Y-79013001D01*
X153710924Y-79013001D01*
X153732909Y-79024752D01*
X153792758Y-79042907D01*
X153854999Y-79049037D01*
X155575000Y-79049037D01*
X155575000Y-79056542D01*
X155599403Y-79179223D01*
X155647271Y-79294785D01*
X155716764Y-79398789D01*
X155805211Y-79487236D01*
X155909215Y-79556729D01*
X156024777Y-79604597D01*
X156147458Y-79629000D01*
X156272542Y-79629000D01*
X156395223Y-79604597D01*
X156510785Y-79556729D01*
X156614789Y-79487236D01*
X156688925Y-79413100D01*
X162920420Y-79413100D01*
X162941000Y-79415127D01*
X162961580Y-79413100D01*
X163023158Y-79407035D01*
X163102158Y-79383071D01*
X163174966Y-79344154D01*
X163238782Y-79291782D01*
X163251907Y-79275789D01*
X165057697Y-77470000D01*
X165162542Y-77470000D01*
X165285223Y-77445597D01*
X165400785Y-77397729D01*
X165504789Y-77328236D01*
X165593236Y-77239789D01*
X165662729Y-77135785D01*
X165710597Y-77020223D01*
X165735000Y-76897542D01*
X165735000Y-76772458D01*
X165710597Y-76649777D01*
X165662729Y-76534215D01*
X165593236Y-76430211D01*
X165504789Y-76341764D01*
X165400785Y-76272271D01*
X165285223Y-76224403D01*
X165162542Y-76200000D01*
X165037458Y-76200000D01*
X164914777Y-76224403D01*
X164799215Y-76272271D01*
X164695211Y-76341764D01*
X164655512Y-76381463D01*
X164592682Y-76318633D01*
X164488678Y-76249140D01*
X164373116Y-76201272D01*
X164250435Y-76176869D01*
X164125351Y-76176869D01*
X164002670Y-76201272D01*
X163960597Y-76218700D01*
X163929553Y-76172239D01*
X163841106Y-76083792D01*
X163737102Y-76014299D01*
X163621540Y-75966431D01*
X163498859Y-75942028D01*
X163373775Y-75942028D01*
X163251094Y-75966431D01*
X163135532Y-76014299D01*
X163031528Y-76083792D01*
X162943081Y-76172239D01*
X162873588Y-76276243D01*
X162825720Y-76391805D01*
X162801317Y-76514486D01*
X162801317Y-76619331D01*
X161998759Y-77421890D01*
X161278456Y-77421890D01*
X161336785Y-77397729D01*
X161440789Y-77328236D01*
X161529236Y-77239789D01*
X161598729Y-77135785D01*
X161646597Y-77020223D01*
X161671000Y-76897542D01*
X161671000Y-76772458D01*
X161646597Y-76649777D01*
X161598729Y-76534215D01*
X161529236Y-76430211D01*
X161440789Y-76341764D01*
X161336785Y-76272271D01*
X161221223Y-76224403D01*
X161098542Y-76200000D01*
X160973458Y-76200000D01*
X160850777Y-76224403D01*
X160735215Y-76272271D01*
X160631211Y-76341764D01*
X160557075Y-76415900D01*
X160153890Y-76415900D01*
X160166597Y-76385223D01*
X160191000Y-76262542D01*
X160191000Y-76137458D01*
X160166597Y-76014777D01*
X160118729Y-75899215D01*
X160049236Y-75795211D01*
X159960789Y-75706764D01*
X159911905Y-75674101D01*
X163357355Y-75674101D01*
X163377935Y-75676128D01*
X163398515Y-75674101D01*
X163460093Y-75668036D01*
X163539093Y-75644072D01*
X163611901Y-75605155D01*
X163675717Y-75552783D01*
X163688842Y-75536790D01*
X164803633Y-74422000D01*
X164908478Y-74422000D01*
X165031159Y-74397597D01*
X165146721Y-74349729D01*
X165250725Y-74280236D01*
X165339172Y-74191789D01*
X165408665Y-74087785D01*
X165456533Y-73972223D01*
X165480936Y-73849542D01*
X165480936Y-73724458D01*
X165456533Y-73601777D01*
X165408665Y-73486215D01*
X165339172Y-73382211D01*
X165250725Y-73293764D01*
X165146721Y-73224271D01*
X165031159Y-73176403D01*
X164908478Y-73152000D01*
X164783394Y-73152000D01*
X164660713Y-73176403D01*
X164545151Y-73224271D01*
X164441147Y-73293764D01*
X164352700Y-73382211D01*
X164283207Y-73486215D01*
X164235339Y-73601777D01*
X164210936Y-73724458D01*
X164210936Y-73829303D01*
X163204339Y-74835901D01*
X155922499Y-74835901D01*
X155922499Y-74796876D01*
X155843124Y-74717501D01*
X155668578Y-74717501D01*
X155667240Y-74717095D01*
X155604999Y-74710965D01*
X153854999Y-74710965D01*
X153792758Y-74717095D01*
X153791420Y-74717501D01*
X153616874Y-74717501D01*
X153537499Y-74796876D01*
X153537499Y-74861272D01*
X153549700Y-74922612D01*
X153553215Y-74931097D01*
X153542093Y-74967760D01*
X153535963Y-75030001D01*
X153535963Y-75480001D01*
X153542093Y-75542242D01*
X153553547Y-75580001D01*
X153542093Y-75617760D01*
X153535963Y-75680001D01*
X153535963Y-76130001D01*
X153542093Y-76192242D01*
X153553547Y-76230001D01*
X153542093Y-76267760D01*
X153535963Y-76330001D01*
X153535963Y-76780001D01*
X153542093Y-76842242D01*
X153553547Y-76880001D01*
X153542093Y-76917760D01*
X153535963Y-76980001D01*
X153535963Y-77430001D01*
X153542093Y-77492242D01*
X153553547Y-77530001D01*
X153542093Y-77567760D01*
X153535963Y-77630001D01*
X153535963Y-77848544D01*
X152908000Y-77220582D01*
X152908000Y-72727420D01*
X153118421Y-72517000D01*
X153445056Y-72517000D01*
X153470000Y-72519457D01*
X153494944Y-72517000D01*
X153494947Y-72517000D01*
X153535551Y-72513001D01*
X153535963Y-72513001D01*
X153535963Y-72880001D01*
X153542093Y-72942242D01*
X153553547Y-72980001D01*
X153542093Y-73017760D01*
X153535963Y-73080001D01*
X153535963Y-73530001D01*
X153542093Y-73592242D01*
X153553547Y-73630001D01*
X153542093Y-73667760D01*
X153535963Y-73730001D01*
X153535963Y-74180001D01*
X153542093Y-74242242D01*
X153553215Y-74278905D01*
X153549700Y-74287390D01*
X153537499Y-74348730D01*
X153537499Y-74413126D01*
X153616874Y-74492501D01*
X153791420Y-74492501D01*
X153792758Y-74492907D01*
X153854999Y-74499037D01*
X155604999Y-74499037D01*
X155667240Y-74492907D01*
X155668578Y-74492501D01*
X155843124Y-74492501D01*
X155922499Y-74413126D01*
X155922499Y-74348730D01*
X155910298Y-74287390D01*
X155906783Y-74278905D01*
X155917905Y-74242242D01*
X155924035Y-74180001D01*
X155924035Y-73730001D01*
X155917905Y-73667760D01*
X155906451Y-73630001D01*
X155917905Y-73592242D01*
X155924035Y-73530001D01*
X155924035Y-73080001D01*
X155917905Y-73017760D01*
X155906451Y-72980001D01*
X155917905Y-72942242D01*
X155924035Y-72880001D01*
X155924035Y-72517000D01*
X155931055Y-72517000D01*
X155955999Y-72519457D01*
X155980943Y-72517000D01*
X156253580Y-72517000D01*
X156722145Y-72985565D01*
X156738052Y-73004948D01*
X156815405Y-73068429D01*
X156903657Y-73115601D01*
X156999415Y-73144649D01*
X157074053Y-73152000D01*
X157074056Y-73152000D01*
X157099000Y-73154457D01*
X157123944Y-73152000D01*
X157509962Y-73152000D01*
X157509962Y-73646001D01*
X157520896Y-73757014D01*
X157553277Y-73863761D01*
X157605862Y-73962140D01*
X157676628Y-74048370D01*
X157762858Y-74119136D01*
X157861237Y-74171721D01*
X157967984Y-74204102D01*
X158078997Y-74215036D01*
X159928999Y-74215036D01*
X160040012Y-74204102D01*
X160146759Y-74171721D01*
X160245138Y-74119136D01*
X160331368Y-74048370D01*
X160402134Y-73962140D01*
X160454719Y-73863761D01*
X160487100Y-73757014D01*
X160498034Y-73646001D01*
X160498034Y-73279000D01*
X161603058Y-73279000D01*
X161628002Y-73281457D01*
X161652946Y-73279000D01*
X161652949Y-73279000D01*
X161727587Y-73271649D01*
X161823345Y-73242601D01*
X161911597Y-73195429D01*
X161988950Y-73131948D01*
X162004857Y-73112565D01*
X163467966Y-71649456D01*
X163467966Y-71893000D01*
X163474096Y-71955241D01*
X163492251Y-72015090D01*
X163521733Y-72070247D01*
X163561409Y-72118593D01*
X163609755Y-72158269D01*
X163664912Y-72187751D01*
X163724761Y-72205906D01*
X163787002Y-72212036D01*
X166287002Y-72212036D01*
X166349243Y-72205906D01*
X166409092Y-72187751D01*
X166464249Y-72158269D01*
X166512595Y-72118593D01*
X166552271Y-72070247D01*
X166581753Y-72015090D01*
X166599908Y-71955241D01*
X166606038Y-71893000D01*
X166606038Y-70093000D01*
X167467966Y-70093000D01*
X167467966Y-71893000D01*
X167474096Y-71955241D01*
X167492251Y-72015090D01*
X167521733Y-72070247D01*
X167561409Y-72118593D01*
X167609755Y-72158269D01*
X167664912Y-72187751D01*
X167724761Y-72205906D01*
X167787002Y-72212036D01*
X169112063Y-72212036D01*
X169109271Y-72216215D01*
X169061403Y-72331777D01*
X169037000Y-72454458D01*
X169037000Y-72579542D01*
X169061403Y-72702223D01*
X169109271Y-72817785D01*
X169178764Y-72921789D01*
X169267211Y-73010236D01*
X169371215Y-73079729D01*
X169486777Y-73127597D01*
X169609458Y-73152000D01*
X169714304Y-73152000D01*
X170250097Y-73687794D01*
X170263218Y-73703782D01*
X170327034Y-73756154D01*
X170399842Y-73795071D01*
X170478842Y-73819035D01*
X170561000Y-73827127D01*
X170581580Y-73825100D01*
X180700420Y-73825100D01*
X180721000Y-73827127D01*
X180741580Y-73825100D01*
X180803158Y-73819035D01*
X180882158Y-73795071D01*
X180954966Y-73756154D01*
X181018782Y-73703782D01*
X181031907Y-73687789D01*
X182907794Y-71811903D01*
X182923782Y-71798782D01*
X182976154Y-71734966D01*
X183015071Y-71662158D01*
X183039035Y-71583158D01*
X183045100Y-71521580D01*
X183047127Y-71501000D01*
X183045100Y-71480420D01*
X183045100Y-58678457D01*
X183067861Y-58697136D01*
X183166239Y-58749721D01*
X183272987Y-58782102D01*
X183384000Y-58793036D01*
X185584000Y-58793036D01*
X185695013Y-58782102D01*
X185801001Y-58749952D01*
X185801000Y-73195579D01*
X184066580Y-74930000D01*
X180485385Y-74930000D01*
X180473208Y-74911775D01*
X180358225Y-74796792D01*
X180223021Y-74706452D01*
X180072789Y-74644224D01*
X179913305Y-74612500D01*
X179750695Y-74612500D01*
X179591211Y-74644224D01*
X179440979Y-74706452D01*
X179305775Y-74796792D01*
X179190792Y-74911775D01*
X179100452Y-75046979D01*
X179038224Y-75197211D01*
X179006500Y-75356695D01*
X179006500Y-75519305D01*
X179038224Y-75678789D01*
X179100452Y-75829021D01*
X179190792Y-75964225D01*
X179305775Y-76079208D01*
X179440979Y-76169548D01*
X179591211Y-76231776D01*
X179750695Y-76263500D01*
X179913305Y-76263500D01*
X180072789Y-76231776D01*
X180223021Y-76169548D01*
X180358225Y-76079208D01*
X180473208Y-75964225D01*
X180485385Y-75946000D01*
X184252056Y-75946000D01*
X184277000Y-75948457D01*
X184301944Y-75946000D01*
X184301947Y-75946000D01*
X184376585Y-75938649D01*
X184472343Y-75909601D01*
X184560595Y-75862429D01*
X184637948Y-75798948D01*
X184653855Y-75779565D01*
X186650571Y-73782850D01*
X186669948Y-73766948D01*
X186688624Y-73744190D01*
X186733429Y-73689596D01*
X186777090Y-73607911D01*
X186780601Y-73601343D01*
X186809649Y-73505585D01*
X186817000Y-73430947D01*
X186817000Y-73430944D01*
X186819457Y-73406000D01*
X186817000Y-73381056D01*
X186817000Y-56031943D01*
X186819457Y-56006999D01*
X186815108Y-55962842D01*
X186809649Y-55907415D01*
X186780601Y-55811657D01*
X186758643Y-55770576D01*
X186733429Y-55723404D01*
X186685850Y-55665429D01*
X186669948Y-55646052D01*
X186650571Y-55630150D01*
X185542855Y-54522435D01*
X185526948Y-54503052D01*
X185449595Y-54439571D01*
X185361343Y-54392399D01*
X185265585Y-54363351D01*
X185190947Y-54356000D01*
X185190944Y-54356000D01*
X185166000Y-54353543D01*
X185141056Y-54356000D01*
X182271376Y-54356000D01*
X182244582Y-54334011D01*
X182163492Y-54290667D01*
X182075504Y-54263976D01*
X181984000Y-54254964D01*
X180584000Y-54254964D01*
X180492496Y-54263976D01*
X180404508Y-54290667D01*
X180323418Y-54334011D01*
X180252341Y-54392341D01*
X180194011Y-54463418D01*
X180150667Y-54544508D01*
X180123976Y-54632496D01*
X180114964Y-54724000D01*
X180114964Y-55024000D01*
X180123976Y-55115504D01*
X180150667Y-55203492D01*
X180194011Y-55284582D01*
X180252341Y-55355659D01*
X180323418Y-55413989D01*
X180404508Y-55457333D01*
X180492496Y-55484024D01*
X180584000Y-55493036D01*
X181984000Y-55493036D01*
X182075504Y-55484024D01*
X182163492Y-55457333D01*
X182244582Y-55413989D01*
X182295747Y-55372000D01*
X184955580Y-55372000D01*
X185801001Y-56217422D01*
X185801001Y-57198048D01*
X185695013Y-57165898D01*
X185584000Y-57154964D01*
X183384000Y-57154964D01*
X183272987Y-57165898D01*
X183166239Y-57198279D01*
X183067861Y-57250864D01*
X183045100Y-57269543D01*
X183045100Y-56408577D01*
X183047127Y-56387999D01*
X183044169Y-56357966D01*
X183039035Y-56305842D01*
X183015071Y-56226842D01*
X182976154Y-56154034D01*
X182923782Y-56090218D01*
X182907790Y-56077094D01*
X182672907Y-55842211D01*
X182659782Y-55826218D01*
X182595966Y-55773846D01*
X182523158Y-55734929D01*
X182444158Y-55710965D01*
X182382580Y-55704900D01*
X182365628Y-55703230D01*
X182315659Y-55642341D01*
X182244582Y-55584011D01*
X182163492Y-55540667D01*
X182075504Y-55513976D01*
X181984000Y-55504964D01*
X180584000Y-55504964D01*
X180492496Y-55513976D01*
X180404508Y-55540667D01*
X180323418Y-55584011D01*
X180252341Y-55642341D01*
X180194011Y-55713418D01*
X180150667Y-55794508D01*
X180123976Y-55882496D01*
X180114964Y-55974000D01*
X180114964Y-56274000D01*
X180123976Y-56365504D01*
X180150667Y-56453492D01*
X180194011Y-56534582D01*
X180252341Y-56605659D01*
X180323418Y-56663989D01*
X180404508Y-56707333D01*
X180492496Y-56734024D01*
X180584000Y-56743036D01*
X181984000Y-56743036D01*
X182075504Y-56734024D01*
X182163492Y-56707333D01*
X182206900Y-56684131D01*
X182206901Y-71327402D01*
X180547404Y-72986900D01*
X170734597Y-72986900D01*
X170307000Y-72559304D01*
X170307000Y-72454458D01*
X170282597Y-72331777D01*
X170234729Y-72216215D01*
X170231937Y-72212036D01*
X170287002Y-72212036D01*
X170349243Y-72205906D01*
X170409092Y-72187751D01*
X170464249Y-72158269D01*
X170512595Y-72118593D01*
X170552271Y-72070247D01*
X170581753Y-72015090D01*
X170599908Y-71955241D01*
X170606038Y-71893000D01*
X170606038Y-71501002D01*
X171752964Y-71501002D01*
X171752964Y-72093002D01*
X171759094Y-72155243D01*
X171777249Y-72215092D01*
X171806731Y-72270249D01*
X171846407Y-72318595D01*
X171894753Y-72358271D01*
X171949910Y-72387753D01*
X172009759Y-72405908D01*
X172072000Y-72412038D01*
X173572000Y-72412038D01*
X173634241Y-72405908D01*
X173694090Y-72387753D01*
X173749247Y-72358271D01*
X173797593Y-72318595D01*
X173837269Y-72270249D01*
X173866751Y-72215092D01*
X173884906Y-72155243D01*
X173891036Y-72093002D01*
X173891036Y-69893002D01*
X173884906Y-69830761D01*
X173866751Y-69770912D01*
X173837269Y-69715755D01*
X173797593Y-69667409D01*
X173749247Y-69627733D01*
X173694090Y-69598251D01*
X173634241Y-69580096D01*
X173609000Y-69577610D01*
X173609000Y-65602036D01*
X174308999Y-65602036D01*
X174371240Y-65595906D01*
X174431089Y-65577751D01*
X174486246Y-65548269D01*
X174534592Y-65508593D01*
X174574268Y-65460247D01*
X174603750Y-65405090D01*
X174621905Y-65345241D01*
X174628035Y-65283000D01*
X174628035Y-64633000D01*
X174621905Y-64570759D01*
X174603750Y-64510910D01*
X174589629Y-64484492D01*
X174590364Y-64483393D01*
X174614298Y-64425611D01*
X174626499Y-64364271D01*
X174626499Y-64249875D01*
X174547124Y-64170500D01*
X173719499Y-64170500D01*
X173719499Y-64218500D01*
X173338499Y-64218500D01*
X173338499Y-64170500D01*
X172510874Y-64170500D01*
X172431499Y-64249875D01*
X172431499Y-64364271D01*
X172443700Y-64425611D01*
X172467634Y-64483393D01*
X172468369Y-64484492D01*
X172454248Y-64510910D01*
X172436093Y-64570759D01*
X172429963Y-64633000D01*
X172429963Y-65283000D01*
X172436093Y-65345241D01*
X172454248Y-65405090D01*
X172483730Y-65460247D01*
X172523406Y-65508593D01*
X172571752Y-65548269D01*
X172593000Y-65559626D01*
X172593001Y-69573966D01*
X172072000Y-69573966D01*
X172009759Y-69580096D01*
X171949910Y-69598251D01*
X171894753Y-69627733D01*
X171846407Y-69667409D01*
X171806731Y-69715755D01*
X171777249Y-69770912D01*
X171759094Y-69830761D01*
X171752964Y-69893002D01*
X171752964Y-70485002D01*
X170606038Y-70485002D01*
X170606038Y-70093000D01*
X170599908Y-70030759D01*
X170581753Y-69970910D01*
X170552271Y-69915753D01*
X170512595Y-69867407D01*
X170464249Y-69827731D01*
X170409092Y-69798249D01*
X170349243Y-69780094D01*
X170287002Y-69773964D01*
X167787002Y-69773964D01*
X167724761Y-69780094D01*
X167664912Y-69798249D01*
X167609755Y-69827731D01*
X167561409Y-69867407D01*
X167521733Y-69915753D01*
X167492251Y-69970910D01*
X167474096Y-70030759D01*
X167467966Y-70093000D01*
X166606038Y-70093000D01*
X166599908Y-70030759D01*
X166581753Y-69970910D01*
X166552271Y-69915753D01*
X166512595Y-69867407D01*
X166464249Y-69827731D01*
X166409092Y-69798249D01*
X166349243Y-69780094D01*
X166287002Y-69773964D01*
X166243000Y-69773964D01*
X166243000Y-68349035D01*
X166439001Y-68349035D01*
X166550014Y-68338101D01*
X166656761Y-68305720D01*
X166755140Y-68253135D01*
X166841370Y-68182369D01*
X166912136Y-68096139D01*
X166964721Y-67997760D01*
X166997102Y-67891013D01*
X167008036Y-67780000D01*
X167008036Y-67129998D01*
X166997102Y-67018985D01*
X166964721Y-66912238D01*
X166912136Y-66813859D01*
X166841370Y-66727629D01*
X166755140Y-66656863D01*
X166656761Y-66604278D01*
X166550014Y-66571897D01*
X166439001Y-66560963D01*
X165538999Y-66560963D01*
X165427986Y-66571897D01*
X165321239Y-66604278D01*
X165222860Y-66656863D01*
X165136630Y-66727629D01*
X165065864Y-66813859D01*
X165013279Y-66912238D01*
X165002734Y-66946999D01*
X162174419Y-66946999D01*
X161519395Y-66291975D01*
X161530241Y-66290907D01*
X161590090Y-66272752D01*
X161645247Y-66243270D01*
X161693593Y-66203594D01*
X161733269Y-66155248D01*
X161762751Y-66100091D01*
X161780906Y-66040242D01*
X161787036Y-65978001D01*
X161787036Y-64578001D01*
X162148964Y-64578001D01*
X162148964Y-65978001D01*
X162155094Y-66040242D01*
X162173249Y-66100091D01*
X162202731Y-66155248D01*
X162242407Y-66203594D01*
X162290753Y-66243270D01*
X162345910Y-66272752D01*
X162405759Y-66290907D01*
X162468000Y-66297037D01*
X163668000Y-66297037D01*
X163730241Y-66290907D01*
X163790090Y-66272752D01*
X163845247Y-66243270D01*
X163893593Y-66203594D01*
X163933269Y-66155248D01*
X163962751Y-66100091D01*
X163980906Y-66040242D01*
X163987036Y-65978001D01*
X163987036Y-65674874D01*
X164971500Y-65674874D01*
X164971500Y-66011270D01*
X164983701Y-66072610D01*
X165007635Y-66130392D01*
X165042382Y-66182393D01*
X165086606Y-66226617D01*
X165138607Y-66261364D01*
X165196389Y-66285298D01*
X165257729Y-66297499D01*
X165719125Y-66297499D01*
X165798500Y-66218124D01*
X165798500Y-65595499D01*
X166179500Y-65595499D01*
X166179500Y-66218124D01*
X166258875Y-66297499D01*
X166720271Y-66297499D01*
X166781611Y-66285298D01*
X166839393Y-66261364D01*
X166891394Y-66226617D01*
X166935618Y-66182393D01*
X166970365Y-66130392D01*
X166994299Y-66072610D01*
X167006500Y-66011270D01*
X167006500Y-65674874D01*
X166927125Y-65595499D01*
X166179500Y-65595499D01*
X165798500Y-65595499D01*
X165050875Y-65595499D01*
X164971500Y-65674874D01*
X163987036Y-65674874D01*
X163987036Y-64798728D01*
X164971500Y-64798728D01*
X164971500Y-65135124D01*
X165050875Y-65214499D01*
X165798500Y-65214499D01*
X165798500Y-64591874D01*
X166179500Y-64591874D01*
X166179500Y-65214499D01*
X166927125Y-65214499D01*
X167006500Y-65135124D01*
X167006500Y-64798728D01*
X166994299Y-64737388D01*
X166970365Y-64679606D01*
X166935618Y-64627605D01*
X166891394Y-64583381D01*
X166839393Y-64548634D01*
X166781611Y-64524700D01*
X166720271Y-64512499D01*
X166258875Y-64512499D01*
X166179500Y-64591874D01*
X165798500Y-64591874D01*
X165719125Y-64512499D01*
X165257729Y-64512499D01*
X165196389Y-64524700D01*
X165138607Y-64548634D01*
X165086606Y-64583381D01*
X165042382Y-64627605D01*
X165007635Y-64679606D01*
X164983701Y-64737388D01*
X164971500Y-64798728D01*
X163987036Y-64798728D01*
X163987036Y-64578001D01*
X163980906Y-64515760D01*
X163962751Y-64455911D01*
X163933269Y-64400754D01*
X163893593Y-64352408D01*
X163845247Y-64312732D01*
X163790090Y-64283250D01*
X163730241Y-64265095D01*
X163668000Y-64258965D01*
X162468000Y-64258965D01*
X162405759Y-64265095D01*
X162345910Y-64283250D01*
X162290753Y-64312732D01*
X162242407Y-64352408D01*
X162202731Y-64400754D01*
X162173249Y-64455911D01*
X162155094Y-64515760D01*
X162148964Y-64578001D01*
X161787036Y-64578001D01*
X161780906Y-64515760D01*
X161762751Y-64455911D01*
X161733269Y-64400754D01*
X161693593Y-64352408D01*
X161645247Y-64312732D01*
X161590090Y-64283250D01*
X161530241Y-64265095D01*
X161468000Y-64258965D01*
X160615732Y-64258965D01*
X160911396Y-63963301D01*
X160927382Y-63950182D01*
X160956356Y-63914876D01*
X168527500Y-63914876D01*
X168527500Y-64251272D01*
X168539701Y-64312612D01*
X168563635Y-64370394D01*
X168598382Y-64422395D01*
X168642606Y-64466619D01*
X168694607Y-64501366D01*
X168752389Y-64525300D01*
X168813729Y-64537501D01*
X169275125Y-64537501D01*
X169354500Y-64458126D01*
X169354500Y-63835501D01*
X169735500Y-63835501D01*
X169735500Y-64458126D01*
X169814875Y-64537501D01*
X170276271Y-64537501D01*
X170337611Y-64525300D01*
X170395393Y-64501366D01*
X170447394Y-64466619D01*
X170491618Y-64422395D01*
X170526365Y-64370394D01*
X170550299Y-64312612D01*
X170562500Y-64251272D01*
X170562500Y-63914876D01*
X170483125Y-63835501D01*
X169735500Y-63835501D01*
X169354500Y-63835501D01*
X168606875Y-63835501D01*
X168527500Y-63914876D01*
X160956356Y-63914876D01*
X160979754Y-63886366D01*
X161018671Y-63813558D01*
X161042635Y-63734558D01*
X161048700Y-63672980D01*
X161048700Y-63672979D01*
X161050727Y-63652400D01*
X161048700Y-63631820D01*
X161048700Y-63038730D01*
X168527500Y-63038730D01*
X168527500Y-63375126D01*
X168606875Y-63454501D01*
X169354500Y-63454501D01*
X169354500Y-62831876D01*
X169735500Y-62831876D01*
X169735500Y-63454501D01*
X170483125Y-63454501D01*
X170562500Y-63375126D01*
X170562500Y-63038730D01*
X170550299Y-62977390D01*
X170526365Y-62919608D01*
X170491618Y-62867607D01*
X170447394Y-62823383D01*
X170395393Y-62788636D01*
X170337611Y-62764702D01*
X170276271Y-62752501D01*
X169814875Y-62752501D01*
X169735500Y-62831876D01*
X169354500Y-62831876D01*
X169275125Y-62752501D01*
X168813729Y-62752501D01*
X168752389Y-62764702D01*
X168694607Y-62788636D01*
X168642606Y-62823383D01*
X168598382Y-62867607D01*
X168563635Y-62919608D01*
X168539701Y-62977390D01*
X168527500Y-63038730D01*
X161048700Y-63038730D01*
X161048700Y-62973598D01*
X161105759Y-62990907D01*
X161168000Y-62997037D01*
X162768000Y-62997037D01*
X162830241Y-62990907D01*
X162890090Y-62972752D01*
X162945247Y-62943270D01*
X162993593Y-62903594D01*
X163033269Y-62855248D01*
X163062751Y-62800091D01*
X163080906Y-62740242D01*
X163087036Y-62678001D01*
X163087036Y-62014100D01*
X168535232Y-62014100D01*
X168536898Y-62031015D01*
X168569279Y-62137762D01*
X168621864Y-62236141D01*
X168692630Y-62322371D01*
X168778860Y-62393137D01*
X168877239Y-62445722D01*
X168983986Y-62478103D01*
X169094999Y-62489037D01*
X169995001Y-62489037D01*
X170106014Y-62478103D01*
X170212761Y-62445722D01*
X170311140Y-62393137D01*
X170397370Y-62322371D01*
X170468136Y-62236141D01*
X170520721Y-62137762D01*
X170553102Y-62031015D01*
X170554768Y-62014101D01*
X172420604Y-62014101D01*
X172820466Y-62413964D01*
X172748999Y-62413964D01*
X172686758Y-62420094D01*
X172626909Y-62438249D01*
X172571752Y-62467731D01*
X172523406Y-62507407D01*
X172483730Y-62555753D01*
X172454248Y-62610910D01*
X172436093Y-62670759D01*
X172429963Y-62733000D01*
X172429963Y-63383000D01*
X172436093Y-63445241D01*
X172454248Y-63505090D01*
X172468369Y-63531508D01*
X172467634Y-63532607D01*
X172443700Y-63590389D01*
X172431499Y-63651729D01*
X172431499Y-63766125D01*
X172510874Y-63845500D01*
X173338499Y-63845500D01*
X173338499Y-63797500D01*
X173719499Y-63797500D01*
X173719499Y-63845500D01*
X174547124Y-63845500D01*
X174626499Y-63766125D01*
X174626499Y-63651729D01*
X174614298Y-63590389D01*
X174590364Y-63532607D01*
X174589629Y-63531508D01*
X174603750Y-63505090D01*
X174621905Y-63445241D01*
X174628035Y-63383000D01*
X174628035Y-62733000D01*
X174621905Y-62670759D01*
X174603750Y-62610910D01*
X174598308Y-62600729D01*
X175129963Y-63132384D01*
X175129963Y-63249327D01*
X175114951Y-63298815D01*
X175105143Y-63398400D01*
X175107600Y-63423347D01*
X175107600Y-63576653D01*
X175105143Y-63601600D01*
X175114951Y-63701185D01*
X175129963Y-63750673D01*
X175129963Y-64333000D01*
X175136093Y-64395241D01*
X175154248Y-64455090D01*
X175169166Y-64483000D01*
X175154248Y-64510910D01*
X175136093Y-64570759D01*
X175129963Y-64633000D01*
X175129963Y-65283000D01*
X175136093Y-65345241D01*
X175154248Y-65405090D01*
X175183730Y-65460247D01*
X175223406Y-65508593D01*
X175271752Y-65548269D01*
X175326909Y-65577751D01*
X175386758Y-65595906D01*
X175448999Y-65602036D01*
X177008999Y-65602036D01*
X177071240Y-65595906D01*
X177131089Y-65577751D01*
X177186246Y-65548269D01*
X177234592Y-65508593D01*
X177274268Y-65460247D01*
X177303750Y-65405090D01*
X177321905Y-65345241D01*
X177328035Y-65283000D01*
X177328035Y-64633000D01*
X177321905Y-64570759D01*
X177303750Y-64510910D01*
X177288832Y-64483000D01*
X177303750Y-64455090D01*
X177321905Y-64395241D01*
X177328035Y-64333000D01*
X177328035Y-63751025D01*
X177335449Y-63726584D01*
X177342800Y-63651946D01*
X177342800Y-63651943D01*
X177343484Y-63645000D01*
X178337734Y-63645000D01*
X178348279Y-63679761D01*
X178400864Y-63778140D01*
X178471630Y-63864370D01*
X178557860Y-63935136D01*
X178656239Y-63987721D01*
X178762986Y-64020102D01*
X178816000Y-64025324D01*
X178816001Y-69573966D01*
X178472000Y-69573966D01*
X178409759Y-69580096D01*
X178349910Y-69598251D01*
X178294753Y-69627733D01*
X178246407Y-69667409D01*
X178206731Y-69715755D01*
X178177249Y-69770912D01*
X178159094Y-69830761D01*
X178152964Y-69893002D01*
X178152964Y-72093002D01*
X178159094Y-72155243D01*
X178177249Y-72215092D01*
X178206731Y-72270249D01*
X178246407Y-72318595D01*
X178294753Y-72358271D01*
X178349910Y-72387753D01*
X178409759Y-72405908D01*
X178472000Y-72412038D01*
X179972000Y-72412038D01*
X180034241Y-72405908D01*
X180094090Y-72387753D01*
X180149247Y-72358271D01*
X180197593Y-72318595D01*
X180237269Y-72270249D01*
X180266751Y-72215092D01*
X180284906Y-72155243D01*
X180291036Y-72093002D01*
X180291036Y-69893002D01*
X180284906Y-69830761D01*
X180266751Y-69770912D01*
X180237269Y-69715755D01*
X180197593Y-69667409D01*
X180149247Y-69627733D01*
X180094090Y-69598251D01*
X180034241Y-69580096D01*
X179972000Y-69573966D01*
X179832000Y-69573966D01*
X179832000Y-64025324D01*
X179885014Y-64020102D01*
X179991761Y-63987721D01*
X180090140Y-63935136D01*
X180176370Y-63864370D01*
X180247136Y-63778140D01*
X180299721Y-63679761D01*
X180332102Y-63573014D01*
X180343036Y-63462001D01*
X180343036Y-62811999D01*
X180332102Y-62700986D01*
X180299721Y-62594239D01*
X180247136Y-62495860D01*
X180176370Y-62409630D01*
X180090140Y-62338864D01*
X179991761Y-62286279D01*
X179885014Y-62253898D01*
X179774001Y-62242964D01*
X178873999Y-62242964D01*
X178762986Y-62253898D01*
X178656239Y-62286279D01*
X178557860Y-62338864D01*
X178471630Y-62409630D01*
X178400864Y-62495860D01*
X178348279Y-62594239D01*
X178337734Y-62629000D01*
X177309238Y-62629000D01*
X177303750Y-62610910D01*
X177274268Y-62555753D01*
X177234592Y-62507407D01*
X177186246Y-62467731D01*
X177131089Y-62438249D01*
X177071240Y-62420094D01*
X177008999Y-62413964D01*
X175848383Y-62413964D01*
X174791294Y-61356875D01*
X178306500Y-61356875D01*
X178306500Y-61693271D01*
X178318701Y-61754611D01*
X178342635Y-61812393D01*
X178377382Y-61864394D01*
X178421606Y-61908618D01*
X178473607Y-61943365D01*
X178531389Y-61967299D01*
X178592729Y-61979500D01*
X179054125Y-61979500D01*
X179133500Y-61900125D01*
X179133500Y-61277500D01*
X179514500Y-61277500D01*
X179514500Y-61900125D01*
X179593875Y-61979500D01*
X180055271Y-61979500D01*
X180116611Y-61967299D01*
X180174393Y-61943365D01*
X180226394Y-61908618D01*
X180270618Y-61864394D01*
X180305365Y-61812393D01*
X180329299Y-61754611D01*
X180341500Y-61693271D01*
X180341500Y-61356875D01*
X180262125Y-61277500D01*
X179514500Y-61277500D01*
X179133500Y-61277500D01*
X178385875Y-61277500D01*
X178306500Y-61356875D01*
X174791294Y-61356875D01*
X173915148Y-60480729D01*
X178306500Y-60480729D01*
X178306500Y-60817125D01*
X178385875Y-60896500D01*
X179133500Y-60896500D01*
X179133500Y-60273875D01*
X179514500Y-60273875D01*
X179514500Y-60896500D01*
X180262125Y-60896500D01*
X180341500Y-60817125D01*
X180341500Y-60480729D01*
X180329299Y-60419389D01*
X180305365Y-60361607D01*
X180270618Y-60309606D01*
X180226394Y-60265382D01*
X180174393Y-60230635D01*
X180116611Y-60206701D01*
X180055271Y-60194500D01*
X179593875Y-60194500D01*
X179514500Y-60273875D01*
X179133500Y-60273875D01*
X179054125Y-60194500D01*
X178592729Y-60194500D01*
X178531389Y-60206701D01*
X178473607Y-60230635D01*
X178421606Y-60265382D01*
X178377382Y-60309606D01*
X178342635Y-60361607D01*
X178318701Y-60419389D01*
X178306500Y-60480729D01*
X173915148Y-60480729D01*
X173101000Y-59666581D01*
X173101000Y-59519420D01*
X173692420Y-58928000D01*
X174489676Y-58928000D01*
X174494898Y-58981014D01*
X174527279Y-59087761D01*
X174579864Y-59186140D01*
X174650630Y-59272370D01*
X174736860Y-59343136D01*
X174835239Y-59395721D01*
X174941986Y-59428102D01*
X175052999Y-59439036D01*
X175703001Y-59439036D01*
X175814014Y-59428102D01*
X175920761Y-59395721D01*
X176019140Y-59343136D01*
X176105370Y-59272370D01*
X176176136Y-59186140D01*
X176228721Y-59087761D01*
X176261102Y-58981014D01*
X176272036Y-58870001D01*
X176272036Y-58689875D01*
X176535500Y-58689875D01*
X176535500Y-59151271D01*
X176547701Y-59212611D01*
X176571635Y-59270393D01*
X176606382Y-59322394D01*
X176650606Y-59366618D01*
X176702607Y-59401365D01*
X176760389Y-59425299D01*
X176821729Y-59437500D01*
X177158125Y-59437500D01*
X177237500Y-59358125D01*
X177237500Y-58610500D01*
X177618500Y-58610500D01*
X177618500Y-59358125D01*
X177697875Y-59437500D01*
X178034271Y-59437500D01*
X178095611Y-59425299D01*
X178153393Y-59401365D01*
X178205394Y-59366618D01*
X178249618Y-59322394D01*
X178284365Y-59270393D01*
X178308299Y-59212611D01*
X178320500Y-59151271D01*
X178320500Y-58689875D01*
X178241125Y-58610500D01*
X177618500Y-58610500D01*
X177237500Y-58610500D01*
X176614875Y-58610500D01*
X176535500Y-58689875D01*
X176272036Y-58689875D01*
X176272036Y-57969999D01*
X176261102Y-57858986D01*
X176228721Y-57752239D01*
X176194774Y-57688729D01*
X176535500Y-57688729D01*
X176535500Y-58150125D01*
X176614875Y-58229500D01*
X177237500Y-58229500D01*
X177237500Y-57481875D01*
X177618500Y-57481875D01*
X177618500Y-58229500D01*
X178241125Y-58229500D01*
X178320500Y-58150125D01*
X178320500Y-57688729D01*
X178308299Y-57627389D01*
X178284365Y-57569607D01*
X178249618Y-57517606D01*
X178205394Y-57473382D01*
X178153393Y-57438635D01*
X178095611Y-57414701D01*
X178034271Y-57402500D01*
X177697875Y-57402500D01*
X177618500Y-57481875D01*
X177237500Y-57481875D01*
X177158125Y-57402500D01*
X176821729Y-57402500D01*
X176760389Y-57414701D01*
X176702607Y-57438635D01*
X176650606Y-57473382D01*
X176606382Y-57517606D01*
X176571635Y-57569607D01*
X176547701Y-57627389D01*
X176535500Y-57688729D01*
X176194774Y-57688729D01*
X176176136Y-57653860D01*
X176105370Y-57567630D01*
X176019140Y-57496864D01*
X175920761Y-57444279D01*
X175814014Y-57411898D01*
X175703001Y-57400964D01*
X175052999Y-57400964D01*
X174941986Y-57411898D01*
X174835239Y-57444279D01*
X174736860Y-57496864D01*
X174650630Y-57567630D01*
X174579864Y-57653860D01*
X174527279Y-57752239D01*
X174494898Y-57858986D01*
X174489676Y-57912000D01*
X173506944Y-57912000D01*
X173482000Y-57909543D01*
X173457056Y-57912000D01*
X173457053Y-57912000D01*
X173382415Y-57919351D01*
X173286657Y-57948399D01*
X173198405Y-57995571D01*
X173121052Y-58059052D01*
X173105145Y-58078435D01*
X172251435Y-58932145D01*
X172232052Y-58948052D01*
X172216145Y-58967435D01*
X172132425Y-59051155D01*
X162340327Y-59051155D01*
X162328150Y-59032930D01*
X162213167Y-58917947D01*
X162077963Y-58827607D01*
X161927731Y-58765379D01*
X161768247Y-58733655D01*
X161605637Y-58733655D01*
X161446153Y-58765379D01*
X161295921Y-58827607D01*
X161160717Y-58917947D01*
X161045734Y-59032930D01*
X160955394Y-59168134D01*
X160911713Y-59273591D01*
X160814823Y-59233457D01*
X160692142Y-59209054D01*
X160567058Y-59209054D01*
X160444377Y-59233457D01*
X160328815Y-59281325D01*
X160224811Y-59350818D01*
X160136364Y-59439265D01*
X160066871Y-59543269D01*
X160019003Y-59658831D01*
X159994600Y-59781512D01*
X159994600Y-59906596D01*
X160019003Y-60029277D01*
X160066871Y-60144839D01*
X160136364Y-60248843D01*
X160210501Y-60322980D01*
X160210500Y-63478803D01*
X159808304Y-63881000D01*
X159703458Y-63881000D01*
X159580777Y-63905403D01*
X159465215Y-63953271D01*
X159361211Y-64022764D01*
X159272764Y-64111211D01*
X159203271Y-64215215D01*
X159155403Y-64330777D01*
X159131000Y-64453458D01*
X159131000Y-64578542D01*
X159155403Y-64701223D01*
X159203271Y-64816785D01*
X159272764Y-64920789D01*
X159361211Y-65009236D01*
X159465215Y-65078729D01*
X159580777Y-65126597D01*
X159703458Y-65151000D01*
X159828542Y-65151000D01*
X159948964Y-65127046D01*
X159948964Y-65978001D01*
X159955094Y-66040242D01*
X159973249Y-66100091D01*
X160002731Y-66155248D01*
X160042407Y-66203594D01*
X160072755Y-66228500D01*
X159273873Y-66228500D01*
X159194498Y-66307875D01*
X159194498Y-67480500D01*
X160417123Y-67480500D01*
X160496498Y-67401125D01*
X160496498Y-66707087D01*
X160507053Y-66719949D01*
X160526430Y-66735851D01*
X161587147Y-67796569D01*
X161603050Y-67815947D01*
X161622427Y-67831849D01*
X161680402Y-67879428D01*
X161764578Y-67924421D01*
X161768655Y-67926600D01*
X161864413Y-67955648D01*
X161939051Y-67962999D01*
X161939053Y-67962999D01*
X161963997Y-67965456D01*
X161988941Y-67962999D01*
X165002734Y-67962999D01*
X165013279Y-67997760D01*
X165065864Y-68096139D01*
X165136630Y-68182369D01*
X165222860Y-68253135D01*
X165227000Y-68255348D01*
X165227001Y-69773964D01*
X163787002Y-69773964D01*
X163724761Y-69780094D01*
X163664912Y-69798249D01*
X163609755Y-69827731D01*
X163561409Y-69867407D01*
X163521733Y-69915753D01*
X163492251Y-69970910D01*
X163474096Y-70030759D01*
X163467966Y-70093000D01*
X163467966Y-70485000D01*
X163430946Y-70485000D01*
X163406002Y-70482543D01*
X163381058Y-70485000D01*
X163381055Y-70485000D01*
X163306417Y-70492351D01*
X163210659Y-70521399D01*
X163122407Y-70568571D01*
X163045054Y-70632052D01*
X163029149Y-70651433D01*
X161417582Y-72263000D01*
X160498034Y-72263000D01*
X160498034Y-71895999D01*
X160487100Y-71784986D01*
X160454719Y-71678239D01*
X160402134Y-71579860D01*
X160331368Y-71493630D01*
X160245138Y-71422864D01*
X160146759Y-71370279D01*
X160040012Y-71337898D01*
X159928999Y-71326964D01*
X158078997Y-71326964D01*
X157967984Y-71337898D01*
X157861237Y-71370279D01*
X157762858Y-71422864D01*
X157676628Y-71493630D01*
X157605862Y-71579860D01*
X157553277Y-71678239D01*
X157520896Y-71784986D01*
X157509962Y-71895999D01*
X157509962Y-72136000D01*
X157309420Y-72136000D01*
X156840855Y-71667435D01*
X156824948Y-71648052D01*
X156805565Y-71632145D01*
X156186856Y-71013436D01*
X156170949Y-70994053D01*
X156093596Y-70930572D01*
X156005344Y-70883400D01*
X155909586Y-70854352D01*
X155834948Y-70847001D01*
X155834945Y-70847001D01*
X155810001Y-70844544D01*
X155785057Y-70847001D01*
X155749074Y-70847001D01*
X155727089Y-70835250D01*
X155667240Y-70817095D01*
X155604999Y-70810965D01*
X153854999Y-70810965D01*
X153792758Y-70817095D01*
X153732909Y-70835250D01*
X153710924Y-70847001D01*
X153118420Y-70847001D01*
X152908000Y-70636581D01*
X152908000Y-69465635D01*
X152954017Y-69461103D01*
X153060764Y-69428722D01*
X153159143Y-69376137D01*
X153245373Y-69305371D01*
X153316139Y-69219141D01*
X153368724Y-69120762D01*
X153401105Y-69014015D01*
X153412039Y-68903002D01*
X153412039Y-68722876D01*
X153675503Y-68722876D01*
X153675503Y-69184272D01*
X153687704Y-69245612D01*
X153711638Y-69303394D01*
X153746385Y-69355395D01*
X153790609Y-69399619D01*
X153842610Y-69434366D01*
X153900392Y-69458300D01*
X153961732Y-69470501D01*
X154298128Y-69470501D01*
X154377503Y-69391126D01*
X154377503Y-68643501D01*
X153754878Y-68643501D01*
X153675503Y-68722876D01*
X153412039Y-68722876D01*
X153412039Y-68003000D01*
X153401105Y-67891987D01*
X153368724Y-67785240D01*
X153334777Y-67721730D01*
X153675503Y-67721730D01*
X153675503Y-68183126D01*
X153754878Y-68262501D01*
X154377503Y-68262501D01*
X154377503Y-67514876D01*
X154298128Y-67435501D01*
X153961732Y-67435501D01*
X153900392Y-67447702D01*
X153842610Y-67471636D01*
X153790609Y-67506383D01*
X153746385Y-67550607D01*
X153711638Y-67602608D01*
X153687704Y-67660390D01*
X153675503Y-67721730D01*
X153334777Y-67721730D01*
X153316139Y-67686861D01*
X153245373Y-67600631D01*
X153159143Y-67529865D01*
X153060764Y-67477280D01*
X152954017Y-67444899D01*
X152843004Y-67433965D01*
X152193002Y-67433965D01*
X152081989Y-67444899D01*
X151975242Y-67477280D01*
X151876863Y-67529865D01*
X151790633Y-67600631D01*
X151719867Y-67686861D01*
X151667282Y-67785240D01*
X151634901Y-67891987D01*
X151623967Y-68003000D01*
X144194636Y-68003000D01*
X144169084Y-67874544D01*
X144107460Y-67725768D01*
X144017994Y-67591874D01*
X143904126Y-67478006D01*
X143770232Y-67388540D01*
X143621456Y-67326916D01*
X143463517Y-67295500D01*
X143302483Y-67295500D01*
X143144544Y-67326916D01*
X142995768Y-67388540D01*
X142861874Y-67478006D01*
X142748006Y-67591874D01*
X142658540Y-67725768D01*
X142596916Y-67874544D01*
X142565500Y-68032483D01*
X137654500Y-68032483D01*
X137654500Y-63632483D01*
X142565500Y-63632483D01*
X142565500Y-63793517D01*
X142596916Y-63951456D01*
X142658540Y-64100232D01*
X142748006Y-64234126D01*
X142861874Y-64347994D01*
X142995768Y-64437460D01*
X143144544Y-64499084D01*
X143302483Y-64530500D01*
X143463517Y-64530500D01*
X143621456Y-64499084D01*
X143770232Y-64437460D01*
X143904126Y-64347994D01*
X144017994Y-64234126D01*
X144107460Y-64100232D01*
X144169084Y-63951456D01*
X144200500Y-63793517D01*
X144200500Y-63632483D01*
X144169084Y-63474544D01*
X144107460Y-63325768D01*
X144017994Y-63191874D01*
X143904126Y-63078006D01*
X143770232Y-62988540D01*
X143621456Y-62926916D01*
X143463517Y-62895500D01*
X143302483Y-62895500D01*
X143144544Y-62926916D01*
X142995768Y-62988540D01*
X142861874Y-63078006D01*
X142748006Y-63191874D01*
X142658540Y-63325768D01*
X142596916Y-63474544D01*
X142565500Y-63632483D01*
X137654500Y-63632483D01*
X137654500Y-57724000D01*
X137950964Y-57724000D01*
X137950964Y-58224000D01*
X137961898Y-58335013D01*
X137994279Y-58441761D01*
X138046864Y-58540139D01*
X138117631Y-58626369D01*
X138203861Y-58697136D01*
X138302239Y-58749721D01*
X138408987Y-58782102D01*
X138520000Y-58793036D01*
X140720000Y-58793036D01*
X140831013Y-58782102D01*
X140937761Y-58749721D01*
X141036139Y-58697136D01*
X141122369Y-58626369D01*
X141193136Y-58540139D01*
X141245721Y-58441761D01*
X141278102Y-58335013D01*
X141289036Y-58224000D01*
X141289036Y-57724000D01*
X141278102Y-57612987D01*
X141245721Y-57506239D01*
X141193136Y-57407861D01*
X141122369Y-57321631D01*
X141036139Y-57250864D01*
X140937761Y-57198279D01*
X140831013Y-57165898D01*
X140720000Y-57154964D01*
X138520000Y-57154964D01*
X138408987Y-57165898D01*
X138302239Y-57198279D01*
X138203861Y-57250864D01*
X138117631Y-57321631D01*
X138046864Y-57407861D01*
X137994279Y-57506239D01*
X137961898Y-57612987D01*
X137950964Y-57724000D01*
X137654500Y-57724000D01*
X137654500Y-55974000D01*
X141650964Y-55974000D01*
X141650964Y-56274000D01*
X141659976Y-56365504D01*
X141686667Y-56453492D01*
X141730011Y-56534582D01*
X141788341Y-56605659D01*
X141859418Y-56663989D01*
X141940508Y-56707333D01*
X142028496Y-56734024D01*
X142120000Y-56743036D01*
X143520000Y-56743036D01*
X143611504Y-56734024D01*
X143699492Y-56707333D01*
X143780582Y-56663989D01*
X143851659Y-56605659D01*
X143872080Y-56580776D01*
X154782341Y-67491038D01*
X154758503Y-67514876D01*
X154758503Y-68262501D01*
X154778503Y-68262501D01*
X154778503Y-68643501D01*
X154758503Y-68643501D01*
X154758503Y-69391126D01*
X154837878Y-69470501D01*
X155174274Y-69470501D01*
X155235614Y-69458300D01*
X155293396Y-69434366D01*
X155345397Y-69399619D01*
X155389621Y-69355395D01*
X155409901Y-69325045D01*
X155409901Y-69702410D01*
X155407873Y-69723000D01*
X155415965Y-69805157D01*
X155439930Y-69884158D01*
X155474698Y-69949203D01*
X155478847Y-69956966D01*
X155531219Y-70020782D01*
X155547206Y-70033902D01*
X155834501Y-70321198D01*
X155853403Y-70416223D01*
X155901271Y-70531785D01*
X155970764Y-70635789D01*
X156059211Y-70724236D01*
X156163215Y-70793729D01*
X156278777Y-70841597D01*
X156401458Y-70866000D01*
X156526542Y-70866000D01*
X156649223Y-70841597D01*
X156764785Y-70793729D01*
X156868789Y-70724236D01*
X156957236Y-70635789D01*
X157026729Y-70531785D01*
X157074597Y-70416223D01*
X157099000Y-70293542D01*
X157099000Y-70168458D01*
X157074597Y-70045777D01*
X157026729Y-69930215D01*
X156957236Y-69826211D01*
X156868789Y-69737764D01*
X156764785Y-69668271D01*
X156649223Y-69620403D01*
X156526542Y-69596000D01*
X156401458Y-69596000D01*
X156312409Y-69613713D01*
X156248100Y-69549404D01*
X156248100Y-68923890D01*
X156278777Y-68936597D01*
X156401458Y-68961000D01*
X156526542Y-68961000D01*
X156649223Y-68936597D01*
X156764785Y-68888729D01*
X156868789Y-68819236D01*
X156957236Y-68730789D01*
X157026729Y-68626785D01*
X157074597Y-68511223D01*
X157099000Y-68388542D01*
X157099000Y-68263458D01*
X157074597Y-68140777D01*
X157026729Y-68025215D01*
X156970376Y-67940875D01*
X157511498Y-67940875D01*
X157511498Y-68827271D01*
X157523699Y-68888611D01*
X157547633Y-68946393D01*
X157582380Y-68998394D01*
X157626604Y-69042618D01*
X157678605Y-69077365D01*
X157736387Y-69101299D01*
X157797727Y-69113500D01*
X158734123Y-69113500D01*
X158813498Y-69034125D01*
X158813498Y-67861500D01*
X159194498Y-67861500D01*
X159194498Y-69034125D01*
X159273873Y-69113500D01*
X160210269Y-69113500D01*
X160271609Y-69101299D01*
X160329391Y-69077365D01*
X160381392Y-69042618D01*
X160425616Y-68998394D01*
X160460363Y-68946393D01*
X160484297Y-68888611D01*
X160496498Y-68827271D01*
X160496498Y-67940875D01*
X160417123Y-67861500D01*
X159194498Y-67861500D01*
X158813498Y-67861500D01*
X157590873Y-67861500D01*
X157511498Y-67940875D01*
X156970376Y-67940875D01*
X156957236Y-67921211D01*
X156883100Y-67847075D01*
X156883100Y-67711579D01*
X156885127Y-67690999D01*
X156877035Y-67608842D01*
X156860576Y-67554583D01*
X156853071Y-67529842D01*
X156814154Y-67457034D01*
X156761782Y-67393218D01*
X156745796Y-67380099D01*
X155880426Y-66514729D01*
X157511498Y-66514729D01*
X157511498Y-67401125D01*
X157590873Y-67480500D01*
X158813498Y-67480500D01*
X158813498Y-66307875D01*
X158734123Y-66228500D01*
X157797727Y-66228500D01*
X157736387Y-66240701D01*
X157678605Y-66264635D01*
X157626604Y-66299382D01*
X157582380Y-66343606D01*
X157547633Y-66395607D01*
X157523699Y-66453389D01*
X157511498Y-66514729D01*
X155880426Y-66514729D01*
X152692100Y-63326404D01*
X152692100Y-61819925D01*
X152766236Y-61745789D01*
X152835729Y-61641785D01*
X152883597Y-61526223D01*
X152908000Y-61403542D01*
X152908000Y-61278458D01*
X152883597Y-61155777D01*
X152835729Y-61040215D01*
X152766236Y-60936211D01*
X152677789Y-60847764D01*
X152573785Y-60778271D01*
X152458223Y-60730403D01*
X152335542Y-60706000D01*
X152210458Y-60706000D01*
X152087777Y-60730403D01*
X151972215Y-60778271D01*
X151868211Y-60847764D01*
X151779764Y-60936211D01*
X151710271Y-61040215D01*
X151662403Y-61155777D01*
X151638000Y-61278458D01*
X151638000Y-61403542D01*
X151662403Y-61526223D01*
X151710271Y-61641785D01*
X151779764Y-61745789D01*
X151853900Y-61819925D01*
X151853901Y-63377204D01*
X144318907Y-55842211D01*
X144305782Y-55826218D01*
X144241966Y-55773846D01*
X144169158Y-55734929D01*
X144090158Y-55710965D01*
X144028580Y-55704900D01*
X144008000Y-55702873D01*
X143987420Y-55704900D01*
X143902999Y-55704900D01*
X143851659Y-55642341D01*
X143780582Y-55584011D01*
X143699492Y-55540667D01*
X143611504Y-55513976D01*
X143520000Y-55504964D01*
X142120000Y-55504964D01*
X142028496Y-55513976D01*
X141940508Y-55540667D01*
X141859418Y-55584011D01*
X141788341Y-55642341D01*
X141730011Y-55713418D01*
X141686667Y-55794508D01*
X141659976Y-55882496D01*
X141650964Y-55974000D01*
X137654500Y-55974000D01*
X137654500Y-55103375D01*
X141652500Y-55103375D01*
X141652500Y-55205271D01*
X141664701Y-55266611D01*
X141688635Y-55324393D01*
X141723382Y-55376394D01*
X141767606Y-55420618D01*
X141819607Y-55455365D01*
X141877389Y-55479299D01*
X141938729Y-55491500D01*
X142550125Y-55491500D01*
X142629500Y-55412125D01*
X142629500Y-55024000D01*
X143010500Y-55024000D01*
X143010500Y-55412125D01*
X143089875Y-55491500D01*
X143701271Y-55491500D01*
X143762611Y-55479299D01*
X143820393Y-55455365D01*
X143872394Y-55420618D01*
X143916618Y-55376394D01*
X143951365Y-55324393D01*
X143975299Y-55266611D01*
X143987500Y-55205271D01*
X143987500Y-55103375D01*
X143908125Y-55024000D01*
X143010500Y-55024000D01*
X142629500Y-55024000D01*
X141731875Y-55024000D01*
X141652500Y-55103375D01*
X137654500Y-55103375D01*
X137654500Y-54542729D01*
X141652500Y-54542729D01*
X141652500Y-54644625D01*
X141731875Y-54724000D01*
X142629500Y-54724000D01*
X142629500Y-54335875D01*
X143010500Y-54335875D01*
X143010500Y-54724000D01*
X143908125Y-54724000D01*
X143987500Y-54644625D01*
X143987500Y-54542729D01*
X143975299Y-54481389D01*
X143951365Y-54423607D01*
X143916618Y-54371606D01*
X143872394Y-54327382D01*
X143820393Y-54292635D01*
X143762611Y-54268701D01*
X143701271Y-54256500D01*
X143089875Y-54256500D01*
X143010500Y-54335875D01*
X142629500Y-54335875D01*
X142550125Y-54256500D01*
X141938729Y-54256500D01*
X141877389Y-54268701D01*
X141819607Y-54292635D01*
X141767606Y-54327382D01*
X141723382Y-54371606D01*
X141688635Y-54423607D01*
X141664701Y-54481389D01*
X141652500Y-54542729D01*
X137654500Y-54542729D01*
X137654500Y-52774000D01*
X137950964Y-52774000D01*
X137950964Y-53274000D01*
X137961898Y-53385013D01*
X137994279Y-53491761D01*
X138046864Y-53590139D01*
X138117631Y-53676369D01*
X138203861Y-53747136D01*
X138302239Y-53799721D01*
X138408987Y-53832102D01*
X138520000Y-53843036D01*
X140720000Y-53843036D01*
X140831013Y-53832102D01*
X140937761Y-53799721D01*
X141036139Y-53747136D01*
X141122369Y-53676369D01*
X141191569Y-53592048D01*
X149815500Y-53592048D01*
X149815500Y-54087952D01*
X149912246Y-54574328D01*
X150102021Y-55032483D01*
X150377530Y-55444813D01*
X150728187Y-55795470D01*
X151140517Y-56070979D01*
X151598672Y-56260754D01*
X152085048Y-56357500D01*
X152580952Y-56357500D01*
X153067328Y-56260754D01*
X153525483Y-56070979D01*
X153937813Y-55795470D01*
X154288470Y-55444813D01*
X154563979Y-55032483D01*
X154753754Y-54574328D01*
X154850500Y-54087952D01*
X154850500Y-53592048D01*
X169815500Y-53592048D01*
X169815500Y-54087952D01*
X169912246Y-54574328D01*
X170102021Y-55032483D01*
X170377530Y-55444813D01*
X170728187Y-55795470D01*
X171140517Y-56070979D01*
X171598672Y-56260754D01*
X172085048Y-56357500D01*
X172580952Y-56357500D01*
X173067328Y-56260754D01*
X173525483Y-56070979D01*
X173937813Y-55795470D01*
X174288470Y-55444813D01*
X174563979Y-55032483D01*
X174753754Y-54574328D01*
X174850500Y-54087952D01*
X174850500Y-53592048D01*
X174753754Y-53105672D01*
X174616371Y-52774000D01*
X182814964Y-52774000D01*
X182814964Y-53274000D01*
X182825898Y-53385013D01*
X182858279Y-53491761D01*
X182910864Y-53590139D01*
X182981631Y-53676369D01*
X183067861Y-53747136D01*
X183166239Y-53799721D01*
X183272987Y-53832102D01*
X183384000Y-53843036D01*
X185584000Y-53843036D01*
X185695013Y-53832102D01*
X185801761Y-53799721D01*
X185900139Y-53747136D01*
X185986369Y-53676369D01*
X186057136Y-53590139D01*
X186109721Y-53491761D01*
X186142102Y-53385013D01*
X186153036Y-53274000D01*
X186153036Y-52774000D01*
X186142102Y-52662987D01*
X186109721Y-52556239D01*
X186057136Y-52457861D01*
X185986369Y-52371631D01*
X185900139Y-52300864D01*
X185801761Y-52248279D01*
X185695013Y-52215898D01*
X185584000Y-52204964D01*
X183384000Y-52204964D01*
X183272987Y-52215898D01*
X183166239Y-52248279D01*
X183067861Y-52300864D01*
X182981631Y-52371631D01*
X182910864Y-52457861D01*
X182858279Y-52556239D01*
X182825898Y-52662987D01*
X182814964Y-52774000D01*
X174616371Y-52774000D01*
X174563979Y-52647517D01*
X174288470Y-52235187D01*
X173937813Y-51884530D01*
X173525483Y-51609021D01*
X173067328Y-51419246D01*
X172580952Y-51322500D01*
X172085048Y-51322500D01*
X171598672Y-51419246D01*
X171140517Y-51609021D01*
X170728187Y-51884530D01*
X170377530Y-52235187D01*
X170102021Y-52647517D01*
X169912246Y-53105672D01*
X169815500Y-53592048D01*
X154850500Y-53592048D01*
X154753754Y-53105672D01*
X154563979Y-52647517D01*
X154288470Y-52235187D01*
X153937813Y-51884530D01*
X153525483Y-51609021D01*
X153067328Y-51419246D01*
X152580952Y-51322500D01*
X152085048Y-51322500D01*
X151598672Y-51419246D01*
X151140517Y-51609021D01*
X150728187Y-51884530D01*
X150377530Y-52235187D01*
X150102021Y-52647517D01*
X149912246Y-53105672D01*
X149815500Y-53592048D01*
X141191569Y-53592048D01*
X141193136Y-53590139D01*
X141245721Y-53491761D01*
X141278102Y-53385013D01*
X141289036Y-53274000D01*
X141289036Y-52774000D01*
X141278102Y-52662987D01*
X141245721Y-52556239D01*
X141193136Y-52457861D01*
X141122369Y-52371631D01*
X141036139Y-52300864D01*
X140937761Y-52248279D01*
X140831013Y-52215898D01*
X140720000Y-52204964D01*
X138520000Y-52204964D01*
X138408987Y-52215898D01*
X138302239Y-52248279D01*
X138203861Y-52300864D01*
X138117631Y-52371631D01*
X138046864Y-52457861D01*
X137994279Y-52556239D01*
X137961898Y-52662987D01*
X137950964Y-52774000D01*
X137654500Y-52774000D01*
X137654500Y-51960975D01*
X137668580Y-51817379D01*
X137705061Y-51696548D01*
X137764319Y-51585100D01*
X137844094Y-51487287D01*
X137941348Y-51406831D01*
X138052380Y-51346796D01*
X138172954Y-51309473D01*
X138315407Y-51294500D01*
X186291025Y-51294500D01*
X186434621Y-51308580D01*
X186434621Y-51308580D01*
G37*
X186434621Y-51308580D02*
X186555452Y-51345061D01*
X186666900Y-51404319D01*
X186764713Y-51484094D01*
X186845169Y-51581348D01*
X186905204Y-51692380D01*
X186942527Y-51812954D01*
X186957501Y-51955416D01*
X186957500Y-79992026D01*
X186943420Y-80135620D01*
X186906939Y-80256453D01*
X186847682Y-80367898D01*
X186767906Y-80465713D01*
X186670650Y-80546171D01*
X186559620Y-80606204D01*
X186439047Y-80643527D01*
X186296592Y-80658500D01*
X138320974Y-80658500D01*
X138177380Y-80644420D01*
X138056547Y-80607939D01*
X137945102Y-80548682D01*
X137847287Y-80468906D01*
X137766829Y-80371650D01*
X137706796Y-80260620D01*
X137669473Y-80140047D01*
X137654500Y-79997592D01*
X137654500Y-78552000D01*
X137950964Y-78552000D01*
X137950964Y-79052000D01*
X137961898Y-79163013D01*
X137994279Y-79269761D01*
X138046864Y-79368139D01*
X138117631Y-79454369D01*
X138203861Y-79525136D01*
X138302239Y-79577721D01*
X138408987Y-79610102D01*
X138520000Y-79621036D01*
X140720000Y-79621036D01*
X140831013Y-79610102D01*
X140937761Y-79577721D01*
X141036139Y-79525136D01*
X141122369Y-79454369D01*
X141193136Y-79368139D01*
X141245721Y-79269761D01*
X141278102Y-79163013D01*
X141289036Y-79052000D01*
X141289036Y-78552000D01*
X141278102Y-78440987D01*
X141245721Y-78334239D01*
X141193136Y-78235861D01*
X141122369Y-78149631D01*
X141036139Y-78078864D01*
X140937761Y-78026279D01*
X140831013Y-77993898D01*
X140720000Y-77982964D01*
X138520000Y-77982964D01*
X138408987Y-77993898D01*
X138302239Y-78026279D01*
X138203861Y-78078864D01*
X138117631Y-78149631D01*
X138046864Y-78235861D01*
X137994279Y-78334239D01*
X137961898Y-78440987D01*
X137950964Y-78552000D01*
X137654500Y-78552000D01*
X137654500Y-75552000D01*
X141650964Y-75552000D01*
X141650964Y-75852000D01*
X141659976Y-75943504D01*
X141686667Y-76031492D01*
X141730011Y-76112582D01*
X141788341Y-76183659D01*
X141859418Y-76241989D01*
X141940508Y-76285333D01*
X142028496Y-76312024D01*
X142120000Y-76321036D01*
X142373151Y-76321036D01*
X142380418Y-76327000D01*
X142373151Y-76332964D01*
X142120000Y-76332964D01*
X142028496Y-76341976D01*
X141940508Y-76368667D01*
X141859418Y-76412011D01*
X141788341Y-76470341D01*
X141730011Y-76541418D01*
X141686667Y-76622508D01*
X141659976Y-76710496D01*
X141650964Y-76802000D01*
X141650964Y-77102000D01*
X141659976Y-77193504D01*
X141686667Y-77281492D01*
X141730011Y-77362582D01*
X141788341Y-77433659D01*
X141859418Y-77491989D01*
X141940508Y-77535333D01*
X142028496Y-77562024D01*
X142120000Y-77571036D01*
X142373151Y-77571036D01*
X142394608Y-77588645D01*
X142526985Y-77659402D01*
X142670622Y-77702974D01*
X142782574Y-77714000D01*
X144200370Y-77714000D01*
X145154521Y-78668152D01*
X145178378Y-78697222D01*
X145294408Y-78792445D01*
X145426785Y-78863202D01*
X145570422Y-78906774D01*
X145682374Y-78917800D01*
X145682376Y-78917800D01*
X145719799Y-78921486D01*
X145757222Y-78917800D01*
X146398390Y-78917800D01*
X146429406Y-78955594D01*
X146477752Y-78995270D01*
X146532909Y-79024752D01*
X146592758Y-79042907D01*
X146654999Y-79049037D01*
X148404999Y-79049037D01*
X148467240Y-79042907D01*
X148527089Y-79024752D01*
X148582246Y-78995270D01*
X148630592Y-78955594D01*
X148670268Y-78907248D01*
X148699750Y-78852091D01*
X148717905Y-78792242D01*
X148724035Y-78730001D01*
X148724035Y-78413104D01*
X148756774Y-78305178D01*
X148771486Y-78155800D01*
X148756774Y-78006422D01*
X148724035Y-77898496D01*
X148724035Y-77630001D01*
X148717905Y-77567760D01*
X148706783Y-77531097D01*
X148710298Y-77522612D01*
X148722499Y-77461272D01*
X148722499Y-77396876D01*
X148643124Y-77317501D01*
X148468578Y-77317501D01*
X148467240Y-77317095D01*
X148404999Y-77310965D01*
X146654999Y-77310965D01*
X146592758Y-77317095D01*
X146591420Y-77317501D01*
X146416874Y-77317501D01*
X146340575Y-77393800D01*
X146035431Y-77393800D01*
X145388507Y-76746876D01*
X146337499Y-76746876D01*
X146337499Y-76811272D01*
X146349700Y-76872612D01*
X146352761Y-76880001D01*
X146349700Y-76887390D01*
X146337499Y-76948730D01*
X146337499Y-77013126D01*
X146416874Y-77092501D01*
X146598591Y-77092501D01*
X146623728Y-77097501D01*
X147260124Y-77097501D01*
X147265124Y-77092501D01*
X147339499Y-77092501D01*
X147339499Y-76667501D01*
X147720499Y-76667501D01*
X147720499Y-77092501D01*
X147794874Y-77092501D01*
X147799874Y-77097501D01*
X148436270Y-77097501D01*
X148461407Y-77092501D01*
X148643124Y-77092501D01*
X148722499Y-77013126D01*
X148722499Y-76948730D01*
X148710298Y-76887390D01*
X148707237Y-76880001D01*
X148710298Y-76872612D01*
X148722499Y-76811272D01*
X148722499Y-76746876D01*
X148643124Y-76667501D01*
X148461407Y-76667501D01*
X148436270Y-76662501D01*
X147799874Y-76662501D01*
X147794874Y-76667501D01*
X147720499Y-76667501D01*
X147339499Y-76667501D01*
X147265124Y-76667501D01*
X147260124Y-76662501D01*
X146623728Y-76662501D01*
X146598591Y-76667501D01*
X146416874Y-76667501D01*
X146337499Y-76746876D01*
X145388507Y-76746876D01*
X145105630Y-76464000D01*
X147045577Y-76464000D01*
X147083000Y-76467686D01*
X147120423Y-76464000D01*
X147856777Y-76464000D01*
X147894200Y-76467686D01*
X147931623Y-76464000D01*
X147931626Y-76464000D01*
X148043578Y-76452974D01*
X148056556Y-76449037D01*
X148404999Y-76449037D01*
X148467240Y-76442907D01*
X148468578Y-76442501D01*
X148643124Y-76442501D01*
X148722499Y-76363126D01*
X148722499Y-76298730D01*
X148710298Y-76237390D01*
X148706783Y-76228905D01*
X148717905Y-76192242D01*
X148724035Y-76130001D01*
X148724035Y-75885267D01*
X148738601Y-75858016D01*
X148782173Y-75714378D01*
X148796886Y-75565001D01*
X148782173Y-75415622D01*
X148738601Y-75271985D01*
X148724035Y-75244734D01*
X148724035Y-75030001D01*
X148717905Y-74967760D01*
X148706451Y-74930000D01*
X148717905Y-74892242D01*
X148724035Y-74830001D01*
X148724035Y-74380001D01*
X148717905Y-74317760D01*
X148706451Y-74280001D01*
X148717905Y-74242242D01*
X148724035Y-74180001D01*
X148724035Y-73730001D01*
X148717905Y-73667760D01*
X148706783Y-73631097D01*
X148710298Y-73622612D01*
X148722499Y-73561272D01*
X148722499Y-73496876D01*
X148643124Y-73417501D01*
X148468578Y-73417501D01*
X148467240Y-73417095D01*
X148404999Y-73410965D01*
X146654999Y-73410965D01*
X146592758Y-73417095D01*
X146591420Y-73417501D01*
X146416874Y-73417501D01*
X146337499Y-73496876D01*
X146337499Y-73561272D01*
X146349700Y-73622612D01*
X146353215Y-73631097D01*
X146342093Y-73667760D01*
X146335963Y-73730001D01*
X146335963Y-74180001D01*
X146342093Y-74242242D01*
X146353547Y-74280001D01*
X146342093Y-74317760D01*
X146335963Y-74380001D01*
X146335963Y-74830001D01*
X146342093Y-74892242D01*
X146353547Y-74930000D01*
X146350514Y-74940000D01*
X142782574Y-74940000D01*
X142670622Y-74951026D01*
X142526985Y-74994598D01*
X142394608Y-75065355D01*
X142373151Y-75082964D01*
X142120000Y-75082964D01*
X142028496Y-75091976D01*
X141940508Y-75118667D01*
X141859418Y-75162011D01*
X141788341Y-75220341D01*
X141730011Y-75291418D01*
X141686667Y-75372508D01*
X141659976Y-75460496D01*
X141650964Y-75552000D01*
X137654500Y-75552000D01*
X137654500Y-73602000D01*
X137950964Y-73602000D01*
X137950964Y-74102000D01*
X137961898Y-74213013D01*
X137994279Y-74319761D01*
X138046864Y-74418139D01*
X138117631Y-74504369D01*
X138203861Y-74575136D01*
X138302239Y-74627721D01*
X138408987Y-74660102D01*
X138520000Y-74671036D01*
X140720000Y-74671036D01*
X140831013Y-74660102D01*
X140937761Y-74627721D01*
X141036139Y-74575136D01*
X141122369Y-74504369D01*
X141193136Y-74418139D01*
X141245721Y-74319761D01*
X141278102Y-74213013D01*
X141289036Y-74102000D01*
X141289036Y-73602000D01*
X141278102Y-73490987D01*
X141245721Y-73384239D01*
X141193136Y-73285861D01*
X141122369Y-73199631D01*
X141036139Y-73128864D01*
X140937761Y-73076279D01*
X140831013Y-73043898D01*
X140720000Y-73032964D01*
X138520000Y-73032964D01*
X138408987Y-73043898D01*
X138302239Y-73076279D01*
X138203861Y-73128864D01*
X138117631Y-73199631D01*
X138046864Y-73285861D01*
X137994279Y-73384239D01*
X137961898Y-73490987D01*
X137950964Y-73602000D01*
X137654500Y-73602000D01*
X137654500Y-72846876D01*
X146337499Y-72846876D01*
X146337499Y-72911272D01*
X146349700Y-72972612D01*
X146352761Y-72980001D01*
X146349700Y-72987390D01*
X146337499Y-73048730D01*
X146337499Y-73113126D01*
X146416874Y-73192501D01*
X146598591Y-73192501D01*
X146623728Y-73197501D01*
X147260124Y-73197501D01*
X147265124Y-73192501D01*
X147339499Y-73192501D01*
X147339499Y-72767501D01*
X147720499Y-72767501D01*
X147720499Y-73192501D01*
X147794874Y-73192501D01*
X147799874Y-73197501D01*
X148436270Y-73197501D01*
X148461407Y-73192501D01*
X148643124Y-73192501D01*
X148722499Y-73113126D01*
X148722499Y-73048730D01*
X148710298Y-72987390D01*
X148707237Y-72980001D01*
X148710298Y-72972612D01*
X148722499Y-72911272D01*
X148722499Y-72846876D01*
X148643124Y-72767501D01*
X148461407Y-72767501D01*
X148436270Y-72762501D01*
X147799874Y-72762501D01*
X147794874Y-72767501D01*
X147720499Y-72767501D01*
X147339499Y-72767501D01*
X147265124Y-72767501D01*
X147260124Y-72762501D01*
X146623728Y-72762501D01*
X146598591Y-72767501D01*
X146416874Y-72767501D01*
X146337499Y-72846876D01*
X137654500Y-72846876D01*
X137654500Y-71130001D01*
X146335963Y-71130001D01*
X146335963Y-71580001D01*
X146342093Y-71642242D01*
X146353547Y-71680001D01*
X146342093Y-71717760D01*
X146335963Y-71780001D01*
X146335963Y-72230001D01*
X146342093Y-72292242D01*
X146353215Y-72328905D01*
X146349700Y-72337390D01*
X146337499Y-72398730D01*
X146337499Y-72463126D01*
X146416874Y-72542501D01*
X146591420Y-72542501D01*
X146592758Y-72542907D01*
X146654999Y-72549037D01*
X148404999Y-72549037D01*
X148467240Y-72542907D01*
X148468578Y-72542501D01*
X148643124Y-72542501D01*
X148722499Y-72463126D01*
X148722499Y-72398730D01*
X148710298Y-72337390D01*
X148706783Y-72328905D01*
X148717905Y-72292242D01*
X148724035Y-72230001D01*
X148724035Y-71780001D01*
X148717905Y-71717760D01*
X148706451Y-71680001D01*
X148717905Y-71642242D01*
X148724035Y-71580001D01*
X148724035Y-71130001D01*
X148717905Y-71067760D01*
X148699750Y-71007911D01*
X148670268Y-70952754D01*
X148630592Y-70904408D01*
X148582246Y-70864732D01*
X148527089Y-70835250D01*
X148467240Y-70817095D01*
X148404999Y-70810965D01*
X146654999Y-70810965D01*
X146592758Y-70817095D01*
X146532909Y-70835250D01*
X146477752Y-70864732D01*
X146429406Y-70904408D01*
X146389730Y-70952754D01*
X146360248Y-71007911D01*
X146342093Y-71067760D01*
X146335963Y-71130001D01*
X137654500Y-71130001D01*
X137654500Y-68032483D01*
X142565500Y-68032483D01*
X142565500Y-68193517D01*
X142596916Y-68351456D01*
X142658540Y-68500232D01*
X142748006Y-68634126D01*
X142861874Y-68747994D01*
X142995768Y-68837460D01*
X143144544Y-68899084D01*
X143302483Y-68930500D01*
X143463517Y-68930500D01*
X143621456Y-68899084D01*
X143770232Y-68837460D01*
X143904126Y-68747994D01*
X144017994Y-68634126D01*
X144107460Y-68500232D01*
X144169084Y-68351456D01*
X144200500Y-68193517D01*
X144200500Y-68032483D01*
X144194636Y-68003000D01*
X151623967Y-68003000D01*
X151623967Y-68903002D01*
X151634901Y-69014015D01*
X151667282Y-69120762D01*
X151719867Y-69219141D01*
X151790633Y-69305371D01*
X151876863Y-69376137D01*
X151892001Y-69384228D01*
X151892000Y-70841053D01*
X151889543Y-70866000D01*
X151892001Y-70890956D01*
X151892000Y-71349053D01*
X151889543Y-71374000D01*
X151892000Y-71398944D01*
X151892000Y-71603053D01*
X151889543Y-71628000D01*
X151892000Y-71652946D01*
X151892000Y-71984053D01*
X151889543Y-72009000D01*
X151892001Y-72033956D01*
X151892000Y-72492053D01*
X151889543Y-72517000D01*
X151892000Y-72541944D01*
X151892000Y-72541946D01*
X151892001Y-72541956D01*
X151892000Y-77406058D01*
X151889543Y-77431002D01*
X151892000Y-77455946D01*
X151892000Y-77455948D01*
X151899351Y-77530586D01*
X151928399Y-77626344D01*
X151975571Y-77714597D01*
X152039052Y-77791950D01*
X152058435Y-77807857D01*
X153097149Y-78846572D01*
X153113051Y-78865949D01*
X153132428Y-78881851D01*
X153190403Y-78929430D01*
X153237575Y-78954644D01*
X153278656Y-78976602D01*
X153374414Y-79005650D01*
X153449052Y-79013001D01*
X153449055Y-79013001D01*
X153473999Y-79015458D01*
X153498943Y-79013001D01*
X153710924Y-79013001D01*
X153732909Y-79024752D01*
X153792758Y-79042907D01*
X153854999Y-79049037D01*
X155575000Y-79049037D01*
X155575000Y-79056542D01*
X155599403Y-79179223D01*
X155647271Y-79294785D01*
X155716764Y-79398789D01*
X155805211Y-79487236D01*
X155909215Y-79556729D01*
X156024777Y-79604597D01*
X156147458Y-79629000D01*
X156272542Y-79629000D01*
X156395223Y-79604597D01*
X156510785Y-79556729D01*
X156614789Y-79487236D01*
X156688925Y-79413100D01*
X162920420Y-79413100D01*
X162941000Y-79415127D01*
X162961580Y-79413100D01*
X163023158Y-79407035D01*
X163102158Y-79383071D01*
X163174966Y-79344154D01*
X163238782Y-79291782D01*
X163251907Y-79275789D01*
X165057697Y-77470000D01*
X165162542Y-77470000D01*
X165285223Y-77445597D01*
X165400785Y-77397729D01*
X165504789Y-77328236D01*
X165593236Y-77239789D01*
X165662729Y-77135785D01*
X165710597Y-77020223D01*
X165735000Y-76897542D01*
X165735000Y-76772458D01*
X165710597Y-76649777D01*
X165662729Y-76534215D01*
X165593236Y-76430211D01*
X165504789Y-76341764D01*
X165400785Y-76272271D01*
X165285223Y-76224403D01*
X165162542Y-76200000D01*
X165037458Y-76200000D01*
X164914777Y-76224403D01*
X164799215Y-76272271D01*
X164695211Y-76341764D01*
X164655512Y-76381463D01*
X164592682Y-76318633D01*
X164488678Y-76249140D01*
X164373116Y-76201272D01*
X164250435Y-76176869D01*
X164125351Y-76176869D01*
X164002670Y-76201272D01*
X163960597Y-76218700D01*
X163929553Y-76172239D01*
X163841106Y-76083792D01*
X163737102Y-76014299D01*
X163621540Y-75966431D01*
X163498859Y-75942028D01*
X163373775Y-75942028D01*
X163251094Y-75966431D01*
X163135532Y-76014299D01*
X163031528Y-76083792D01*
X162943081Y-76172239D01*
X162873588Y-76276243D01*
X162825720Y-76391805D01*
X162801317Y-76514486D01*
X162801317Y-76619331D01*
X161998759Y-77421890D01*
X161278456Y-77421890D01*
X161336785Y-77397729D01*
X161440789Y-77328236D01*
X161529236Y-77239789D01*
X161598729Y-77135785D01*
X161646597Y-77020223D01*
X161671000Y-76897542D01*
X161671000Y-76772458D01*
X161646597Y-76649777D01*
X161598729Y-76534215D01*
X161529236Y-76430211D01*
X161440789Y-76341764D01*
X161336785Y-76272271D01*
X161221223Y-76224403D01*
X161098542Y-76200000D01*
X160973458Y-76200000D01*
X160850777Y-76224403D01*
X160735215Y-76272271D01*
X160631211Y-76341764D01*
X160557075Y-76415900D01*
X160153890Y-76415900D01*
X160166597Y-76385223D01*
X160191000Y-76262542D01*
X160191000Y-76137458D01*
X160166597Y-76014777D01*
X160118729Y-75899215D01*
X160049236Y-75795211D01*
X159960789Y-75706764D01*
X159911905Y-75674101D01*
X163357355Y-75674101D01*
X163377935Y-75676128D01*
X163398515Y-75674101D01*
X163460093Y-75668036D01*
X163539093Y-75644072D01*
X163611901Y-75605155D01*
X163675717Y-75552783D01*
X163688842Y-75536790D01*
X164803633Y-74422000D01*
X164908478Y-74422000D01*
X165031159Y-74397597D01*
X165146721Y-74349729D01*
X165250725Y-74280236D01*
X165339172Y-74191789D01*
X165408665Y-74087785D01*
X165456533Y-73972223D01*
X165480936Y-73849542D01*
X165480936Y-73724458D01*
X165456533Y-73601777D01*
X165408665Y-73486215D01*
X165339172Y-73382211D01*
X165250725Y-73293764D01*
X165146721Y-73224271D01*
X165031159Y-73176403D01*
X164908478Y-73152000D01*
X164783394Y-73152000D01*
X164660713Y-73176403D01*
X164545151Y-73224271D01*
X164441147Y-73293764D01*
X164352700Y-73382211D01*
X164283207Y-73486215D01*
X164235339Y-73601777D01*
X164210936Y-73724458D01*
X164210936Y-73829303D01*
X163204339Y-74835901D01*
X155922499Y-74835901D01*
X155922499Y-74796876D01*
X155843124Y-74717501D01*
X155668578Y-74717501D01*
X155667240Y-74717095D01*
X155604999Y-74710965D01*
X153854999Y-74710965D01*
X153792758Y-74717095D01*
X153791420Y-74717501D01*
X153616874Y-74717501D01*
X153537499Y-74796876D01*
X153537499Y-74861272D01*
X153549700Y-74922612D01*
X153553215Y-74931097D01*
X153542093Y-74967760D01*
X153535963Y-75030001D01*
X153535963Y-75480001D01*
X153542093Y-75542242D01*
X153553547Y-75580001D01*
X153542093Y-75617760D01*
X153535963Y-75680001D01*
X153535963Y-76130001D01*
X153542093Y-76192242D01*
X153553547Y-76230001D01*
X153542093Y-76267760D01*
X153535963Y-76330001D01*
X153535963Y-76780001D01*
X153542093Y-76842242D01*
X153553547Y-76880001D01*
X153542093Y-76917760D01*
X153535963Y-76980001D01*
X153535963Y-77430001D01*
X153542093Y-77492242D01*
X153553547Y-77530001D01*
X153542093Y-77567760D01*
X153535963Y-77630001D01*
X153535963Y-77848544D01*
X152908000Y-77220582D01*
X152908000Y-72727420D01*
X153118421Y-72517000D01*
X153445056Y-72517000D01*
X153470000Y-72519457D01*
X153494944Y-72517000D01*
X153494947Y-72517000D01*
X153535551Y-72513001D01*
X153535963Y-72513001D01*
X153535963Y-72880001D01*
X153542093Y-72942242D01*
X153553547Y-72980001D01*
X153542093Y-73017760D01*
X153535963Y-73080001D01*
X153535963Y-73530001D01*
X153542093Y-73592242D01*
X153553547Y-73630001D01*
X153542093Y-73667760D01*
X153535963Y-73730001D01*
X153535963Y-74180001D01*
X153542093Y-74242242D01*
X153553215Y-74278905D01*
X153549700Y-74287390D01*
X153537499Y-74348730D01*
X153537499Y-74413126D01*
X153616874Y-74492501D01*
X153791420Y-74492501D01*
X153792758Y-74492907D01*
X153854999Y-74499037D01*
X155604999Y-74499037D01*
X155667240Y-74492907D01*
X155668578Y-74492501D01*
X155843124Y-74492501D01*
X155922499Y-74413126D01*
X155922499Y-74348730D01*
X155910298Y-74287390D01*
X155906783Y-74278905D01*
X155917905Y-74242242D01*
X155924035Y-74180001D01*
X155924035Y-73730001D01*
X155917905Y-73667760D01*
X155906451Y-73630001D01*
X155917905Y-73592242D01*
X155924035Y-73530001D01*
X155924035Y-73080001D01*
X155917905Y-73017760D01*
X155906451Y-72980001D01*
X155917905Y-72942242D01*
X155924035Y-72880001D01*
X155924035Y-72517000D01*
X155931055Y-72517000D01*
X155955999Y-72519457D01*
X155980943Y-72517000D01*
X156253580Y-72517000D01*
X156722145Y-72985565D01*
X156738052Y-73004948D01*
X156815405Y-73068429D01*
X156903657Y-73115601D01*
X156999415Y-73144649D01*
X157074053Y-73152000D01*
X157074056Y-73152000D01*
X157099000Y-73154457D01*
X157123944Y-73152000D01*
X157509962Y-73152000D01*
X157509962Y-73646001D01*
X157520896Y-73757014D01*
X157553277Y-73863761D01*
X157605862Y-73962140D01*
X157676628Y-74048370D01*
X157762858Y-74119136D01*
X157861237Y-74171721D01*
X157967984Y-74204102D01*
X158078997Y-74215036D01*
X159928999Y-74215036D01*
X160040012Y-74204102D01*
X160146759Y-74171721D01*
X160245138Y-74119136D01*
X160331368Y-74048370D01*
X160402134Y-73962140D01*
X160454719Y-73863761D01*
X160487100Y-73757014D01*
X160498034Y-73646001D01*
X160498034Y-73279000D01*
X161603058Y-73279000D01*
X161628002Y-73281457D01*
X161652946Y-73279000D01*
X161652949Y-73279000D01*
X161727587Y-73271649D01*
X161823345Y-73242601D01*
X161911597Y-73195429D01*
X161988950Y-73131948D01*
X162004857Y-73112565D01*
X163467966Y-71649456D01*
X163467966Y-71893000D01*
X163474096Y-71955241D01*
X163492251Y-72015090D01*
X163521733Y-72070247D01*
X163561409Y-72118593D01*
X163609755Y-72158269D01*
X163664912Y-72187751D01*
X163724761Y-72205906D01*
X163787002Y-72212036D01*
X166287002Y-72212036D01*
X166349243Y-72205906D01*
X166409092Y-72187751D01*
X166464249Y-72158269D01*
X166512595Y-72118593D01*
X166552271Y-72070247D01*
X166581753Y-72015090D01*
X166599908Y-71955241D01*
X166606038Y-71893000D01*
X166606038Y-70093000D01*
X167467966Y-70093000D01*
X167467966Y-71893000D01*
X167474096Y-71955241D01*
X167492251Y-72015090D01*
X167521733Y-72070247D01*
X167561409Y-72118593D01*
X167609755Y-72158269D01*
X167664912Y-72187751D01*
X167724761Y-72205906D01*
X167787002Y-72212036D01*
X169112063Y-72212036D01*
X169109271Y-72216215D01*
X169061403Y-72331777D01*
X169037000Y-72454458D01*
X169037000Y-72579542D01*
X169061403Y-72702223D01*
X169109271Y-72817785D01*
X169178764Y-72921789D01*
X169267211Y-73010236D01*
X169371215Y-73079729D01*
X169486777Y-73127597D01*
X169609458Y-73152000D01*
X169714304Y-73152000D01*
X170250097Y-73687794D01*
X170263218Y-73703782D01*
X170327034Y-73756154D01*
X170399842Y-73795071D01*
X170478842Y-73819035D01*
X170561000Y-73827127D01*
X170581580Y-73825100D01*
X180700420Y-73825100D01*
X180721000Y-73827127D01*
X180741580Y-73825100D01*
X180803158Y-73819035D01*
X180882158Y-73795071D01*
X180954966Y-73756154D01*
X181018782Y-73703782D01*
X181031907Y-73687789D01*
X182907794Y-71811903D01*
X182923782Y-71798782D01*
X182976154Y-71734966D01*
X183015071Y-71662158D01*
X183039035Y-71583158D01*
X183045100Y-71521580D01*
X183047127Y-71501000D01*
X183045100Y-71480420D01*
X183045100Y-58678457D01*
X183067861Y-58697136D01*
X183166239Y-58749721D01*
X183272987Y-58782102D01*
X183384000Y-58793036D01*
X185584000Y-58793036D01*
X185695013Y-58782102D01*
X185801001Y-58749952D01*
X185801000Y-73195579D01*
X184066580Y-74930000D01*
X180485385Y-74930000D01*
X180473208Y-74911775D01*
X180358225Y-74796792D01*
X180223021Y-74706452D01*
X180072789Y-74644224D01*
X179913305Y-74612500D01*
X179750695Y-74612500D01*
X179591211Y-74644224D01*
X179440979Y-74706452D01*
X179305775Y-74796792D01*
X179190792Y-74911775D01*
X179100452Y-75046979D01*
X179038224Y-75197211D01*
X179006500Y-75356695D01*
X179006500Y-75519305D01*
X179038224Y-75678789D01*
X179100452Y-75829021D01*
X179190792Y-75964225D01*
X179305775Y-76079208D01*
X179440979Y-76169548D01*
X179591211Y-76231776D01*
X179750695Y-76263500D01*
X179913305Y-76263500D01*
X180072789Y-76231776D01*
X180223021Y-76169548D01*
X180358225Y-76079208D01*
X180473208Y-75964225D01*
X180485385Y-75946000D01*
X184252056Y-75946000D01*
X184277000Y-75948457D01*
X184301944Y-75946000D01*
X184301947Y-75946000D01*
X184376585Y-75938649D01*
X184472343Y-75909601D01*
X184560595Y-75862429D01*
X184637948Y-75798948D01*
X184653855Y-75779565D01*
X186650571Y-73782850D01*
X186669948Y-73766948D01*
X186688624Y-73744190D01*
X186733429Y-73689596D01*
X186777090Y-73607911D01*
X186780601Y-73601343D01*
X186809649Y-73505585D01*
X186817000Y-73430947D01*
X186817000Y-73430944D01*
X186819457Y-73406000D01*
X186817000Y-73381056D01*
X186817000Y-56031943D01*
X186819457Y-56006999D01*
X186815108Y-55962842D01*
X186809649Y-55907415D01*
X186780601Y-55811657D01*
X186758643Y-55770576D01*
X186733429Y-55723404D01*
X186685850Y-55665429D01*
X186669948Y-55646052D01*
X186650571Y-55630150D01*
X185542855Y-54522435D01*
X185526948Y-54503052D01*
X185449595Y-54439571D01*
X185361343Y-54392399D01*
X185265585Y-54363351D01*
X185190947Y-54356000D01*
X185190944Y-54356000D01*
X185166000Y-54353543D01*
X185141056Y-54356000D01*
X182271376Y-54356000D01*
X182244582Y-54334011D01*
X182163492Y-54290667D01*
X182075504Y-54263976D01*
X181984000Y-54254964D01*
X180584000Y-54254964D01*
X180492496Y-54263976D01*
X180404508Y-54290667D01*
X180323418Y-54334011D01*
X180252341Y-54392341D01*
X180194011Y-54463418D01*
X180150667Y-54544508D01*
X180123976Y-54632496D01*
X180114964Y-54724000D01*
X180114964Y-55024000D01*
X180123976Y-55115504D01*
X180150667Y-55203492D01*
X180194011Y-55284582D01*
X180252341Y-55355659D01*
X180323418Y-55413989D01*
X180404508Y-55457333D01*
X180492496Y-55484024D01*
X180584000Y-55493036D01*
X181984000Y-55493036D01*
X182075504Y-55484024D01*
X182163492Y-55457333D01*
X182244582Y-55413989D01*
X182295747Y-55372000D01*
X184955580Y-55372000D01*
X185801001Y-56217422D01*
X185801001Y-57198048D01*
X185695013Y-57165898D01*
X185584000Y-57154964D01*
X183384000Y-57154964D01*
X183272987Y-57165898D01*
X183166239Y-57198279D01*
X183067861Y-57250864D01*
X183045100Y-57269543D01*
X183045100Y-56408577D01*
X183047127Y-56387999D01*
X183044169Y-56357966D01*
X183039035Y-56305842D01*
X183015071Y-56226842D01*
X182976154Y-56154034D01*
X182923782Y-56090218D01*
X182907790Y-56077094D01*
X182672907Y-55842211D01*
X182659782Y-55826218D01*
X182595966Y-55773846D01*
X182523158Y-55734929D01*
X182444158Y-55710965D01*
X182382580Y-55704900D01*
X182365628Y-55703230D01*
X182315659Y-55642341D01*
X182244582Y-55584011D01*
X182163492Y-55540667D01*
X182075504Y-55513976D01*
X181984000Y-55504964D01*
X180584000Y-55504964D01*
X180492496Y-55513976D01*
X180404508Y-55540667D01*
X180323418Y-55584011D01*
X180252341Y-55642341D01*
X180194011Y-55713418D01*
X180150667Y-55794508D01*
X180123976Y-55882496D01*
X180114964Y-55974000D01*
X180114964Y-56274000D01*
X180123976Y-56365504D01*
X180150667Y-56453492D01*
X180194011Y-56534582D01*
X180252341Y-56605659D01*
X180323418Y-56663989D01*
X180404508Y-56707333D01*
X180492496Y-56734024D01*
X180584000Y-56743036D01*
X181984000Y-56743036D01*
X182075504Y-56734024D01*
X182163492Y-56707333D01*
X182206900Y-56684131D01*
X182206901Y-71327402D01*
X180547404Y-72986900D01*
X170734597Y-72986900D01*
X170307000Y-72559304D01*
X170307000Y-72454458D01*
X170282597Y-72331777D01*
X170234729Y-72216215D01*
X170231937Y-72212036D01*
X170287002Y-72212036D01*
X170349243Y-72205906D01*
X170409092Y-72187751D01*
X170464249Y-72158269D01*
X170512595Y-72118593D01*
X170552271Y-72070247D01*
X170581753Y-72015090D01*
X170599908Y-71955241D01*
X170606038Y-71893000D01*
X170606038Y-71501002D01*
X171752964Y-71501002D01*
X171752964Y-72093002D01*
X171759094Y-72155243D01*
X171777249Y-72215092D01*
X171806731Y-72270249D01*
X171846407Y-72318595D01*
X171894753Y-72358271D01*
X171949910Y-72387753D01*
X172009759Y-72405908D01*
X172072000Y-72412038D01*
X173572000Y-72412038D01*
X173634241Y-72405908D01*
X173694090Y-72387753D01*
X173749247Y-72358271D01*
X173797593Y-72318595D01*
X173837269Y-72270249D01*
X173866751Y-72215092D01*
X173884906Y-72155243D01*
X173891036Y-72093002D01*
X173891036Y-69893002D01*
X173884906Y-69830761D01*
X173866751Y-69770912D01*
X173837269Y-69715755D01*
X173797593Y-69667409D01*
X173749247Y-69627733D01*
X173694090Y-69598251D01*
X173634241Y-69580096D01*
X173609000Y-69577610D01*
X173609000Y-65602036D01*
X174308999Y-65602036D01*
X174371240Y-65595906D01*
X174431089Y-65577751D01*
X174486246Y-65548269D01*
X174534592Y-65508593D01*
X174574268Y-65460247D01*
X174603750Y-65405090D01*
X174621905Y-65345241D01*
X174628035Y-65283000D01*
X174628035Y-64633000D01*
X174621905Y-64570759D01*
X174603750Y-64510910D01*
X174589629Y-64484492D01*
X174590364Y-64483393D01*
X174614298Y-64425611D01*
X174626499Y-64364271D01*
X174626499Y-64249875D01*
X174547124Y-64170500D01*
X173719499Y-64170500D01*
X173719499Y-64218500D01*
X173338499Y-64218500D01*
X173338499Y-64170500D01*
X172510874Y-64170500D01*
X172431499Y-64249875D01*
X172431499Y-64364271D01*
X172443700Y-64425611D01*
X172467634Y-64483393D01*
X172468369Y-64484492D01*
X172454248Y-64510910D01*
X172436093Y-64570759D01*
X172429963Y-64633000D01*
X172429963Y-65283000D01*
X172436093Y-65345241D01*
X172454248Y-65405090D01*
X172483730Y-65460247D01*
X172523406Y-65508593D01*
X172571752Y-65548269D01*
X172593000Y-65559626D01*
X172593001Y-69573966D01*
X172072000Y-69573966D01*
X172009759Y-69580096D01*
X171949910Y-69598251D01*
X171894753Y-69627733D01*
X171846407Y-69667409D01*
X171806731Y-69715755D01*
X171777249Y-69770912D01*
X171759094Y-69830761D01*
X171752964Y-69893002D01*
X171752964Y-70485002D01*
X170606038Y-70485002D01*
X170606038Y-70093000D01*
X170599908Y-70030759D01*
X170581753Y-69970910D01*
X170552271Y-69915753D01*
X170512595Y-69867407D01*
X170464249Y-69827731D01*
X170409092Y-69798249D01*
X170349243Y-69780094D01*
X170287002Y-69773964D01*
X167787002Y-69773964D01*
X167724761Y-69780094D01*
X167664912Y-69798249D01*
X167609755Y-69827731D01*
X167561409Y-69867407D01*
X167521733Y-69915753D01*
X167492251Y-69970910D01*
X167474096Y-70030759D01*
X167467966Y-70093000D01*
X166606038Y-70093000D01*
X166599908Y-70030759D01*
X166581753Y-69970910D01*
X166552271Y-69915753D01*
X166512595Y-69867407D01*
X166464249Y-69827731D01*
X166409092Y-69798249D01*
X166349243Y-69780094D01*
X166287002Y-69773964D01*
X166243000Y-69773964D01*
X166243000Y-68349035D01*
X166439001Y-68349035D01*
X166550014Y-68338101D01*
X166656761Y-68305720D01*
X166755140Y-68253135D01*
X166841370Y-68182369D01*
X166912136Y-68096139D01*
X166964721Y-67997760D01*
X166997102Y-67891013D01*
X167008036Y-67780000D01*
X167008036Y-67129998D01*
X166997102Y-67018985D01*
X166964721Y-66912238D01*
X166912136Y-66813859D01*
X166841370Y-66727629D01*
X166755140Y-66656863D01*
X166656761Y-66604278D01*
X166550014Y-66571897D01*
X166439001Y-66560963D01*
X165538999Y-66560963D01*
X165427986Y-66571897D01*
X165321239Y-66604278D01*
X165222860Y-66656863D01*
X165136630Y-66727629D01*
X165065864Y-66813859D01*
X165013279Y-66912238D01*
X165002734Y-66946999D01*
X162174419Y-66946999D01*
X161519395Y-66291975D01*
X161530241Y-66290907D01*
X161590090Y-66272752D01*
X161645247Y-66243270D01*
X161693593Y-66203594D01*
X161733269Y-66155248D01*
X161762751Y-66100091D01*
X161780906Y-66040242D01*
X161787036Y-65978001D01*
X161787036Y-64578001D01*
X162148964Y-64578001D01*
X162148964Y-65978001D01*
X162155094Y-66040242D01*
X162173249Y-66100091D01*
X162202731Y-66155248D01*
X162242407Y-66203594D01*
X162290753Y-66243270D01*
X162345910Y-66272752D01*
X162405759Y-66290907D01*
X162468000Y-66297037D01*
X163668000Y-66297037D01*
X163730241Y-66290907D01*
X163790090Y-66272752D01*
X163845247Y-66243270D01*
X163893593Y-66203594D01*
X163933269Y-66155248D01*
X163962751Y-66100091D01*
X163980906Y-66040242D01*
X163987036Y-65978001D01*
X163987036Y-65674874D01*
X164971500Y-65674874D01*
X164971500Y-66011270D01*
X164983701Y-66072610D01*
X165007635Y-66130392D01*
X165042382Y-66182393D01*
X165086606Y-66226617D01*
X165138607Y-66261364D01*
X165196389Y-66285298D01*
X165257729Y-66297499D01*
X165719125Y-66297499D01*
X165798500Y-66218124D01*
X165798500Y-65595499D01*
X166179500Y-65595499D01*
X166179500Y-66218124D01*
X166258875Y-66297499D01*
X166720271Y-66297499D01*
X166781611Y-66285298D01*
X166839393Y-66261364D01*
X166891394Y-66226617D01*
X166935618Y-66182393D01*
X166970365Y-66130392D01*
X166994299Y-66072610D01*
X167006500Y-66011270D01*
X167006500Y-65674874D01*
X166927125Y-65595499D01*
X166179500Y-65595499D01*
X165798500Y-65595499D01*
X165050875Y-65595499D01*
X164971500Y-65674874D01*
X163987036Y-65674874D01*
X163987036Y-64798728D01*
X164971500Y-64798728D01*
X164971500Y-65135124D01*
X165050875Y-65214499D01*
X165798500Y-65214499D01*
X165798500Y-64591874D01*
X166179500Y-64591874D01*
X166179500Y-65214499D01*
X166927125Y-65214499D01*
X167006500Y-65135124D01*
X167006500Y-64798728D01*
X166994299Y-64737388D01*
X166970365Y-64679606D01*
X166935618Y-64627605D01*
X166891394Y-64583381D01*
X166839393Y-64548634D01*
X166781611Y-64524700D01*
X166720271Y-64512499D01*
X166258875Y-64512499D01*
X166179500Y-64591874D01*
X165798500Y-64591874D01*
X165719125Y-64512499D01*
X165257729Y-64512499D01*
X165196389Y-64524700D01*
X165138607Y-64548634D01*
X165086606Y-64583381D01*
X165042382Y-64627605D01*
X165007635Y-64679606D01*
X164983701Y-64737388D01*
X164971500Y-64798728D01*
X163987036Y-64798728D01*
X163987036Y-64578001D01*
X163980906Y-64515760D01*
X163962751Y-64455911D01*
X163933269Y-64400754D01*
X163893593Y-64352408D01*
X163845247Y-64312732D01*
X163790090Y-64283250D01*
X163730241Y-64265095D01*
X163668000Y-64258965D01*
X162468000Y-64258965D01*
X162405759Y-64265095D01*
X162345910Y-64283250D01*
X162290753Y-64312732D01*
X162242407Y-64352408D01*
X162202731Y-64400754D01*
X162173249Y-64455911D01*
X162155094Y-64515760D01*
X162148964Y-64578001D01*
X161787036Y-64578001D01*
X161780906Y-64515760D01*
X161762751Y-64455911D01*
X161733269Y-64400754D01*
X161693593Y-64352408D01*
X161645247Y-64312732D01*
X161590090Y-64283250D01*
X161530241Y-64265095D01*
X161468000Y-64258965D01*
X160615732Y-64258965D01*
X160911396Y-63963301D01*
X160927382Y-63950182D01*
X160956356Y-63914876D01*
X168527500Y-63914876D01*
X168527500Y-64251272D01*
X168539701Y-64312612D01*
X168563635Y-64370394D01*
X168598382Y-64422395D01*
X168642606Y-64466619D01*
X168694607Y-64501366D01*
X168752389Y-64525300D01*
X168813729Y-64537501D01*
X169275125Y-64537501D01*
X169354500Y-64458126D01*
X169354500Y-63835501D01*
X169735500Y-63835501D01*
X169735500Y-64458126D01*
X169814875Y-64537501D01*
X170276271Y-64537501D01*
X170337611Y-64525300D01*
X170395393Y-64501366D01*
X170447394Y-64466619D01*
X170491618Y-64422395D01*
X170526365Y-64370394D01*
X170550299Y-64312612D01*
X170562500Y-64251272D01*
X170562500Y-63914876D01*
X170483125Y-63835501D01*
X169735500Y-63835501D01*
X169354500Y-63835501D01*
X168606875Y-63835501D01*
X168527500Y-63914876D01*
X160956356Y-63914876D01*
X160979754Y-63886366D01*
X161018671Y-63813558D01*
X161042635Y-63734558D01*
X161048700Y-63672980D01*
X161048700Y-63672979D01*
X161050727Y-63652400D01*
X161048700Y-63631820D01*
X161048700Y-63038730D01*
X168527500Y-63038730D01*
X168527500Y-63375126D01*
X168606875Y-63454501D01*
X169354500Y-63454501D01*
X169354500Y-62831876D01*
X169735500Y-62831876D01*
X169735500Y-63454501D01*
X170483125Y-63454501D01*
X170562500Y-63375126D01*
X170562500Y-63038730D01*
X170550299Y-62977390D01*
X170526365Y-62919608D01*
X170491618Y-62867607D01*
X170447394Y-62823383D01*
X170395393Y-62788636D01*
X170337611Y-62764702D01*
X170276271Y-62752501D01*
X169814875Y-62752501D01*
X169735500Y-62831876D01*
X169354500Y-62831876D01*
X169275125Y-62752501D01*
X168813729Y-62752501D01*
X168752389Y-62764702D01*
X168694607Y-62788636D01*
X168642606Y-62823383D01*
X168598382Y-62867607D01*
X168563635Y-62919608D01*
X168539701Y-62977390D01*
X168527500Y-63038730D01*
X161048700Y-63038730D01*
X161048700Y-62973598D01*
X161105759Y-62990907D01*
X161168000Y-62997037D01*
X162768000Y-62997037D01*
X162830241Y-62990907D01*
X162890090Y-62972752D01*
X162945247Y-62943270D01*
X162993593Y-62903594D01*
X163033269Y-62855248D01*
X163062751Y-62800091D01*
X163080906Y-62740242D01*
X163087036Y-62678001D01*
X163087036Y-62014100D01*
X168535232Y-62014100D01*
X168536898Y-62031015D01*
X168569279Y-62137762D01*
X168621864Y-62236141D01*
X168692630Y-62322371D01*
X168778860Y-62393137D01*
X168877239Y-62445722D01*
X168983986Y-62478103D01*
X169094999Y-62489037D01*
X169995001Y-62489037D01*
X170106014Y-62478103D01*
X170212761Y-62445722D01*
X170311140Y-62393137D01*
X170397370Y-62322371D01*
X170468136Y-62236141D01*
X170520721Y-62137762D01*
X170553102Y-62031015D01*
X170554768Y-62014101D01*
X172420604Y-62014101D01*
X172820466Y-62413964D01*
X172748999Y-62413964D01*
X172686758Y-62420094D01*
X172626909Y-62438249D01*
X172571752Y-62467731D01*
X172523406Y-62507407D01*
X172483730Y-62555753D01*
X172454248Y-62610910D01*
X172436093Y-62670759D01*
X172429963Y-62733000D01*
X172429963Y-63383000D01*
X172436093Y-63445241D01*
X172454248Y-63505090D01*
X172468369Y-63531508D01*
X172467634Y-63532607D01*
X172443700Y-63590389D01*
X172431499Y-63651729D01*
X172431499Y-63766125D01*
X172510874Y-63845500D01*
X173338499Y-63845500D01*
X173338499Y-63797500D01*
X173719499Y-63797500D01*
X173719499Y-63845500D01*
X174547124Y-63845500D01*
X174626499Y-63766125D01*
X174626499Y-63651729D01*
X174614298Y-63590389D01*
X174590364Y-63532607D01*
X174589629Y-63531508D01*
X174603750Y-63505090D01*
X174621905Y-63445241D01*
X174628035Y-63383000D01*
X174628035Y-62733000D01*
X174621905Y-62670759D01*
X174603750Y-62610910D01*
X174598308Y-62600729D01*
X175129963Y-63132384D01*
X175129963Y-63249327D01*
X175114951Y-63298815D01*
X175105143Y-63398400D01*
X175107600Y-63423347D01*
X175107600Y-63576653D01*
X175105143Y-63601600D01*
X175114951Y-63701185D01*
X175129963Y-63750673D01*
X175129963Y-64333000D01*
X175136093Y-64395241D01*
X175154248Y-64455090D01*
X175169166Y-64483000D01*
X175154248Y-64510910D01*
X175136093Y-64570759D01*
X175129963Y-64633000D01*
X175129963Y-65283000D01*
X175136093Y-65345241D01*
X175154248Y-65405090D01*
X175183730Y-65460247D01*
X175223406Y-65508593D01*
X175271752Y-65548269D01*
X175326909Y-65577751D01*
X175386758Y-65595906D01*
X175448999Y-65602036D01*
X177008999Y-65602036D01*
X177071240Y-65595906D01*
X177131089Y-65577751D01*
X177186246Y-65548269D01*
X177234592Y-65508593D01*
X177274268Y-65460247D01*
X177303750Y-65405090D01*
X177321905Y-65345241D01*
X177328035Y-65283000D01*
X177328035Y-64633000D01*
X177321905Y-64570759D01*
X177303750Y-64510910D01*
X177288832Y-64483000D01*
X177303750Y-64455090D01*
X177321905Y-64395241D01*
X177328035Y-64333000D01*
X177328035Y-63751025D01*
X177335449Y-63726584D01*
X177342800Y-63651946D01*
X177342800Y-63651943D01*
X177343484Y-63645000D01*
X178337734Y-63645000D01*
X178348279Y-63679761D01*
X178400864Y-63778140D01*
X178471630Y-63864370D01*
X178557860Y-63935136D01*
X178656239Y-63987721D01*
X178762986Y-64020102D01*
X178816000Y-64025324D01*
X178816001Y-69573966D01*
X178472000Y-69573966D01*
X178409759Y-69580096D01*
X178349910Y-69598251D01*
X178294753Y-69627733D01*
X178246407Y-69667409D01*
X178206731Y-69715755D01*
X178177249Y-69770912D01*
X178159094Y-69830761D01*
X178152964Y-69893002D01*
X178152964Y-72093002D01*
X178159094Y-72155243D01*
X178177249Y-72215092D01*
X178206731Y-72270249D01*
X178246407Y-72318595D01*
X178294753Y-72358271D01*
X178349910Y-72387753D01*
X178409759Y-72405908D01*
X178472000Y-72412038D01*
X179972000Y-72412038D01*
X180034241Y-72405908D01*
X180094090Y-72387753D01*
X180149247Y-72358271D01*
X180197593Y-72318595D01*
X180237269Y-72270249D01*
X180266751Y-72215092D01*
X180284906Y-72155243D01*
X180291036Y-72093002D01*
X180291036Y-69893002D01*
X180284906Y-69830761D01*
X180266751Y-69770912D01*
X180237269Y-69715755D01*
X180197593Y-69667409D01*
X180149247Y-69627733D01*
X180094090Y-69598251D01*
X180034241Y-69580096D01*
X179972000Y-69573966D01*
X179832000Y-69573966D01*
X179832000Y-64025324D01*
X179885014Y-64020102D01*
X179991761Y-63987721D01*
X180090140Y-63935136D01*
X180176370Y-63864370D01*
X180247136Y-63778140D01*
X180299721Y-63679761D01*
X180332102Y-63573014D01*
X180343036Y-63462001D01*
X180343036Y-62811999D01*
X180332102Y-62700986D01*
X180299721Y-62594239D01*
X180247136Y-62495860D01*
X180176370Y-62409630D01*
X180090140Y-62338864D01*
X179991761Y-62286279D01*
X179885014Y-62253898D01*
X179774001Y-62242964D01*
X178873999Y-62242964D01*
X178762986Y-62253898D01*
X178656239Y-62286279D01*
X178557860Y-62338864D01*
X178471630Y-62409630D01*
X178400864Y-62495860D01*
X178348279Y-62594239D01*
X178337734Y-62629000D01*
X177309238Y-62629000D01*
X177303750Y-62610910D01*
X177274268Y-62555753D01*
X177234592Y-62507407D01*
X177186246Y-62467731D01*
X177131089Y-62438249D01*
X177071240Y-62420094D01*
X177008999Y-62413964D01*
X175848383Y-62413964D01*
X174791294Y-61356875D01*
X178306500Y-61356875D01*
X178306500Y-61693271D01*
X178318701Y-61754611D01*
X178342635Y-61812393D01*
X178377382Y-61864394D01*
X178421606Y-61908618D01*
X178473607Y-61943365D01*
X178531389Y-61967299D01*
X178592729Y-61979500D01*
X179054125Y-61979500D01*
X179133500Y-61900125D01*
X179133500Y-61277500D01*
X179514500Y-61277500D01*
X179514500Y-61900125D01*
X179593875Y-61979500D01*
X180055271Y-61979500D01*
X180116611Y-61967299D01*
X180174393Y-61943365D01*
X180226394Y-61908618D01*
X180270618Y-61864394D01*
X180305365Y-61812393D01*
X180329299Y-61754611D01*
X180341500Y-61693271D01*
X180341500Y-61356875D01*
X180262125Y-61277500D01*
X179514500Y-61277500D01*
X179133500Y-61277500D01*
X178385875Y-61277500D01*
X178306500Y-61356875D01*
X174791294Y-61356875D01*
X173915148Y-60480729D01*
X178306500Y-60480729D01*
X178306500Y-60817125D01*
X178385875Y-60896500D01*
X179133500Y-60896500D01*
X179133500Y-60273875D01*
X179514500Y-60273875D01*
X179514500Y-60896500D01*
X180262125Y-60896500D01*
X180341500Y-60817125D01*
X180341500Y-60480729D01*
X180329299Y-60419389D01*
X180305365Y-60361607D01*
X180270618Y-60309606D01*
X180226394Y-60265382D01*
X180174393Y-60230635D01*
X180116611Y-60206701D01*
X180055271Y-60194500D01*
X179593875Y-60194500D01*
X179514500Y-60273875D01*
X179133500Y-60273875D01*
X179054125Y-60194500D01*
X178592729Y-60194500D01*
X178531389Y-60206701D01*
X178473607Y-60230635D01*
X178421606Y-60265382D01*
X178377382Y-60309606D01*
X178342635Y-60361607D01*
X178318701Y-60419389D01*
X178306500Y-60480729D01*
X173915148Y-60480729D01*
X173101000Y-59666581D01*
X173101000Y-59519420D01*
X173692420Y-58928000D01*
X174489676Y-58928000D01*
X174494898Y-58981014D01*
X174527279Y-59087761D01*
X174579864Y-59186140D01*
X174650630Y-59272370D01*
X174736860Y-59343136D01*
X174835239Y-59395721D01*
X174941986Y-59428102D01*
X175052999Y-59439036D01*
X175703001Y-59439036D01*
X175814014Y-59428102D01*
X175920761Y-59395721D01*
X176019140Y-59343136D01*
X176105370Y-59272370D01*
X176176136Y-59186140D01*
X176228721Y-59087761D01*
X176261102Y-58981014D01*
X176272036Y-58870001D01*
X176272036Y-58689875D01*
X176535500Y-58689875D01*
X176535500Y-59151271D01*
X176547701Y-59212611D01*
X176571635Y-59270393D01*
X176606382Y-59322394D01*
X176650606Y-59366618D01*
X176702607Y-59401365D01*
X176760389Y-59425299D01*
X176821729Y-59437500D01*
X177158125Y-59437500D01*
X177237500Y-59358125D01*
X177237500Y-58610500D01*
X177618500Y-58610500D01*
X177618500Y-59358125D01*
X177697875Y-59437500D01*
X178034271Y-59437500D01*
X178095611Y-59425299D01*
X178153393Y-59401365D01*
X178205394Y-59366618D01*
X178249618Y-59322394D01*
X178284365Y-59270393D01*
X178308299Y-59212611D01*
X178320500Y-59151271D01*
X178320500Y-58689875D01*
X178241125Y-58610500D01*
X177618500Y-58610500D01*
X177237500Y-58610500D01*
X176614875Y-58610500D01*
X176535500Y-58689875D01*
X176272036Y-58689875D01*
X176272036Y-57969999D01*
X176261102Y-57858986D01*
X176228721Y-57752239D01*
X176194774Y-57688729D01*
X176535500Y-57688729D01*
X176535500Y-58150125D01*
X176614875Y-58229500D01*
X177237500Y-58229500D01*
X177237500Y-57481875D01*
X177618500Y-57481875D01*
X177618500Y-58229500D01*
X178241125Y-58229500D01*
X178320500Y-58150125D01*
X178320500Y-57688729D01*
X178308299Y-57627389D01*
X178284365Y-57569607D01*
X178249618Y-57517606D01*
X178205394Y-57473382D01*
X178153393Y-57438635D01*
X178095611Y-57414701D01*
X178034271Y-57402500D01*
X177697875Y-57402500D01*
X177618500Y-57481875D01*
X177237500Y-57481875D01*
X177158125Y-57402500D01*
X176821729Y-57402500D01*
X176760389Y-57414701D01*
X176702607Y-57438635D01*
X176650606Y-57473382D01*
X176606382Y-57517606D01*
X176571635Y-57569607D01*
X176547701Y-57627389D01*
X176535500Y-57688729D01*
X176194774Y-57688729D01*
X176176136Y-57653860D01*
X176105370Y-57567630D01*
X176019140Y-57496864D01*
X175920761Y-57444279D01*
X175814014Y-57411898D01*
X175703001Y-57400964D01*
X175052999Y-57400964D01*
X174941986Y-57411898D01*
X174835239Y-57444279D01*
X174736860Y-57496864D01*
X174650630Y-57567630D01*
X174579864Y-57653860D01*
X174527279Y-57752239D01*
X174494898Y-57858986D01*
X174489676Y-57912000D01*
X173506944Y-57912000D01*
X173482000Y-57909543D01*
X173457056Y-57912000D01*
X173457053Y-57912000D01*
X173382415Y-57919351D01*
X173286657Y-57948399D01*
X173198405Y-57995571D01*
X173121052Y-58059052D01*
X173105145Y-58078435D01*
X172251435Y-58932145D01*
X172232052Y-58948052D01*
X172216145Y-58967435D01*
X172132425Y-59051155D01*
X162340327Y-59051155D01*
X162328150Y-59032930D01*
X162213167Y-58917947D01*
X162077963Y-58827607D01*
X161927731Y-58765379D01*
X161768247Y-58733655D01*
X161605637Y-58733655D01*
X161446153Y-58765379D01*
X161295921Y-58827607D01*
X161160717Y-58917947D01*
X161045734Y-59032930D01*
X160955394Y-59168134D01*
X160911713Y-59273591D01*
X160814823Y-59233457D01*
X160692142Y-59209054D01*
X160567058Y-59209054D01*
X160444377Y-59233457D01*
X160328815Y-59281325D01*
X160224811Y-59350818D01*
X160136364Y-59439265D01*
X160066871Y-59543269D01*
X160019003Y-59658831D01*
X159994600Y-59781512D01*
X159994600Y-59906596D01*
X160019003Y-60029277D01*
X160066871Y-60144839D01*
X160136364Y-60248843D01*
X160210501Y-60322980D01*
X160210500Y-63478803D01*
X159808304Y-63881000D01*
X159703458Y-63881000D01*
X159580777Y-63905403D01*
X159465215Y-63953271D01*
X159361211Y-64022764D01*
X159272764Y-64111211D01*
X159203271Y-64215215D01*
X159155403Y-64330777D01*
X159131000Y-64453458D01*
X159131000Y-64578542D01*
X159155403Y-64701223D01*
X159203271Y-64816785D01*
X159272764Y-64920789D01*
X159361211Y-65009236D01*
X159465215Y-65078729D01*
X159580777Y-65126597D01*
X159703458Y-65151000D01*
X159828542Y-65151000D01*
X159948964Y-65127046D01*
X159948964Y-65978001D01*
X159955094Y-66040242D01*
X159973249Y-66100091D01*
X160002731Y-66155248D01*
X160042407Y-66203594D01*
X160072755Y-66228500D01*
X159273873Y-66228500D01*
X159194498Y-66307875D01*
X159194498Y-67480500D01*
X160417123Y-67480500D01*
X160496498Y-67401125D01*
X160496498Y-66707087D01*
X160507053Y-66719949D01*
X160526430Y-66735851D01*
X161587147Y-67796569D01*
X161603050Y-67815947D01*
X161622427Y-67831849D01*
X161680402Y-67879428D01*
X161764578Y-67924421D01*
X161768655Y-67926600D01*
X161864413Y-67955648D01*
X161939051Y-67962999D01*
X161939053Y-67962999D01*
X161963997Y-67965456D01*
X161988941Y-67962999D01*
X165002734Y-67962999D01*
X165013279Y-67997760D01*
X165065864Y-68096139D01*
X165136630Y-68182369D01*
X165222860Y-68253135D01*
X165227000Y-68255348D01*
X165227001Y-69773964D01*
X163787002Y-69773964D01*
X163724761Y-69780094D01*
X163664912Y-69798249D01*
X163609755Y-69827731D01*
X163561409Y-69867407D01*
X163521733Y-69915753D01*
X163492251Y-69970910D01*
X163474096Y-70030759D01*
X163467966Y-70093000D01*
X163467966Y-70485000D01*
X163430946Y-70485000D01*
X163406002Y-70482543D01*
X163381058Y-70485000D01*
X163381055Y-70485000D01*
X163306417Y-70492351D01*
X163210659Y-70521399D01*
X163122407Y-70568571D01*
X163045054Y-70632052D01*
X163029149Y-70651433D01*
X161417582Y-72263000D01*
X160498034Y-72263000D01*
X160498034Y-71895999D01*
X160487100Y-71784986D01*
X160454719Y-71678239D01*
X160402134Y-71579860D01*
X160331368Y-71493630D01*
X160245138Y-71422864D01*
X160146759Y-71370279D01*
X160040012Y-71337898D01*
X159928999Y-71326964D01*
X158078997Y-71326964D01*
X157967984Y-71337898D01*
X157861237Y-71370279D01*
X157762858Y-71422864D01*
X157676628Y-71493630D01*
X157605862Y-71579860D01*
X157553277Y-71678239D01*
X157520896Y-71784986D01*
X157509962Y-71895999D01*
X157509962Y-72136000D01*
X157309420Y-72136000D01*
X156840855Y-71667435D01*
X156824948Y-71648052D01*
X156805565Y-71632145D01*
X156186856Y-71013436D01*
X156170949Y-70994053D01*
X156093596Y-70930572D01*
X156005344Y-70883400D01*
X155909586Y-70854352D01*
X155834948Y-70847001D01*
X155834945Y-70847001D01*
X155810001Y-70844544D01*
X155785057Y-70847001D01*
X155749074Y-70847001D01*
X155727089Y-70835250D01*
X155667240Y-70817095D01*
X155604999Y-70810965D01*
X153854999Y-70810965D01*
X153792758Y-70817095D01*
X153732909Y-70835250D01*
X153710924Y-70847001D01*
X153118420Y-70847001D01*
X152908000Y-70636581D01*
X152908000Y-69465635D01*
X152954017Y-69461103D01*
X153060764Y-69428722D01*
X153159143Y-69376137D01*
X153245373Y-69305371D01*
X153316139Y-69219141D01*
X153368724Y-69120762D01*
X153401105Y-69014015D01*
X153412039Y-68903002D01*
X153412039Y-68722876D01*
X153675503Y-68722876D01*
X153675503Y-69184272D01*
X153687704Y-69245612D01*
X153711638Y-69303394D01*
X153746385Y-69355395D01*
X153790609Y-69399619D01*
X153842610Y-69434366D01*
X153900392Y-69458300D01*
X153961732Y-69470501D01*
X154298128Y-69470501D01*
X154377503Y-69391126D01*
X154377503Y-68643501D01*
X153754878Y-68643501D01*
X153675503Y-68722876D01*
X153412039Y-68722876D01*
X153412039Y-68003000D01*
X153401105Y-67891987D01*
X153368724Y-67785240D01*
X153334777Y-67721730D01*
X153675503Y-67721730D01*
X153675503Y-68183126D01*
X153754878Y-68262501D01*
X154377503Y-68262501D01*
X154377503Y-67514876D01*
X154298128Y-67435501D01*
X153961732Y-67435501D01*
X153900392Y-67447702D01*
X153842610Y-67471636D01*
X153790609Y-67506383D01*
X153746385Y-67550607D01*
X153711638Y-67602608D01*
X153687704Y-67660390D01*
X153675503Y-67721730D01*
X153334777Y-67721730D01*
X153316139Y-67686861D01*
X153245373Y-67600631D01*
X153159143Y-67529865D01*
X153060764Y-67477280D01*
X152954017Y-67444899D01*
X152843004Y-67433965D01*
X152193002Y-67433965D01*
X152081989Y-67444899D01*
X151975242Y-67477280D01*
X151876863Y-67529865D01*
X151790633Y-67600631D01*
X151719867Y-67686861D01*
X151667282Y-67785240D01*
X151634901Y-67891987D01*
X151623967Y-68003000D01*
X144194636Y-68003000D01*
X144169084Y-67874544D01*
X144107460Y-67725768D01*
X144017994Y-67591874D01*
X143904126Y-67478006D01*
X143770232Y-67388540D01*
X143621456Y-67326916D01*
X143463517Y-67295500D01*
X143302483Y-67295500D01*
X143144544Y-67326916D01*
X142995768Y-67388540D01*
X142861874Y-67478006D01*
X142748006Y-67591874D01*
X142658540Y-67725768D01*
X142596916Y-67874544D01*
X142565500Y-68032483D01*
X137654500Y-68032483D01*
X137654500Y-63632483D01*
X142565500Y-63632483D01*
X142565500Y-63793517D01*
X142596916Y-63951456D01*
X142658540Y-64100232D01*
X142748006Y-64234126D01*
X142861874Y-64347994D01*
X142995768Y-64437460D01*
X143144544Y-64499084D01*
X143302483Y-64530500D01*
X143463517Y-64530500D01*
X143621456Y-64499084D01*
X143770232Y-64437460D01*
X143904126Y-64347994D01*
X144017994Y-64234126D01*
X144107460Y-64100232D01*
X144169084Y-63951456D01*
X144200500Y-63793517D01*
X144200500Y-63632483D01*
X144169084Y-63474544D01*
X144107460Y-63325768D01*
X144017994Y-63191874D01*
X143904126Y-63078006D01*
X143770232Y-62988540D01*
X143621456Y-62926916D01*
X143463517Y-62895500D01*
X143302483Y-62895500D01*
X143144544Y-62926916D01*
X142995768Y-62988540D01*
X142861874Y-63078006D01*
X142748006Y-63191874D01*
X142658540Y-63325768D01*
X142596916Y-63474544D01*
X142565500Y-63632483D01*
X137654500Y-63632483D01*
X137654500Y-57724000D01*
X137950964Y-57724000D01*
X137950964Y-58224000D01*
X137961898Y-58335013D01*
X137994279Y-58441761D01*
X138046864Y-58540139D01*
X138117631Y-58626369D01*
X138203861Y-58697136D01*
X138302239Y-58749721D01*
X138408987Y-58782102D01*
X138520000Y-58793036D01*
X140720000Y-58793036D01*
X140831013Y-58782102D01*
X140937761Y-58749721D01*
X141036139Y-58697136D01*
X141122369Y-58626369D01*
X141193136Y-58540139D01*
X141245721Y-58441761D01*
X141278102Y-58335013D01*
X141289036Y-58224000D01*
X141289036Y-57724000D01*
X141278102Y-57612987D01*
X141245721Y-57506239D01*
X141193136Y-57407861D01*
X141122369Y-57321631D01*
X141036139Y-57250864D01*
X140937761Y-57198279D01*
X140831013Y-57165898D01*
X140720000Y-57154964D01*
X138520000Y-57154964D01*
X138408987Y-57165898D01*
X138302239Y-57198279D01*
X138203861Y-57250864D01*
X138117631Y-57321631D01*
X138046864Y-57407861D01*
X137994279Y-57506239D01*
X137961898Y-57612987D01*
X137950964Y-57724000D01*
X137654500Y-57724000D01*
X137654500Y-55974000D01*
X141650964Y-55974000D01*
X141650964Y-56274000D01*
X141659976Y-56365504D01*
X141686667Y-56453492D01*
X141730011Y-56534582D01*
X141788341Y-56605659D01*
X141859418Y-56663989D01*
X141940508Y-56707333D01*
X142028496Y-56734024D01*
X142120000Y-56743036D01*
X143520000Y-56743036D01*
X143611504Y-56734024D01*
X143699492Y-56707333D01*
X143780582Y-56663989D01*
X143851659Y-56605659D01*
X143872080Y-56580776D01*
X154782341Y-67491038D01*
X154758503Y-67514876D01*
X154758503Y-68262501D01*
X154778503Y-68262501D01*
X154778503Y-68643501D01*
X154758503Y-68643501D01*
X154758503Y-69391126D01*
X154837878Y-69470501D01*
X155174274Y-69470501D01*
X155235614Y-69458300D01*
X155293396Y-69434366D01*
X155345397Y-69399619D01*
X155389621Y-69355395D01*
X155409901Y-69325045D01*
X155409901Y-69702410D01*
X155407873Y-69723000D01*
X155415965Y-69805157D01*
X155439930Y-69884158D01*
X155474698Y-69949203D01*
X155478847Y-69956966D01*
X155531219Y-70020782D01*
X155547206Y-70033902D01*
X155834501Y-70321198D01*
X155853403Y-70416223D01*
X155901271Y-70531785D01*
X155970764Y-70635789D01*
X156059211Y-70724236D01*
X156163215Y-70793729D01*
X156278777Y-70841597D01*
X156401458Y-70866000D01*
X156526542Y-70866000D01*
X156649223Y-70841597D01*
X156764785Y-70793729D01*
X156868789Y-70724236D01*
X156957236Y-70635789D01*
X157026729Y-70531785D01*
X157074597Y-70416223D01*
X157099000Y-70293542D01*
X157099000Y-70168458D01*
X157074597Y-70045777D01*
X157026729Y-69930215D01*
X156957236Y-69826211D01*
X156868789Y-69737764D01*
X156764785Y-69668271D01*
X156649223Y-69620403D01*
X156526542Y-69596000D01*
X156401458Y-69596000D01*
X156312409Y-69613713D01*
X156248100Y-69549404D01*
X156248100Y-68923890D01*
X156278777Y-68936597D01*
X156401458Y-68961000D01*
X156526542Y-68961000D01*
X156649223Y-68936597D01*
X156764785Y-68888729D01*
X156868789Y-68819236D01*
X156957236Y-68730789D01*
X157026729Y-68626785D01*
X157074597Y-68511223D01*
X157099000Y-68388542D01*
X157099000Y-68263458D01*
X157074597Y-68140777D01*
X157026729Y-68025215D01*
X156970376Y-67940875D01*
X157511498Y-67940875D01*
X157511498Y-68827271D01*
X157523699Y-68888611D01*
X157547633Y-68946393D01*
X157582380Y-68998394D01*
X157626604Y-69042618D01*
X157678605Y-69077365D01*
X157736387Y-69101299D01*
X157797727Y-69113500D01*
X158734123Y-69113500D01*
X158813498Y-69034125D01*
X158813498Y-67861500D01*
X159194498Y-67861500D01*
X159194498Y-69034125D01*
X159273873Y-69113500D01*
X160210269Y-69113500D01*
X160271609Y-69101299D01*
X160329391Y-69077365D01*
X160381392Y-69042618D01*
X160425616Y-68998394D01*
X160460363Y-68946393D01*
X160484297Y-68888611D01*
X160496498Y-68827271D01*
X160496498Y-67940875D01*
X160417123Y-67861500D01*
X159194498Y-67861500D01*
X158813498Y-67861500D01*
X157590873Y-67861500D01*
X157511498Y-67940875D01*
X156970376Y-67940875D01*
X156957236Y-67921211D01*
X156883100Y-67847075D01*
X156883100Y-67711579D01*
X156885127Y-67690999D01*
X156877035Y-67608842D01*
X156860576Y-67554583D01*
X156853071Y-67529842D01*
X156814154Y-67457034D01*
X156761782Y-67393218D01*
X156745796Y-67380099D01*
X155880426Y-66514729D01*
X157511498Y-66514729D01*
X157511498Y-67401125D01*
X157590873Y-67480500D01*
X158813498Y-67480500D01*
X158813498Y-66307875D01*
X158734123Y-66228500D01*
X157797727Y-66228500D01*
X157736387Y-66240701D01*
X157678605Y-66264635D01*
X157626604Y-66299382D01*
X157582380Y-66343606D01*
X157547633Y-66395607D01*
X157523699Y-66453389D01*
X157511498Y-66514729D01*
X155880426Y-66514729D01*
X152692100Y-63326404D01*
X152692100Y-61819925D01*
X152766236Y-61745789D01*
X152835729Y-61641785D01*
X152883597Y-61526223D01*
X152908000Y-61403542D01*
X152908000Y-61278458D01*
X152883597Y-61155777D01*
X152835729Y-61040215D01*
X152766236Y-60936211D01*
X152677789Y-60847764D01*
X152573785Y-60778271D01*
X152458223Y-60730403D01*
X152335542Y-60706000D01*
X152210458Y-60706000D01*
X152087777Y-60730403D01*
X151972215Y-60778271D01*
X151868211Y-60847764D01*
X151779764Y-60936211D01*
X151710271Y-61040215D01*
X151662403Y-61155777D01*
X151638000Y-61278458D01*
X151638000Y-61403542D01*
X151662403Y-61526223D01*
X151710271Y-61641785D01*
X151779764Y-61745789D01*
X151853900Y-61819925D01*
X151853901Y-63377204D01*
X144318907Y-55842211D01*
X144305782Y-55826218D01*
X144241966Y-55773846D01*
X144169158Y-55734929D01*
X144090158Y-55710965D01*
X144028580Y-55704900D01*
X144008000Y-55702873D01*
X143987420Y-55704900D01*
X143902999Y-55704900D01*
X143851659Y-55642341D01*
X143780582Y-55584011D01*
X143699492Y-55540667D01*
X143611504Y-55513976D01*
X143520000Y-55504964D01*
X142120000Y-55504964D01*
X142028496Y-55513976D01*
X141940508Y-55540667D01*
X141859418Y-55584011D01*
X141788341Y-55642341D01*
X141730011Y-55713418D01*
X141686667Y-55794508D01*
X141659976Y-55882496D01*
X141650964Y-55974000D01*
X137654500Y-55974000D01*
X137654500Y-55103375D01*
X141652500Y-55103375D01*
X141652500Y-55205271D01*
X141664701Y-55266611D01*
X141688635Y-55324393D01*
X141723382Y-55376394D01*
X141767606Y-55420618D01*
X141819607Y-55455365D01*
X141877389Y-55479299D01*
X141938729Y-55491500D01*
X142550125Y-55491500D01*
X142629500Y-55412125D01*
X142629500Y-55024000D01*
X143010500Y-55024000D01*
X143010500Y-55412125D01*
X143089875Y-55491500D01*
X143701271Y-55491500D01*
X143762611Y-55479299D01*
X143820393Y-55455365D01*
X143872394Y-55420618D01*
X143916618Y-55376394D01*
X143951365Y-55324393D01*
X143975299Y-55266611D01*
X143987500Y-55205271D01*
X143987500Y-55103375D01*
X143908125Y-55024000D01*
X143010500Y-55024000D01*
X142629500Y-55024000D01*
X141731875Y-55024000D01*
X141652500Y-55103375D01*
X137654500Y-55103375D01*
X137654500Y-54542729D01*
X141652500Y-54542729D01*
X141652500Y-54644625D01*
X141731875Y-54724000D01*
X142629500Y-54724000D01*
X142629500Y-54335875D01*
X143010500Y-54335875D01*
X143010500Y-54724000D01*
X143908125Y-54724000D01*
X143987500Y-54644625D01*
X143987500Y-54542729D01*
X143975299Y-54481389D01*
X143951365Y-54423607D01*
X143916618Y-54371606D01*
X143872394Y-54327382D01*
X143820393Y-54292635D01*
X143762611Y-54268701D01*
X143701271Y-54256500D01*
X143089875Y-54256500D01*
X143010500Y-54335875D01*
X142629500Y-54335875D01*
X142550125Y-54256500D01*
X141938729Y-54256500D01*
X141877389Y-54268701D01*
X141819607Y-54292635D01*
X141767606Y-54327382D01*
X141723382Y-54371606D01*
X141688635Y-54423607D01*
X141664701Y-54481389D01*
X141652500Y-54542729D01*
X137654500Y-54542729D01*
X137654500Y-52774000D01*
X137950964Y-52774000D01*
X137950964Y-53274000D01*
X137961898Y-53385013D01*
X137994279Y-53491761D01*
X138046864Y-53590139D01*
X138117631Y-53676369D01*
X138203861Y-53747136D01*
X138302239Y-53799721D01*
X138408987Y-53832102D01*
X138520000Y-53843036D01*
X140720000Y-53843036D01*
X140831013Y-53832102D01*
X140937761Y-53799721D01*
X141036139Y-53747136D01*
X141122369Y-53676369D01*
X141191569Y-53592048D01*
X149815500Y-53592048D01*
X149815500Y-54087952D01*
X149912246Y-54574328D01*
X150102021Y-55032483D01*
X150377530Y-55444813D01*
X150728187Y-55795470D01*
X151140517Y-56070979D01*
X151598672Y-56260754D01*
X152085048Y-56357500D01*
X152580952Y-56357500D01*
X153067328Y-56260754D01*
X153525483Y-56070979D01*
X153937813Y-55795470D01*
X154288470Y-55444813D01*
X154563979Y-55032483D01*
X154753754Y-54574328D01*
X154850500Y-54087952D01*
X154850500Y-53592048D01*
X169815500Y-53592048D01*
X169815500Y-54087952D01*
X169912246Y-54574328D01*
X170102021Y-55032483D01*
X170377530Y-55444813D01*
X170728187Y-55795470D01*
X171140517Y-56070979D01*
X171598672Y-56260754D01*
X172085048Y-56357500D01*
X172580952Y-56357500D01*
X173067328Y-56260754D01*
X173525483Y-56070979D01*
X173937813Y-55795470D01*
X174288470Y-55444813D01*
X174563979Y-55032483D01*
X174753754Y-54574328D01*
X174850500Y-54087952D01*
X174850500Y-53592048D01*
X174753754Y-53105672D01*
X174616371Y-52774000D01*
X182814964Y-52774000D01*
X182814964Y-53274000D01*
X182825898Y-53385013D01*
X182858279Y-53491761D01*
X182910864Y-53590139D01*
X182981631Y-53676369D01*
X183067861Y-53747136D01*
X183166239Y-53799721D01*
X183272987Y-53832102D01*
X183384000Y-53843036D01*
X185584000Y-53843036D01*
X185695013Y-53832102D01*
X185801761Y-53799721D01*
X185900139Y-53747136D01*
X185986369Y-53676369D01*
X186057136Y-53590139D01*
X186109721Y-53491761D01*
X186142102Y-53385013D01*
X186153036Y-53274000D01*
X186153036Y-52774000D01*
X186142102Y-52662987D01*
X186109721Y-52556239D01*
X186057136Y-52457861D01*
X185986369Y-52371631D01*
X185900139Y-52300864D01*
X185801761Y-52248279D01*
X185695013Y-52215898D01*
X185584000Y-52204964D01*
X183384000Y-52204964D01*
X183272987Y-52215898D01*
X183166239Y-52248279D01*
X183067861Y-52300864D01*
X182981631Y-52371631D01*
X182910864Y-52457861D01*
X182858279Y-52556239D01*
X182825898Y-52662987D01*
X182814964Y-52774000D01*
X174616371Y-52774000D01*
X174563979Y-52647517D01*
X174288470Y-52235187D01*
X173937813Y-51884530D01*
X173525483Y-51609021D01*
X173067328Y-51419246D01*
X172580952Y-51322500D01*
X172085048Y-51322500D01*
X171598672Y-51419246D01*
X171140517Y-51609021D01*
X170728187Y-51884530D01*
X170377530Y-52235187D01*
X170102021Y-52647517D01*
X169912246Y-53105672D01*
X169815500Y-53592048D01*
X154850500Y-53592048D01*
X154753754Y-53105672D01*
X154563979Y-52647517D01*
X154288470Y-52235187D01*
X153937813Y-51884530D01*
X153525483Y-51609021D01*
X153067328Y-51419246D01*
X152580952Y-51322500D01*
X152085048Y-51322500D01*
X151598672Y-51419246D01*
X151140517Y-51609021D01*
X150728187Y-51884530D01*
X150377530Y-52235187D01*
X150102021Y-52647517D01*
X149912246Y-53105672D01*
X149815500Y-53592048D01*
X141191569Y-53592048D01*
X141193136Y-53590139D01*
X141245721Y-53491761D01*
X141278102Y-53385013D01*
X141289036Y-53274000D01*
X141289036Y-52774000D01*
X141278102Y-52662987D01*
X141245721Y-52556239D01*
X141193136Y-52457861D01*
X141122369Y-52371631D01*
X141036139Y-52300864D01*
X140937761Y-52248279D01*
X140831013Y-52215898D01*
X140720000Y-52204964D01*
X138520000Y-52204964D01*
X138408987Y-52215898D01*
X138302239Y-52248279D01*
X138203861Y-52300864D01*
X138117631Y-52371631D01*
X138046864Y-52457861D01*
X137994279Y-52556239D01*
X137961898Y-52662987D01*
X137950964Y-52774000D01*
X137654500Y-52774000D01*
X137654500Y-51960975D01*
X137668580Y-51817379D01*
X137705061Y-51696548D01*
X137764319Y-51585100D01*
X137844094Y-51487287D01*
X137941348Y-51406831D01*
X138052380Y-51346796D01*
X138172954Y-51309473D01*
X138315407Y-51294500D01*
X186291025Y-51294500D01*
X186434621Y-51308580D01*
M02*
