M48
; DRILL file {KiCad (6.0.0-rc1-dev-1583-gb0ab53ac2)} date 25/01/19 22:50:28 PM
; FORMAT={-:-/ absolute / inch / decimal}
; #@! TF.CreationDate,2019-01-25T22:50:28+01:00
; #@! TF.GenerationSoftware,Kicad,Pcbnew,(6.0.0-rc1-dev-1583-gb0ab53ac2)
; #@! TF.FileFunction,Plated,1,2,PTH
FMAT,2
INCH
T1C0.0125
T2C0.0200
T3C0.0866
%
G90
G05
T1
X5.88Y-2.9917
X5.995Y-2.415
X6.15Y-3.04
X6.15Y-3.11
X6.16Y-2.69
X6.16Y-2.765
X6.195Y-2.295
X6.205Y-2.555
X6.2817Y-3.0
X6.29Y-2.54
X6.324Y-2.3561
X6.34Y-3.025
X6.34Y-3.0871
X6.345Y-2.71
X6.365Y-2.285
X6.4345Y-3.0148
X6.4641Y-3.0241
X6.49Y-2.905
X6.5Y-3.025
X6.58Y-2.525
X6.68Y-2.855
X6.855Y-2.855
X6.87Y-2.92
X7.295Y-2.75
X7.295Y-3.03
T2
X5.5Y-3.005
X5.53Y-2.595
X6.0335Y-2.935
X6.3656Y-2.3448
X6.795Y-3.045
X6.96Y-2.685
X6.985Y-2.41
X7.065Y-2.27
X7.08Y-2.97
X7.125Y-2.595
T3
X5.9974Y-2.1197
X6.7848Y-2.1197
T0
M30
